<svg width="25" height="24" viewBox="0 0 25 24" fill="none" xmlns="http://www.w3.org/2000/svg">
<path fill-rule="evenodd" clip-rule="evenodd" d="M6.70001 19.2563L7.84784 18.1236C8.04386 17.9292 8.36044 17.9304 8.55494 18.1263C8.74944 18.3222 8.7482 18.6386 8.55218 18.833L6.55218 20.8084C6.35724 21.0017 6.04278 21.0017 5.84784 20.8084L3.84784 18.833C3.65182 18.6386 3.65058 18.3222 3.84508 18.1263C4.03958 17.9304 4.35616 17.9292 4.55218 18.1236L5.70001 19.2563V9.6821L4.55218 10.8148C4.35616 11.0092 4.03958 11.008 3.84508 10.8121C3.65058 10.6162 3.65182 10.2998 3.84784 10.1054L5.84784 8.13007C6.04278 7.93677 6.35724 7.93677 6.55218 8.13007L8.55218 10.1054C8.7482 10.2998 8.74944 10.6162 8.55494 10.8121C8.36044 11.008 8.04386 11.0092 7.84784 10.8148L6.70001 9.6821V19.2563ZM10.4098 5.99806L11.5433 7.14514C11.7378 7.34104 11.7365 7.65741 11.5405 7.85179C11.3445 8.04616 11.0279 8.04492 10.8334 7.84902L8.85675 5.85032C8.66333 5.65551 8.66333 5.34125 8.85675 5.14644L10.8334 3.14773C11.0279 2.95184 11.3445 2.9506 11.5405 3.14497C11.7365 3.33935 11.7378 3.65572 11.5433 3.85162L10.4098 4.9987H19.9902L18.8567 3.85162C18.6622 3.65572 18.6635 3.33935 18.8595 3.14497C19.0555 2.9506 19.3721 2.95184 19.5666 3.14773L21.5433 5.14644C21.7367 5.34125 21.7367 5.65551 21.5433 5.85032L19.5666 7.84902C19.3721 8.04492 19.0555 8.04616 18.8595 7.85179C18.6635 7.65741 18.6622 7.34104 18.8567 7.14514L19.9902 5.99806H10.4098ZM21.7 19.0013C21.7 20.1051 20.8046 21 19.7 21H11.7C10.5954 21 9.70001 20.1051 9.70001 19.0013V11.0065C9.70001 9.90263 10.5954 9.00778 11.7 9.00778H19.7C20.8046 9.00778 21.7 9.90263 21.7 11.0065V13.0052H20.7V11.0065C20.7 10.4546 20.2523 10.0071 19.7 10.0071H11.7C11.1477 10.0071 10.7 10.4546 10.7 11.0065V19.0013C10.7 19.5532 11.1477 20.0006 11.7 20.0006H19.7C20.2523 20.0006 20.7 19.5532 20.7 19.0013H21.7ZM21.7 17.0026H20.7V15.0039H21.7V17.0026Z" fill="#333333"/>
</svg>
