<svg width="21" height="20" viewBox="0 0 21 20" fill="none" xmlns="http://www.w3.org/2000/svg">
<path fill-rule="evenodd" clip-rule="evenodd" d="M3.90425 2.48571C3.36139 2.62857 2.90425 3.05714 2.76139 3.58571C2.73282 3.75714 2.71853 4.21429 2.71853 7.01429C2.71853 10.5143 2.71853 10.4429 2.91853 10.7714C3.03282 10.9714 3.28996 11.2286 3.48996 11.3571C3.86139 11.5714 3.73282 11.5714 7.37567 11.5714C10.5185 11.5714 10.69 11.5714 10.89 11.5C11.1499 11.4237 11.3827 11.2751 11.5614 11.0714C11.8042 10.8143 11.9471 10.5286 11.99 10.2C12.0328 9.87143 12.0328 4.12857 11.99 3.8C11.9185 3.18571 11.4185 2.64286 10.8471 2.48571C10.6614 2.44286 10.2328 2.42857 7.36139 2.44286C4.8471 2.44286 4.03282 2.44286 3.90425 2.48571ZM15.5042 2.52857C14.8377 3.12853 14.2125 3.77285 13.6328 4.45714C13.6127 4.53349 13.614 4.61391 13.6367 4.68954C13.6594 4.76517 13.7026 4.83305 13.7614 4.88571L13.8614 4.98571H14.4328L14.99 5L14.9757 7.5V10H14.4042L13.8328 10.0143L13.7328 10.1143C13.6715 10.1653 13.6256 10.2325 13.6003 10.3082C13.5751 10.3839 13.5715 10.4652 13.59 10.5429C13.6185 10.6143 13.8757 10.9143 14.5185 11.5429C15.0042 12.0429 15.4471 12.4571 15.5042 12.4857C15.6185 12.5429 15.7757 12.5429 15.89 12.4857C15.99 12.4286 17.7042 10.7143 17.7471 10.6143C17.7734 10.5534 17.787 10.4878 17.787 10.4214C17.787 10.3551 17.7734 10.2895 17.7471 10.2286C17.7094 10.172 17.6608 10.1234 17.6042 10.0857C17.49 10 17.4614 10 17.0328 10H16.5614V5H17.0185C17.4471 5 17.49 5 17.59 4.92857C17.6786 4.86995 17.7423 4.78048 17.7687 4.67752C17.7951 4.57457 17.7823 4.46548 17.7328 4.37143C17.139 3.7277 16.5194 3.10815 15.8757 2.51429C15.8129 2.48394 15.7436 2.46937 15.6739 2.47186C15.6042 2.47435 15.5362 2.49382 15.4757 2.52857M10.5328 7V10.1143H7.38996C5.10425 10.1286 4.2471 10.1143 4.20425 10.1C4.14116 8.03381 4.14116 5.96619 4.20425 3.9C4.23282 3.87143 4.96139 3.87143 7.38996 3.87143H10.5328V7.01429M4.7471 13.1857C4.60425 13.2286 2.77567 14.9143 2.70425 15.0714C2.61853 15.3 2.66139 15.3571 3.67567 16.2857L4.67567 17.1857C4.81853 17.2714 4.98996 17.2714 5.11853 17.1857C5.28996 17.0857 5.31853 17 5.30425 16.4V15.8571H10.29V16.4C10.29 16.7857 10.29 16.9714 10.3185 17.0286C10.4185 17.2143 10.7042 17.3143 10.89 17.2143C10.9185 17.1857 11.39 16.7429 11.9042 16.2143C12.9614 15.1714 12.99 15.1429 12.8757 14.9C12.8185 14.8 12.59 14.6143 11.8042 14C11.2328 13.5571 10.7614 13.2286 10.69 13.2C10.6148 13.1797 10.5356 13.1796 10.4603 13.1996C10.3851 13.2197 10.3165 13.2592 10.2614 13.3143C10.1757 13.4 10.1757 13.4286 10.1614 13.9143V14.4286H5.28996V14C5.28996 13.4429 5.26139 13.3429 5.0471 13.2429C4.90425 13.1714 4.87567 13.1714 4.73282 13.2143" fill="#2D383F"/>
</svg>
