<svg width="17" height="17" viewBox="0 0 17 17" fill="none" xmlns="http://www.w3.org/2000/svg">
<g id="Group 238379">
<circle id="Ellipse 963" cx="8.5" cy="8.5" r="8.5" fill="#D9D9D9"/>
<path id="Vector" d="M14.3847 7.71425C14.3847 7.40218 14.2607 7.10289 14.04 6.88222C13.8192 6.66155 13.5199 6.53758 13.2078 6.53758H4.96932V4.18425C4.96932 3.9762 5.05198 3.77667 5.19913 3.62956C5.34627 3.48245 5.54584 3.3998 5.75393 3.3998C5.96202 3.3998 6.16159 3.48245 6.30874 3.62956C6.45588 3.77667 6.53854 3.9762 6.53854 4.18425H6.14624C6.04219 4.18425 5.94241 4.22557 5.86883 4.29913C5.79526 4.37268 5.75393 4.47245 5.75393 4.57647C5.75393 4.68049 5.79526 4.78026 5.86883 4.85381C5.94241 4.92737 6.04219 4.96869 6.14624 4.96869H7.71546C7.81951 4.96869 7.91929 4.92737 7.99287 4.85381C8.06644 4.78026 8.10777 4.68049 8.10777 4.57647C8.10777 4.47245 8.06644 4.37268 7.99287 4.29913C7.91929 4.22557 7.81951 4.18425 7.71546 4.18425H7.32316C7.32316 3.76815 7.15783 3.3691 6.86354 3.07487C6.56925 2.78065 6.17012 2.61536 5.75393 2.61536C5.33775 2.61536 4.93861 2.78065 4.64432 3.07487C4.35003 3.3691 4.1847 3.76815 4.1847 4.18425V6.53758H3.7924C3.48026 6.53758 3.18091 6.66155 2.96019 6.88222C2.73948 7.10289 2.61548 7.40218 2.61548 7.71425C2.61692 7.967 2.69972 8.21257 2.85163 8.4146C3.00354 8.61664 3.21649 8.7644 3.45894 8.83601L4.06701 11.8679C4.11156 12.106 4.22853 12.3246 4.40196 12.4938C4.57539 12.6629 4.79681 12.7745 5.03601 12.8131L4.60447 13.8565C4.56566 13.9527 4.56657 14.0604 4.60701 14.156C4.64745 14.2515 4.72413 14.3272 4.82024 14.3663C4.86807 14.383 4.91908 14.3883 4.96932 14.382C5.04744 14.3824 5.12389 14.3595 5.18889 14.3162C5.2539 14.2728 5.30448 14.2111 5.33416 14.1389L5.87555 12.8131H11.1246L11.666 14.1389C11.6957 14.2111 11.7463 14.2728 11.8113 14.3162C11.8763 14.3595 11.9527 14.3824 12.0308 14.382C12.0823 14.3834 12.1334 14.3726 12.1799 14.3507C12.276 14.3115 12.3527 14.2358 12.3931 14.1403C12.4336 14.0447 12.4345 13.937 12.3957 13.8408L11.9641 12.8131C12.2012 12.7755 12.4211 12.6662 12.5943 12.5001C12.7675 12.3339 12.8857 12.1188 12.9331 11.8836L13.5412 8.8517C13.7862 8.77933 14.0011 8.62921 14.1532 8.42401C14.3054 8.21881 14.3866 7.96968 14.3847 7.71425ZM12.1642 11.7149C12.1459 11.8048 12.0966 11.8855 12.0249 11.9428C11.9532 12.0002 11.8637 12.0305 11.7719 12.0287H5.22039C5.12862 12.0305 5.03909 12.0002 4.96741 11.9428C4.89573 11.8855 4.84643 11.8048 4.82809 11.7149L4.27101 8.89092H12.7291L12.1642 11.7149ZM13.2078 8.10647H3.7924C3.68835 8.10647 3.58857 8.06515 3.515 7.99159C3.44142 7.91804 3.40009 7.81827 3.40009 7.71425C3.40009 7.61023 3.44142 7.51046 3.515 7.43691C3.58857 7.36335 3.68835 7.32203 3.7924 7.32203H13.2078C13.3118 7.32203 13.4116 7.36335 13.4852 7.43691C13.5587 7.51046 13.6001 7.61023 13.6001 7.71425C13.6001 7.81827 13.5587 7.91804 13.4852 7.99159C13.4116 8.06515 13.3118 8.10647 13.2078 8.10647Z" fill="black"/>
</g>
</svg>
