<svg width="24" height="24" viewBox="0 0 24 24" fill="none" xmlns="http://www.w3.org/2000/svg">
<g id="bed">
<path id="Vector" fill-rule="evenodd" clip-rule="evenodd" d="M17.2929 18H7.70711L6.85355 18.8536C6.65829 19.0488 6.34171 19.0488 6.14645 18.8536C5.95118 18.6583 5.95118 18.3417 6.14645 18.1464L6.29289 18H6C4.89543 18 4 17.1046 4 16V15C4 13.8954 4.89543 13 6 13H7.26756C7.09739 12.7058 7 12.3643 7 12C7 10.8954 7.89543 10 9 10H11C11.5973 10 12.1335 10.2619 12.5 10.6771C12.8665 10.2619 13.4027 10 14 10H16C17.1046 10 18 10.8954 18 12C18 12.3643 17.9026 12.7058 17.7324 13H19C20.1046 13 21 13.8954 21 15V16C21 17.1046 20.1046 18 19 18H18.7071L18.8536 18.1464C19.0488 18.3417 19.0488 18.6583 18.8536 18.8536C18.6583 19.0488 18.3417 19.0488 18.1464 18.8536L17.2929 18ZM19 14H6C5.44772 14 5 14.4477 5 15V16C5 16.5523 5.44772 17 6 17H19C19.5523 17 20 16.5523 20 16V15C20 14.4477 19.5523 14 19 14ZM16 13C16.5523 13 17 12.5523 17 12C17 11.4477 16.5523 11 16 11H14C13.4477 11 13 11.4477 13 12C13 12.5523 13.4477 13 14 13H16ZM9 13H11C11.5523 13 12 12.5523 12 12C12 11.4477 11.5523 11 11 11H9C8.44772 11 8 11.4477 8 12C8 12.5523 8.44772 13 9 13ZM6 11.5C6 11.7761 5.77614 12 5.5 12C5.22386 12 5 11.7761 5 11.5V8.5C5 7.1384 5.9375 6 7.14706 6H17.8529C19.0625 6 20 7.1384 20 8.5V11.5C20 11.7761 19.7761 12 19.5 12C19.2239 12 19 11.7761 19 11.5V8.5C19 7.65246 18.4627 7 17.8529 7H7.14706C6.53732 7 6 7.65246 6 8.5V11.5Z" fill="#403B45"/>
</g>
</svg>
