<svg width="17" height="17" viewBox="0 0 17 17" fill="none" xmlns="http://www.w3.org/2000/svg">
<g id="Group 238369">
<circle id="Ellipse 962" cx="8.5" cy="8.5" r="8.5" transform="matrix(-1 0 0 1 17 0)" fill="#D9D9D9"/>
<g id="Group 13656">
<path id="Vector" d="M14.6097 10.2434H14.3993V9.37164C14.3993 9.08263 14.2884 8.80546 14.0911 8.6011C13.8938 8.39674 13.6261 8.28193 13.3471 8.28193H13.1367V5.44869C13.1367 5.04408 12.9815 4.65604 12.7052 4.36993C12.429 4.08383 12.0543 3.9231 11.6636 3.9231H5.77149C5.38082 3.9231 5.00615 4.08383 4.7299 4.36993C4.45365 4.65604 4.29846 5.04408 4.29846 5.44869V8.28193H4.08802C3.80897 8.28193 3.54135 8.39674 3.34403 8.6011C3.14671 8.80546 3.03586 9.08263 3.03586 9.37164V10.2434H2.82542C2.76961 10.2434 2.71609 10.2664 2.67662 10.3072C2.63716 10.3481 2.61499 10.4035 2.61499 10.4613V12.8587C2.61499 12.9165 2.63716 12.9719 2.67662 13.0128C2.71609 13.0537 2.76961 13.0766 2.82542 13.0766H4.3679C4.41202 13.0768 4.45505 13.0625 4.49092 13.0359C4.5268 13.0093 4.55369 12.9717 4.56781 12.9284L4.71932 12.4337C4.76298 12.3058 4.84395 12.1952 4.95103 12.1171C5.05811 12.039 5.18599 11.9973 5.31695 11.9978H12.1097C12.2407 11.9973 12.3686 12.039 12.4757 12.1171C12.5827 12.1952 12.6637 12.3058 12.7074 12.4337L12.8673 12.9284C12.8819 12.9736 12.9104 13.0125 12.9484 13.0392C12.9864 13.066 13.0318 13.0791 13.0777 13.0766H14.6097C14.6655 13.0766 14.719 13.0537 14.7585 13.0128C14.7979 12.9719 14.8201 12.9165 14.8201 12.8587V10.4613C14.8201 10.4035 14.7979 10.3481 14.7585 10.3072C14.719 10.2664 14.6655 10.2434 14.6097 10.2434ZM4.71932 5.44869C4.71932 5.15968 4.83018 4.88251 5.0275 4.67815C5.22481 4.47379 5.49244 4.35898 5.77149 4.35898H11.6636C11.9427 4.35898 12.2103 4.47379 12.4076 4.67815C12.6049 4.88251 12.7158 5.15968 12.7158 5.44869V8.28193H12.0466C12.1097 8.09886 12.074 8.01822 12.0845 7.6281C12.0845 7.4547 12.018 7.2884 11.8996 7.16578C11.7812 7.04316 11.6206 6.97428 11.4532 6.97428H9.98015C9.81272 6.97428 9.65215 7.04316 9.53376 7.16578C9.41537 7.2884 9.34886 7.4547 9.34886 7.6281C9.34886 8.01822 9.3236 8.09886 9.38673 8.28193H8.04838C8.11151 8.09886 8.07573 8.01822 8.08626 7.6281C8.08626 7.4547 8.01974 7.2884 7.90135 7.16578C7.78296 7.04316 7.62239 6.97428 7.45496 6.97428H5.98192C5.81449 6.97428 5.65392 7.04316 5.53553 7.16578C5.41713 7.2884 5.35062 7.4547 5.35062 7.6281C5.36114 8.01822 5.32537 8.09886 5.3885 8.28193H4.71932V5.44869ZM9.76972 8.06399V7.6281C9.76972 7.5703 9.79189 7.51487 9.83136 7.474C9.87082 7.43312 9.92434 7.41016 9.98015 7.41016H11.4532C11.509 7.41016 11.5625 7.43312 11.602 7.474C11.6415 7.51487 11.6636 7.5703 11.6636 7.6281V8.06399C11.6636 8.12179 11.6415 8.17722 11.602 8.2181C11.5625 8.25897 11.509 8.28193 11.4532 8.28193H9.98015C9.92434 8.28193 9.87082 8.25897 9.83136 8.2181C9.79189 8.17722 9.76972 8.12179 9.76972 8.06399ZM5.77149 8.06399V7.6281C5.77149 7.5703 5.79366 7.51487 5.83312 7.474C5.87259 7.43312 5.92611 7.41016 5.98192 7.41016H7.45496C7.51077 7.41016 7.56429 7.43312 7.60375 7.474C7.64322 7.51487 7.66539 7.5703 7.66539 7.6281V8.06399C7.66539 8.12179 7.64322 8.17722 7.60375 8.2181C7.56429 8.25897 7.51077 8.28193 7.45496 8.28193H5.98192C5.92611 8.28193 5.87259 8.25897 5.83312 8.2181C5.79366 8.17722 5.77149 8.12179 5.77149 8.06399ZM3.45672 9.37164C3.45672 9.19823 3.52324 9.03193 3.64163 8.90931C3.76002 8.7867 3.92059 8.71781 4.08802 8.71781H13.3471C13.5145 8.71781 13.6751 8.7867 13.7935 8.90931C13.9119 9.03193 13.9784 9.19823 13.9784 9.37164V10.2434H3.45672V9.37164ZM14.3993 12.6408H13.2187L13.1072 12.2964C13.0374 12.0795 12.9036 11.8908 12.7246 11.7571C12.5456 11.6233 12.3305 11.5512 12.1097 11.5511H5.32537C5.10463 11.5512 4.88954 11.6233 4.71053 11.7571C4.53152 11.8908 4.39767 12.0795 4.32792 12.2964L4.21639 12.6408H3.03586V10.6793H14.3993V12.6408Z" fill="black"/>
</g>
</g>
</svg>
