<svg width="27" height="24" viewBox="0 0 27 24" fill="none" xmlns="http://www.w3.org/2000/svg">
<path d="M22.6681 19.6336C22.9858 19.6336 23.2431 19.3762 23.2431 19.0586C23.2431 18.7411 22.9858 18.4836 22.6681 18.4836V19.6336ZM22.2724 18.4836C21.9549 18.4836 21.6974 18.7411 21.6974 19.0586C21.6974 19.3762 21.9549 19.6336 22.2724 19.6336V18.4836ZM3.6341 19.0587C3.6341 18.7412 3.37667 18.4837 3.0591 18.4837C2.74154 18.4837 2.4841 18.7412 2.4841 19.0587H3.6341ZM2.4841 22.0074V22.5824H3.6341V22.0074H2.4841ZM24.275 19.0587C24.275 18.7412 24.0176 18.4837 23.7 18.4837C23.3825 18.4837 23.125 18.7412 23.125 19.0587H24.275ZM23.125 22.0074V22.5824H24.275V22.0074H23.125ZM3.50141 4.35195L4.07431 4.40104C4.0757 4.38471 4.07641 4.36833 4.07641 4.35195H3.50141ZM23.2578 4.35195H22.6828C22.6828 4.36833 22.6835 4.38472 22.6849 4.40106L23.2578 4.35195ZM7.9393 9.5122C7.9393 9.82976 8.19674 10.0872 8.5143 10.0872C8.83186 10.0872 9.0893 9.82976 9.0893 9.5122H7.9393ZM17.6701 9.5122C17.6701 9.82976 17.9275 10.0872 18.2451 10.0872C18.5626 10.0872 18.8201 9.82976 18.8201 9.5122H17.6701ZM2.45469 16.6997V10.6917H1.30469V16.6997H2.45469ZM2.45469 10.6917C2.45469 10.5314 2.51837 10.3776 2.63174 10.2642L1.81857 9.45108C1.48954 9.78011 1.30469 10.2264 1.30469 10.6917H2.45469ZM2.63174 10.2642C2.7451 10.1509 2.89885 10.0872 3.05917 10.0872V8.9372C2.59386 8.9372 2.14759 9.12204 1.81857 9.45108L2.63174 10.2642ZM3.05917 10.0872H23.7002V8.9372H3.05917V10.0872ZM23.7002 10.0872C23.8606 10.0872 24.0143 10.1509 24.1276 10.2642L24.9409 9.45108C24.6117 9.12204 24.1655 8.9372 23.7002 8.9372V10.0872ZM24.1276 10.2642C24.241 10.3776 24.3047 10.5314 24.3047 10.6917H25.4547C25.4547 10.2264 25.2699 9.78011 24.9409 9.45108L24.1276 10.2642ZM25.4547 16.6997V10.6917H24.3047V16.6997H25.4547ZM22.6681 18.4836H4.48698V19.6336H22.6681V18.4836ZM4.48698 18.4836C3.85455 18.4836 3.27664 18.3686 2.88034 18.1893L2.40635 19.2371C2.98798 19.5002 3.73641 19.6336 4.48698 19.6336V18.4836ZM2.88034 18.1893C2.68296 18.1 2.56433 18.01 2.50224 17.9422C2.44285 17.8773 2.45469 17.8567 2.45469 17.8792H1.30469C1.30469 18.5508 1.86916 18.9941 2.40635 19.2371L2.88034 18.1893ZM2.45469 17.8792V16.6997H1.30469V17.8792H2.45469ZM22.2724 19.6336C23.023 19.6336 23.7714 19.5002 24.353 19.2371L23.8791 18.1893C23.4828 18.3686 22.9048 18.4836 22.2724 18.4836V19.6336ZM24.353 19.2371C24.8903 18.9941 25.4547 18.5508 25.4547 17.8792H24.3047C24.3047 17.8567 24.3165 17.8773 24.2572 17.9422C24.1951 18.01 24.0764 18.1 23.8791 18.1893L24.353 19.2371ZM25.4547 17.8792V16.6997H24.3047V17.8792H25.4547ZM24.8797 16.1247H1.87969V17.2747H24.8797V16.1247ZM2.4841 19.0587V22.0074H3.6341V19.0587H2.4841ZM23.125 19.0587V22.0074H24.275V19.0587H23.125ZM3.63207 9.5613L4.07431 4.40104L2.92851 4.30284L2.48628 9.4631L3.63207 9.5613ZM4.07641 4.35195C4.07641 3.8788 4.26436 3.42505 4.59892 3.09049L3.78575 2.27731C3.23553 2.82754 2.92641 3.57381 2.92641 4.35195H4.07641ZM4.59892 3.09049C4.93349 2.75592 5.38724 2.56797 5.86039 2.56797V1.41797C5.08224 1.41797 4.33598 1.72708 3.78575 2.27731L4.59892 3.09049ZM5.86039 2.56797H20.8988V1.41797H5.86039V2.56797ZM20.8988 2.56797C21.372 2.56797 21.8257 2.75592 22.1603 3.09049L22.9734 2.27731C22.4233 1.72708 21.6769 1.41797 20.8988 1.41797V2.56797ZM22.1603 3.09049C22.4948 3.42505 22.6828 3.8788 22.6828 4.35195H23.8328C23.8328 3.57381 23.5237 2.82754 22.9734 2.27731L22.1603 3.09049ZM22.6849 4.40106L23.1273 9.56132L24.2731 9.46309L23.8308 4.30283L22.6849 4.40106ZM9.0893 9.5122C9.0893 8.72625 9.40153 7.97248 9.95728 7.41672L9.14411 6.60354C8.37268 7.37496 7.9393 8.42124 7.9393 9.5122H9.0893ZM9.95728 7.41672C10.2006 7.17344 10.608 6.95088 11.0994 6.78932C11.5838 6.6301 12.0933 6.54873 12.4951 6.54873V5.39873C11.9583 5.39873 11.3275 5.50379 10.7402 5.69685C10.16 5.8876 9.56441 6.18323 9.14411 6.60354L9.95728 7.41672ZM12.4951 6.54873H14.7066V5.39873H12.4951V6.54873ZM14.7066 6.54873C15.4926 6.54873 16.2463 6.86096 16.8021 7.41672L17.6153 6.60354C16.8438 5.83212 15.7976 5.39873 14.7066 5.39873V6.54873ZM16.8021 7.41672C17.3579 7.97247 17.6701 8.72623 17.6701 9.5122H18.8201C18.8201 8.42124 18.3867 7.37497 17.6153 6.60354L16.8021 7.41672Z" fill="black"/>
</svg>
