<svg width="24" height="24" viewBox="0 0 24 24" fill="none" xmlns="http://www.w3.org/2000/svg">
<g id="buildings">
<path id="Vector" fill-rule="evenodd" clip-rule="evenodd" d="M11.5 13.012V4C11.5 3.44772 11.9477 3 12.5 3H19.5C20.0523 3 20.5 3.44772 20.5 4V20.5C20.5 20.7761 20.2761 21 20 21C19.7239 21 19.5 20.7761 19.5 20.5V4H12.5V13.012H14.5C15.0523 13.012 15.5 13.4597 15.5 14.012V20.5C15.5 20.7761 15.2761 21 15 21C14.7239 21 14.5 20.7761 14.5 20.5V14.012H4.5V20.5C4.5 20.7761 4.27614 21 4 21C3.72386 21 3.5 20.7761 3.5 20.5V14.012C3.5 13.4597 3.94772 13.012 4.5 13.012H11.5ZM6.5 20.5C6.5 20.7761 6.27614 21 6 21C5.72386 21 5.5 20.7761 5.5 20.5V18.507C5.5 17.1262 6.61929 16.007 8 16.007C9.38071 16.007 10.5 17.1262 10.5 18.507V20.5C10.5 20.7761 10.2761 21 10 21C9.72386 21 9.5 20.7761 9.5 20.5V18.507C9.5 17.6785 8.82843 17.007 8 17.007C7.17157 17.007 6.5 17.6785 6.5 18.507V20.5ZM14.5 7C14.2239 7 14 6.77614 14 6.5C14 6.22386 14.2239 6 14.5 6H17.5C17.7761 6 18 6.22386 18 6.5C18 6.77614 17.7761 7 17.5 7H14.5ZM14.5 10C14.2239 10 14 9.77614 14 9.5C14 9.22386 14.2239 9 14.5 9H17.5C17.7761 9 18 9.22386 18 9.5C18 9.77614 17.7761 10 17.5 10H14.5Z" fill="#403B45"/>
</g>
</svg>
