<svg width="81" height="80" viewBox="0 0 81 80" fill="none" xmlns="http://www.w3.org/2000/svg">
<g id="buy-1.svg">
<path id="Vector" d="M33.76 8.8671C32.5892 10.6454 31.8361 12.6657 31.5573 14.7765C31.2784 16.8873 31.4811 19.0338 32.15 21.0551C32.6257 22.8993 33.6269 24.5656 35.0318 25.8514C36.4368 27.1372 38.185 27.9872 40.064 28.2981C46.484 29.2381 51.294 23.4501 51.294 16.9541C51.294 10.4571 44.606 4.2871 38.282 5.7051C37.3512 5.89256 36.4692 6.27016 35.6911 6.81425C34.913 7.35834 34.2555 8.05721 33.76 8.8671Z" fill="white" stroke="#2D383F" stroke-width="0.444" stroke-miterlimit="10"/>
<path id="Vector_2" d="M42.21 13.4859C41.6563 13.4187 41.0966 13.4187 40.543 13.4859C40.2674 13.5173 40.0011 13.6048 39.7607 13.7431C39.5203 13.8814 39.3107 14.0675 39.145 14.2899C38.9854 14.5211 38.9115 14.8007 38.936 15.0805C38.9604 15.3603 39.0817 15.6229 39.279 15.8229C39.486 15.9829 39.729 16.0879 39.988 16.1299C41.003 16.3599 42.191 16.2449 42.996 16.9349C43.365 17.2859 43.618 17.7399 43.725 18.2379C43.8127 18.5122 43.8376 18.8028 43.7978 19.0881C43.758 19.3734 43.6545 19.646 43.495 19.8859C43.2734 20.1054 43.0097 20.2779 42.7198 20.393C42.4299 20.5082 42.1198 20.5636 41.808 20.5559C40.8936 20.6155 39.9763 20.4987 39.106 20.2119M41.291 11.7029V22.1469" stroke="#2D383F" stroke-width="0.444" stroke-miterlimit="10" stroke-linecap="round"/>
<g id="Group 13497">
<rect id="Rectangle 5628" x="27.22" y="34.22" width="27.56" height="3.56" rx="1.78" fill="#E0E8F4" stroke="#2D383F" stroke-width="0.44"/>
<rect id="Rectangle 5629" x="21.22" y="37.22" width="39.56" height="35.56" rx="3.78" fill="#E0E8F4" stroke="#2D383F" stroke-width="0.44"/>
</g>
</g>
</svg>
