<svg width="81" height="80" viewBox="0 0 81 80" fill="none" xmlns="http://www.w3.org/2000/svg">
<g id="buy-2.svg">
<path id="Vector" d="M18.482 19.35C13.6548 23.8003 10.4264 29.7156 9.29498 36.183C8.38836 40.9415 8.53258 45.8407 9.71753 50.5377C10.9025 55.2347 13.0996 59.616 16.155 63.375C22.384 70.759 33.652 72.596 43.224 71.231C53.268 69.797 60.844 64.687 64.694 55.291C66.8844 49.8012 67.6355 43.8427 66.876 37.981C66.1164 32.1194 63.8714 26.5491 60.354 21.799C57.6873 18.4766 54.2554 15.8497 50.352 14.1432C46.4485 12.4366 42.1897 11.7013 37.94 12C34.4223 12.1559 30.948 12.8402 27.634 14.03C26.3975 14.4649 25.188 14.9731 24.012 15.552C22.0089 16.5677 20.1494 17.8455 18.482 19.35Z" fill="#E0E8F4" stroke="#2D383F" stroke-width="0.402" stroke-linecap="round" stroke-linejoin="round"/>
<path id="Vector_2" d="M56.9082 18.194L37.7822 41.817L37.9402 12" fill="#E0E8F4"/>
<path id="Vector_3" d="M56.9082 18.194L37.7822 41.817L37.9402 12" stroke="#2D383F" stroke-width="0.402" stroke-linecap="round" stroke-linejoin="round"/>
<path id="Vector_4" d="M38.2372 18.8939L47.4592 13.5039M37.7822 24.2839L52.9522 15.4119M37.7822 29.6379L56.9082 18.1949M37.7822 34.0829L49.6982 27.1179M37.7822 38.3349L42.9622 35.3079M18.0452 34.0819H20.3192M12.8482 31.7379H15.1222M13.8282 40.1019H16.1032M10.6772 44.4419H12.9512M16.1002 48.3439H18.3762M21.8062 36.9349H24.0812M19.7242 42.9889H21.9982M28.4032 42.9889H30.6962M28.4032 39.0519H30.6962M52.6042 31.8429C52.7899 31.8429 52.9679 31.7692 53.0992 31.6379C53.2305 31.5066 53.3042 31.3286 53.3042 31.1429C53.3042 30.9573 53.2305 30.7792 53.0992 30.6479C52.9679 30.5167 52.7899 30.4429 52.6042 30.4429C52.4186 30.4429 52.2405 30.5167 52.1093 30.6479C51.978 30.7792 51.9042 30.9573 51.9042 31.1429C51.9042 31.3286 51.978 31.5066 52.1093 31.6379C52.2405 31.7692 52.4186 31.8429 52.6042 31.8429ZM46.1452 39.7519C46.2372 39.7519 46.3282 39.7338 46.4131 39.6986C46.4981 39.6634 46.5752 39.6119 46.6402 39.5469C46.7052 39.4819 46.7568 39.4047 46.792 39.3198C46.8271 39.2349 46.8452 39.1438 46.8452 39.0519C46.8452 38.96 46.8271 38.869 46.792 38.784C46.7568 38.6991 46.7052 38.6219 46.6402 38.5569C46.5752 38.4919 46.4981 38.4404 46.4131 38.4052C46.3282 38.37 46.2372 38.3519 46.1452 38.3519C45.9596 38.3519 45.7815 38.4257 45.6503 38.5569C45.519 38.6882 45.4452 38.8663 45.4452 39.0519C45.4452 39.2376 45.519 39.4156 45.6503 39.5469C45.7815 39.6782 45.9596 39.7519 46.1452 39.7519ZM56.3132 36.7079C56.4989 36.7079 56.6769 36.6342 56.8082 36.5029C56.9395 36.3716 57.0132 36.1936 57.0132 36.0079C57.0132 35.8223 56.9395 35.6442 56.8082 35.5129C56.6769 35.3817 56.4989 35.3079 56.3132 35.3079C56.1276 35.3079 55.9495 35.3817 55.8183 35.5129C55.687 35.6442 55.6132 35.8223 55.6132 36.0079C55.6132 36.1936 55.687 36.3716 55.8183 36.5029C55.9495 36.6342 56.1276 36.7079 56.3132 36.7079ZM62.8402 32.5429C63.0259 32.5429 63.2039 32.4692 63.3352 32.3379C63.4665 32.2066 63.5402 32.0286 63.5402 31.8429C63.5402 31.6573 63.4665 31.4792 63.3352 31.3479C63.2039 31.2167 63.0259 31.1429 62.8402 31.1429C62.6546 31.1429 62.4765 31.2167 62.3453 31.3479C62.214 31.4792 62.1402 31.6573 62.1402 31.8429C62.1402 32.0286 62.214 32.2066 62.3453 32.3379C62.4765 32.4692 62.6546 32.5429 62.8402 32.5429ZM52.6042 43.2169C52.6962 43.2169 52.7872 43.1988 52.8721 43.1636C52.9571 43.1284 53.0342 43.0769 53.0992 43.0119C53.1642 42.9469 53.2158 42.8697 53.251 42.7848C53.2861 42.6999 53.3042 42.6088 53.3042 42.5169C53.3042 42.425 53.2861 42.334 53.251 42.249C53.2158 42.1641 53.1642 42.0869 53.0992 42.0219C53.0342 41.9569 52.9571 41.9054 52.8721 41.8702C52.7872 41.835 52.6962 41.8169 52.6042 41.8169C52.4186 41.8169 52.2405 41.8907 52.1093 42.0219C51.978 42.1532 51.9042 42.3313 51.9042 42.5169C51.9042 42.7026 51.978 42.8806 52.1093 43.0119C52.2405 43.1432 52.4186 43.2169 52.6042 43.2169ZM62.1382 45.8419C62.3239 45.8419 62.5019 45.7682 62.6332 45.6369C62.7645 45.5056 62.8382 45.3276 62.8382 45.1419C62.8382 44.9563 62.7645 44.7782 62.6332 44.6469C62.5019 44.5157 62.3239 44.4419 62.1382 44.4419C61.9526 44.4419 61.7745 44.5157 61.6433 44.6469C61.512 44.7782 61.4382 44.9563 61.4382 45.1419C61.4382 45.3276 61.512 45.5056 61.6433 45.6369C61.7745 45.7682 61.9526 45.8419 62.1382 45.8419ZM55.2622 50.9499C55.4479 50.9499 55.6259 50.8762 55.7572 50.7449C55.8885 50.6136 55.9622 50.4356 55.9622 50.2499C55.9622 50.0643 55.8885 49.8862 55.7572 49.7549C55.6259 49.6237 55.4479 49.5499 55.2622 49.5499C55.0766 49.5499 54.8985 49.6237 54.7673 49.7549C54.636 49.8862 54.5622 50.0643 54.5622 50.2499C54.5622 50.4356 54.636 50.6136 54.7673 50.7449C54.8985 50.8762 55.0766 50.9499 55.2622 50.9499ZM48.0542 50.5999C48.2399 50.5999 48.4179 50.5262 48.5492 50.3949C48.6805 50.2636 48.7542 50.0856 48.7542 49.8999C48.7542 49.7143 48.6805 49.5362 48.5492 49.4049C48.4179 49.2737 48.2399 49.1999 48.0542 49.1999C47.8686 49.1999 47.6905 49.2737 47.5593 49.4049C47.428 49.5362 47.3542 49.7143 47.3542 49.8999C47.3542 50.0856 47.428 50.2636 47.5593 50.3949C47.6905 50.5262 47.8686 50.5999 48.0542 50.5999ZM60.7402 54.4499C60.9259 54.4499 61.1039 54.3762 61.2352 54.2449C61.3665 54.1136 61.4402 53.9356 61.4402 53.7499C61.4402 53.5643 61.3665 53.3862 61.2352 53.2549C61.1039 53.1237 60.9259 53.0499 60.7402 53.0499C60.5546 53.0499 60.3765 53.1237 60.2453 53.2549C60.114 53.3862 60.0402 53.5643 60.0402 53.7499C60.0402 53.9356 60.114 54.1136 60.2453 54.2449C60.3765 54.3762 60.5546 54.4499 60.7402 54.4499ZM22.0862 19.8559L20.8612 21.9739H23.3112L22.0862 19.8559ZM34.5282 15.8849L32.1312 15.3599L32.8662 17.6869L34.5282 15.8849ZM29.9782 20.7839L28.2452 22.5169L30.6082 23.1469L29.9782 20.7839ZM29.8042 28.6229L27.3722 28.5179L28.4922 30.6879L29.8042 28.6229ZM35.7352 34.9049L35.1052 32.5429L33.3722 34.2749L35.7352 34.9049ZM36.4702 26.5929L34.1252 25.8579L34.6502 28.2379L36.4702 26.5929Z" stroke="#2D383F" stroke-width="0.402" stroke-linecap="round" stroke-linejoin="round"/>
<path id="Vector_5" d="M53.338 10.862C51.6375 12.4432 50.4901 14.5291 50.065 16.812C49.7381 18.5113 49.7881 20.2617 50.2114 21.9396C50.6347 23.6176 51.4211 25.1821 52.515 26.523C54.737 29.148 58.762 29.813 62.175 29.323C63.8365 29.1741 65.425 28.5715 66.7671 27.5809C68.1092 26.5903 69.1532 25.2498 69.785 23.706C70.5624 21.7458 70.8274 19.6199 70.5552 17.5289C70.2829 15.4379 69.4824 13.4508 68.229 11.755C66.8354 10.1218 64.9598 8.97267 62.8718 8.47278C60.7839 7.9729 58.5912 8.14803 56.609 8.973C56.168 9.128 55.735 9.309 55.315 9.515C54.6026 9.88006 53.9385 10.3326 53.338 10.862Z" fill="white" stroke="#2D383F" stroke-width="0.402" stroke-linecap="round" stroke-linejoin="round"/>
<path id="Vector_6" d="M62.035 14.4499C60.9298 14.261 59.7943 14.3697 58.745 14.7649C58.5121 14.8919 58.3139 15.0739 58.1675 15.2951C58.0211 15.5164 57.9311 15.77 57.9053 16.034C57.8794 16.298 57.9186 16.5643 58.0193 16.8097C58.12 17.0551 58.2792 17.2721 58.483 17.4419C58.722 17.6279 59.005 17.7479 59.305 17.7919C59.7165 17.8551 60.1134 17.9913 60.477 18.1939C61.0585 18.4316 61.5833 18.7894 62.017 19.2439C62.2175 19.5013 62.363 19.7972 62.4444 20.1132C62.5257 20.4293 62.5413 20.7586 62.49 21.0809C62.332 21.7809 61.51 22.0959 60.897 22.2359C60.354 22.2999 59.8036 22.24 59.287 22.0609C58.867 21.9389 58.045 21.6939 58.045 21.1509C58.045 21.0813 58.0174 21.0145 57.9681 20.9653C57.9189 20.916 57.8521 20.8884 57.7825 20.8884C57.7129 20.8884 57.6461 20.916 57.5969 20.9653C57.5477 21.0145 57.52 21.0813 57.52 21.1509C57.52 22.1659 58.885 22.5339 59.673 22.6909C60.2384 22.8236 60.8295 22.7957 61.3798 22.6101C61.9301 22.4246 62.4175 22.0889 62.787 21.6409C63.0155 21.0779 63.0484 20.4545 62.8803 19.8706C62.7122 19.2867 62.3529 18.7762 61.86 18.4209C61.5959 18.241 61.321 18.0774 61.037 17.9309C60.7196 17.7446 60.3924 17.5754 60.057 17.4239C59.673 17.2839 59.217 17.4239 58.867 17.1089C58.7118 17.025 58.5815 16.9016 58.4895 16.751C58.3974 16.6005 58.3469 16.4283 58.343 16.2519C58.343 15.4119 59.183 15.0269 59.883 14.9399C60.583 14.8519 61.283 14.9399 61.983 14.9399C62.0526 14.9399 62.1194 14.9122 62.1686 14.863C62.2179 14.8138 62.2455 14.747 62.2455 14.6774C62.2455 14.6078 62.2179 14.541 62.1686 14.4918C62.1194 14.4425 62.0526 14.4149 61.983 14.4149L62.035 14.4499Z" fill="#2D383F"/>
<path id="Vector_7" d="M60.25 12.5771V23.6541C60.25 23.7237 60.2777 23.7905 60.3269 23.8397C60.3761 23.889 60.4429 23.9166 60.5125 23.9166C60.5821 23.9166 60.6489 23.889 60.6981 23.8397C60.7473 23.7905 60.775 23.7237 60.775 23.6541V12.5771C60.7709 12.5103 60.7414 12.4476 60.6926 12.4017C60.6439 12.3559 60.5794 12.3303 60.5125 12.3303C60.4456 12.3303 60.3811 12.3559 60.3324 12.4017C60.2836 12.4476 60.2541 12.5103 60.25 12.5771Z" fill="#2D383F"/>
<path id="Vector_8" d="M31.2734 71.1619L37.7824 41.8169L10.9224 54.4509" stroke="#2D383F" stroke-width="0.402" stroke-linecap="round" stroke-linejoin="round"/>
<path id="Vector_9" d="M45.027 59.4901C45.2127 59.4901 45.3907 59.4163 45.522 59.2851C45.6533 59.1538 45.727 58.9757 45.727 58.7901C45.727 58.6044 45.6533 58.4264 45.522 58.2951C45.3907 58.1638 45.2127 58.0901 45.027 58.0901C44.8414 58.0901 44.6633 58.1638 44.5321 58.2951C44.4008 58.4264 44.327 58.6044 44.327 58.7901C44.327 58.9757 44.4008 59.1538 44.5321 59.2851C44.6633 59.4163 44.8414 59.4901 45.027 59.4901ZM54.37 58.1081C54.5557 58.1081 54.7337 58.0343 54.865 57.9031C54.9963 57.7718 55.07 57.5937 55.07 57.4081C55.07 57.2224 54.9963 57.0444 54.865 56.9131C54.7337 56.7818 54.5557 56.7081 54.37 56.7081C54.1844 56.7081 54.0063 56.7818 53.8751 56.9131C53.7438 57.0444 53.67 57.2224 53.67 57.4081C53.67 57.5937 53.7438 57.7718 53.8751 57.9031C54.0063 58.0343 54.1844 58.1081 54.37 58.1081ZM49.699 64.4241C49.8847 64.4241 50.0627 64.3503 50.194 64.2191C50.3253 64.0878 50.399 63.9097 50.399 63.7241C50.399 63.5384 50.3253 63.3604 50.194 63.2291C50.0627 63.0978 49.8847 63.0241 49.699 63.0241C49.5134 63.0241 49.3353 63.0978 49.2041 63.2291C49.0728 63.3604 48.999 63.5384 48.999 63.7241C48.999 63.9097 49.0728 64.0878 49.2041 64.2191C49.3353 64.3503 49.5134 64.4241 49.699 64.4241ZM38.989 56.7081C39.1747 56.7081 39.3527 56.6343 39.484 56.5031C39.6153 56.3718 39.689 56.1937 39.689 56.0081C39.689 55.8224 39.6153 55.6444 39.484 55.5131C39.3527 55.3818 39.1747 55.3081 38.989 55.3081C38.8034 55.3081 38.6253 55.3818 38.4941 55.5131C38.3628 55.6444 38.289 55.8224 38.289 56.0081C38.289 56.1937 38.3628 56.3718 38.4941 56.5031C38.6253 56.6343 38.8034 56.7081 38.989 56.7081ZM41.071 47.9591C41.163 47.9591 41.254 47.941 41.3389 47.9058C41.4238 47.8706 41.501 47.8191 41.566 47.7541C41.631 47.6891 41.6826 47.6119 41.7178 47.527C41.7529 47.442 41.771 47.351 41.771 47.2591C41.771 47.1672 41.7529 47.0761 41.7178 46.9912C41.6826 46.9063 41.631 46.8291 41.566 46.7641C41.501 46.6991 41.4238 46.6475 41.3389 46.6124C41.254 46.5772 41.163 46.5591 41.071 46.5591C40.8854 46.5591 40.7073 46.6328 40.5761 46.7641C40.4448 46.8954 40.371 47.0734 40.371 47.2591C40.371 47.4447 40.4448 47.6228 40.5761 47.7541C40.7073 47.8853 40.8854 47.9591 41.071 47.9591ZM37.24 65.1251C37.4257 65.1251 37.6037 65.0513 37.735 64.9201C37.8663 64.7888 37.94 64.6107 37.94 64.4251C37.94 64.2394 37.8663 64.0614 37.735 63.9301C37.6037 63.7988 37.4257 63.7251 37.24 63.7251C37.0544 63.7251 36.8763 63.7988 36.7451 63.9301C36.6138 64.0614 36.54 64.2394 36.54 64.4251C36.54 64.6107 36.6138 64.7888 36.7451 64.9201C36.8763 65.0513 37.0544 65.1251 37.24 65.1251ZM42.961 68.7291C43.1467 68.7291 43.3247 68.6553 43.456 68.5241C43.5873 68.3928 43.661 68.2147 43.661 68.0291C43.661 67.8434 43.5873 67.6654 43.456 67.5341C43.3247 67.4028 43.1467 67.3291 42.961 67.3291C42.7754 67.3291 42.5973 67.4028 42.4661 67.5341C42.3348 67.6654 42.261 67.8434 42.261 68.0291C42.261 68.2147 42.3348 68.3928 42.4661 68.5241C42.5973 68.6553 42.7754 68.7291 42.961 68.7291Z" stroke="#2D383F" stroke-width="0.402" stroke-linecap="round" stroke-linejoin="round"/>
<path id="Vector_10" d="M37.7813 41.8161L14.6143 23.6531" stroke="#2D383F" stroke-width="0.402" stroke-linecap="round" stroke-linejoin="round"/>
<path id="Vector_11" d="M34.2472 43.48L36.4172 47.959M30.9922 45.036L35.0872 53.418M27.5632 46.752L33.8452 59.595M23.7502 48.344L32.6202 65.124M19.6362 50.408L30.5542 71.038M15.8042 52.369L23.9582 69.062" stroke="#2D383F" stroke-width="0.402" stroke-linecap="round" stroke-linejoin="round"/>
</g>
</svg>
