<svg width="81" height="79" viewBox="0 0 81 79" fill="none" xmlns="http://www.w3.org/2000/svg">
<g id="buy-3.svg">
<path id="Vector" d="M48.2322 54.8892C50.4385 57.3745 52.0046 60.3609 52.7944 63.589C52.8243 63.7531 52.88 63.9114 52.9593 64.0581C53.0462 64.1648 53.1371 64.2655 53.2358 64.3632C53.8086 65.0881 53.542 64.9152 54.2233 65.7418C53.7454 67.1746 52.6927 68.2757 51.4899 69.1901C49.2394 70.9015 46.5159 71.5927 43.7193 72.0154C41.2476 67.0947 39.1215 64.5538 35.1113 62.7457C33.2637 61.9182 31.342 58.1667 31.1494 56.1492" stroke="#2D383F" stroke-width="0.5135" stroke-linecap="round" stroke-linejoin="round"/>
<path id="Vector_2" d="M23.2466 23.9705C23.5636 26.1973 23.4619 28.4498 23.3996 30.6934C23.1567 39.2402 23.4688 47.7909 24.3358 56.3071C36.0653 56.001 47.7988 55.8697 59.5372 55.9161C60.0547 45.3005 60.1791 34.6779 59.9095 24.0485" fill="white"/>
<path id="Vector_3" d="M23.2466 23.9705C23.5636 26.1973 23.4619 28.4498 23.3996 30.6934C23.1567 39.2402 23.4688 47.7909 24.3358 56.3071C36.0653 56.001 47.7988 55.8697 59.5372 55.9161C60.0547 45.3005 60.1791 34.6779 59.9095 24.0485" stroke="#2D383F" stroke-width="0.5135" stroke-linecap="round" stroke-linejoin="round"/>
<path id="Vector_4" d="M23.2466 20.7771C23.5636 23.0039 23.4619 25.2564 23.3996 27.498C23.1576 36.0479 23.4703 44.6044 24.3358 53.1138C36.0653 52.8076 47.7988 52.6763 59.5372 52.7227C60.0547 42.1041 60.1791 31.4816 59.9095 20.8531" fill="white"/>
<path id="Vector_5" d="M23.2466 20.7771C23.5636 23.0039 23.4619 25.2564 23.3996 27.498C23.1576 36.0479 23.4703 44.6044 24.3358 53.1138C36.0653 52.8076 47.7988 52.6763 59.5372 52.7227C60.0547 42.1041 60.1791 31.4816 59.9095 20.8531" stroke="#2D383F" stroke-width="0.5135" stroke-linecap="round" stroke-linejoin="round"/>
<path id="Vector_6" d="M23.3836 16.7234C23.1417 25.2692 23.4685 41.404 24.3346 49.9182C36.0641 49.6121 47.7976 49.4827 59.536 49.5272C60.0534 38.9115 60.1631 27.103 59.8945 16.4805" fill="white"/>
<path id="Vector_7" d="M23.3836 16.7234C23.1417 25.2692 23.4685 41.404 24.3346 49.9182C36.0641 49.6121 47.7976 49.4827 59.536 49.5272C60.0534 38.9115 60.1631 27.103 59.8945 16.4805" stroke="#2D383F" stroke-width="0.5135" stroke-linecap="round" stroke-linejoin="round"/>
<path id="Vector_8" d="M55.749 19.0291C55.8517 28.5545 55.1763 36.5562 54.5136 46.0648C45.908 46.483 37.2885 46.5324 28.6787 46.213C27.5727 36.7231 26.8064 28.1417 27.1935 18.6104" stroke="#2D383F" stroke-width="0.5135" stroke-linecap="round" stroke-linejoin="round"/>
<path id="Vector_9" d="M32.9427 17.4481C31.9246 21.1522 33.6497 25.3155 37.1593 27.6154C37.9926 28.1858 38.9296 28.5873 39.9174 28.7975C40.9238 28.9718 41.9547 28.9457 42.951 28.7204C44.5488 28.3689 46.0122 27.6599 47.1933 26.6645C48.3743 25.6691 49.2325 24.4228 49.6818 23.0502C50.2545 21.2085 50.0491 19.2523 49.6689 17.3701" stroke="#2D383F" stroke-width="0.5135" stroke-linecap="round" stroke-linejoin="round"/>
<path id="Vector_10" d="M50.6773 39.9622C49.828 41.3003 49.4824 42.8961 49.3372 44.4741C50.9262 44.5001 52.5139 44.3721 54.0782 44.0919C54.1639 44.0822 54.2465 44.0539 54.3202 44.009C54.3881 43.9422 54.4401 43.8611 54.4724 43.7715C54.5047 43.6819 54.5165 43.5863 54.5068 43.4915C54.5502 42.3984 55.3313 38.4622 54.4001 37.7463C53.145 36.7785 51.3547 39.2818 50.6773 39.9622ZM32.5675 40.3661C33.4168 41.7042 33.7624 43.3009 33.9075 44.878C32.3186 44.9045 30.7308 44.7765 29.1666 44.4958C29.0809 44.4863 28.9984 44.4583 28.9246 44.4139C28.8571 44.3466 28.8054 44.2652 28.7731 44.1756C28.7409 44.0859 28.7289 43.9903 28.738 43.8954C28.6945 42.8023 27.9134 38.8661 28.8466 38.1501C30.1007 37.1824 31.8901 39.6867 32.5675 40.3661Z" fill="#2D383F"/>
<path id="Vector_11" d="M46.3132 60.0114C45.8412 58.8738 45.0492 57.8893 44.2118 57.0015C42.9705 55.6941 41.5722 54.5032 40.6647 52.9498C39.7562 51.3955 39.4027 49.5953 38.9623 47.8682C38.6245 46.537 38.2207 44.0169 36.7048 43.5557C36.3958 43.4619 36.0304 43.457 35.7796 43.6604C35.5287 43.8629 35.4557 44.2519 35.4557 44.5926C35.4557 45.5011 35.2285 46.3849 35.1792 47.3053C35.1307 48.3849 35.1076 49.4655 35.11 50.5463C35.11 52.6625 35.1594 54.7797 35.1219 56.89" fill="white"/>
<path id="Vector_12" d="M46.3132 60.0113C45.8412 58.8737 45.0492 57.8891 44.2118 57.0014C42.9705 55.6939 41.5722 54.503 40.6647 52.9497C39.7562 51.3953 39.4027 49.5951 38.9623 47.868C38.6245 46.5368 38.2207 44.0167 36.7048 43.5556C36.3958 43.4618 36.0304 43.4568 35.7796 43.6602C35.5287 43.8627 35.4557 44.2518 35.4557 44.5924C35.4557 45.5009 35.2285 46.3848 35.1792 47.3051C35.1307 48.3847 35.1076 49.4654 35.11 50.5461C35.11 52.6623 35.1594 54.7795 35.1219 56.8898M38.3095 18.8078C37.9994 18.9852 37.7291 19.2245 37.5156 19.5109C37.3092 19.7904 37.1729 20.1034 37.1147 20.4303C37.1127 21.0722 37.3694 21.6943 37.8405 22.19C38.3243 22.7519 39.1973 23.0837 39.9616 22.8645C40.6874 22.6551 41.1397 22.0449 41.4132 21.4287C41.6868 20.8134 41.8181 20.1518 42.1894 19.5801C42.5627 19.0093 43.2737 18.5333 44.0232 18.6261C44.6335 18.7051 45.1025 19.1456 45.3978 19.6136C46.1236 20.7591 45.6397 21.8365 44.8488 22.9445M45.7405 20.5202L48.1796 20.4313M36.8638 20.6959L35.112 20.8184" stroke="#2D383F" stroke-width="0.5135" stroke-linecap="round" stroke-linejoin="round"/>
<g id="Vector_13" style="mix-blend-mode:multiply">
<path d="M59.4227 28.9733C59.2192 34.5744 59.4088 40.1775 59.4375 45.7786C59.4375 47.1937 59.4375 48.6058 59.4207 50.0209C59.4207 50.8079 59.8078 52.9222 59.1491 53.5433C58.2742 54.3679 55.6711 53.6737 54.5335 53.6816C52.0707 53.6964 49.5664 53.9897 47.1115 54.1417C45.176 54.3639 43.1082 54.1546 41.2161 54.5436C40.6731 52.722 40.1191 50.9037 39.5542 49.0887C39.1522 47.797 38.7395 46.4916 38.0038 45.3214C37.4162 44.3813 36.5936 43.5103 35.4807 43.0462C35.411 43.0081 35.3338 42.9856 35.2546 42.9801C35.1753 42.9747 35.0958 42.9864 35.0215 43.0146C34.971 43.0543 34.9301 43.1049 34.902 43.1627C34.8756 43.2181 34.8634 43.2792 34.8665 43.3405C34.4959 46.6589 34.4406 50.0051 34.7016 53.334C34.7381 53.7724 34.7707 54.2395 34.5337 54.6305C33.7289 55.9706 30.9323 55.223 29.537 55.3445C28.1406 55.466 25.4122 55.7632 24.8404 54.2207C23.9912 51.9179 24.5047 48.904 24.3565 46.5163C24.1943 43.6969 24.0742 40.8753 23.9961 38.0524C23.8825 33.9835 23.8946 29.9121 24.0326 25.8439C24.0702 24.8298 24.1156 23.8126 24.1679 22.7945C24.2143 21.9571 24.4365 21.0091 24.1857 20.1905C23.9625 19.4597 23.7235 18.8366 23.6554 18.0624C23.6317 17.7711 23.4135 15.3419 23.7048 15.2619C25.0972 14.8728 26.607 15.0229 28.0587 15.1296C33.9244 15.5483 39.8257 15.1849 45.7181 15.1108C50.4502 15.0506 55.1823 15.1799 59.9115 15.3201C60.0851 17.5936 60.0795 19.8771 59.8947 22.1497C59.7011 24.4081 59.5125 26.6942 59.4227 28.9753V28.9733Z" fill="#E0E8F4"/>
</g>
<path id="Vector_14" d="M61.5869 15.9096C47.1812 15.796 35.4359 16.2542 21.0303 16.1387" stroke="#2D383F" stroke-width="0.5135" stroke-linecap="round" stroke-linejoin="round"/>
<path id="Vector_15" d="M25.2846 19.8152C23.8761 20.04 22.4393 20.018 21.0383 19.75C20.9947 17.6687 21.1182 15.5873 21.4077 13.5258C35.3512 11.6416 46.8101 13.348 62.227 12.6489C62.5963 15.1166 62.462 16.7431 62.5854 19.1071C62.6084 19.2529 62.5767 19.402 62.4966 19.5258C62.4234 19.586 62.3387 19.6306 62.2477 19.6569C62.1567 19.6832 62.0613 19.6907 61.9673 19.6789L57.4149 19.7065" stroke="#2D383F" stroke-width="0.5135" stroke-linecap="round" stroke-linejoin="round"/>
</g>
</svg>
