<svg width="25" height="24" viewBox="0 0 25 24" fill="none" xmlns="http://www.w3.org/2000/svg">
<path d="M17.7302 23.9234H7.59642C6.88383 23.9256 6.19609 23.6617 5.66779 23.1835C5.13949 22.7053 4.80865 22.0471 4.74002 21.3379L3.0989 4.87978C3.08536 4.74673 3.09992 4.61232 3.14164 4.48526C3.18335 4.3582 3.25128 4.24131 3.34104 4.14217C3.4308 4.04303 3.54038 3.96385 3.66269 3.90975C3.78499 3.85565 3.9173 3.82784 4.05103 3.82813H21.2756C21.4092 3.82814 21.5414 3.85615 21.6636 3.91034C21.7857 3.96454 21.8952 4.04373 21.9849 4.1428C22.0746 4.24187 22.1425 4.35864 22.1844 4.48557C22.2262 4.6125 22.241 4.74679 22.2277 4.87978L20.5866 21.3369C20.518 22.0463 20.1872 22.7045 19.6589 23.1829C19.1306 23.6613 18.4429 23.9253 17.7302 23.9234ZM5.10747 5.74197L6.64429 21.1474C6.66737 21.3838 6.7777 21.6031 6.95375 21.7625C7.12979 21.9219 7.35892 22.01 7.59642 22.0096H17.7302C17.9677 22.01 18.1968 21.9219 18.3729 21.7625C18.5489 21.6031 18.6593 21.3838 18.6823 21.1474L20.2192 5.74197H5.10747Z" fill="#B60000"/>
<path d="M23.668 5.74197H1.65882C1.40503 5.74197 1.16164 5.64115 0.98218 5.46169C0.802722 5.28223 0.701904 5.03884 0.701904 4.78505C0.701904 4.53125 0.802722 4.28786 0.98218 4.1084C1.16164 3.92894 1.40503 3.82812 1.65882 3.82812H23.668C23.9218 3.82812 24.1652 3.92894 24.3446 4.1084C24.5241 4.28786 24.6249 4.53125 24.6249 4.78505C24.6249 5.03884 24.5241 5.28223 24.3446 5.46169C24.1652 5.64115 23.9218 5.74197 23.668 5.74197ZM12.6634 20.0958C12.4096 20.0958 12.1662 19.9949 11.9868 19.8155C11.8073 19.636 11.7065 19.3926 11.7065 19.1388V8.61273C11.7065 8.35893 11.8073 8.11554 11.9868 7.93608C12.1662 7.75662 12.4096 7.65581 12.6634 7.65581C12.9172 7.65581 13.1606 7.75662 13.3401 7.93608C13.5195 8.11554 13.6203 8.35893 13.6203 8.61273V19.1388C13.6203 19.3926 13.5195 19.636 13.3401 19.8155C13.1606 19.9949 12.9172 20.0958 12.6634 20.0958ZM9.31323 20.0958C9.0745 20.0955 8.84448 20.0061 8.66832 19.845C8.49216 19.6839 8.38258 19.4627 8.36109 19.225L7.40417 8.69885C7.38131 8.44622 7.45968 8.19485 7.62207 7.99998C7.78446 7.80512 8.01758 7.6827 8.27019 7.65963C8.52296 7.63729 8.77429 7.71595 8.96922 7.87842C9.16415 8.04089 9.2868 8.27394 9.31036 8.5266L10.2673 19.0527C10.2793 19.1852 10.2635 19.3187 10.221 19.4447C10.1784 19.5708 10.1101 19.6866 10.0203 19.7847C9.93057 19.8828 9.82132 19.9612 9.69957 20.0148C9.57782 20.0683 9.44624 20.0959 9.31323 20.0958ZM16.0136 20.0958C15.8806 20.0959 15.749 20.0683 15.6272 20.0148C15.5055 19.9612 15.3962 19.8828 15.3065 19.7847C15.2167 19.6866 15.1484 19.5708 15.1059 19.4447C15.0633 19.3187 15.0476 19.1852 15.0595 19.0527L16.0165 8.5266C16.0653 8.0003 16.5246 7.62136 17.0566 7.65963C17.3092 7.6827 17.5424 7.80512 17.7047 7.99998C17.8671 8.19485 17.9455 8.44622 17.9226 8.69885L16.9657 19.225C16.9442 19.4627 16.8347 19.6839 16.6585 19.845C16.4823 20.0061 16.2523 20.0955 16.0136 20.0958Z" fill="#B60000"/>
<path d="M16.9693 5.74152H8.35707C8.10328 5.74152 7.85988 5.6407 7.68042 5.46125C7.50096 5.28179 7.40015 5.03839 7.40015 4.7846V0.95692C7.40015 0.703129 7.50096 0.459733 7.68042 0.280275C7.85988 0.100818 8.10328 0 8.35707 0H16.9693C17.2231 0 17.4665 0.100818 17.646 0.280275C17.8255 0.459733 17.9263 0.703129 17.9263 0.95692V4.7846C17.9263 5.03839 17.8255 5.28179 17.646 5.46125C17.4665 5.6407 17.2231 5.74152 16.9693 5.74152ZM9.31399 3.82768H16.0124V1.91384H9.31399V3.82768Z" fill="#B60000"/>
</svg>
