<svg width="23" height="22" viewBox="0 0 23 22" fill="none" xmlns="http://www.w3.org/2000/svg">
<path d="M4.72581 18.0711C2.85045 16.1957 1.79688 13.6522 1.79688 11C1.79688 8.34784 2.85045 5.8043 4.72581 3.92893C6.60118 2.05357 9.14472 1 11.7969 1C14.4491 1 16.9926 2.05357 18.868 3.92893C20.7433 5.8043 21.7969 8.34784 21.7969 11C21.7969 13.6522 20.7433 16.1957 18.868 18.0711C16.9926 19.9464 14.4491 21 11.7969 21C9.14472 21 6.60118 19.9464 4.72581 18.0711Z" stroke="black" stroke-linecap="round" stroke-linejoin="round"/>
<path d="M9.36779 13.4372C9.36779 13.9196 9.51095 14.3912 9.77913 14.7922C10.0473 15.1931 10.4284 15.5055 10.8743 15.6898C11.3201 15.874 11.8106 15.9217 12.2836 15.827C12.7566 15.7323 13.1909 15.4993 13.5314 15.1576C13.8719 14.8159 14.1034 14.3809 14.1965 13.9075C14.2896 13.4342 14.2401 12.9439 14.0543 12.4987C13.8686 12.0535 13.5549 11.6735 13.153 11.4067C12.7511 11.1399 12.279 10.9983 11.7966 11C11.3146 11 10.8434 10.8571 10.4426 10.5893C10.0418 10.3215 9.72937 9.94081 9.5449 9.49546C9.36043 9.05011 9.31217 8.56007 9.40621 8.08729C9.50025 7.61451 9.73238 7.18024 10.0732 6.83938C10.4141 6.49853 10.8484 6.2664 11.3212 6.17236C11.7939 6.07832 12.284 6.12659 12.7293 6.31106C13.1747 6.49552 13.5553 6.8079 13.8231 7.20871C14.0909 7.60951 14.2339 8.08072 14.2339 8.56276M11.805 15.8745V17.5M11.805 4.5V6.12763" stroke="black" stroke-linecap="round" stroke-linejoin="round"/>
</svg>
