<svg width="24" height="24" viewBox="0 0 24 24" fill="none" xmlns="http://www.w3.org/2000/svg">
<path d="M3.38989 23.1683H17.918C18.8185 23.1657 19.6811 22.806 20.3166 22.1681C20.9522 21.5302 21.3087 20.6662 21.3079 19.7658V12.4659C21.3079 12.209 21.2059 11.9626 21.0242 11.781C20.8426 11.5994 20.5962 11.4973 20.3394 11.4973C20.0825 11.4973 19.8361 11.5994 19.6545 11.781C19.4729 11.9626 19.3708 12.209 19.3708 12.4659V19.7658C19.3721 20.1526 19.2199 20.5242 18.9475 20.7989C18.6751 21.0737 18.3049 21.2291 17.918 21.2312H3.38989C3.00303 21.2291 2.63279 21.0737 2.36042 20.7989C2.08804 20.5242 1.93579 20.1526 1.93708 19.7658V5.26284C1.93579 4.87597 2.08804 4.5044 2.36042 4.22967C2.63279 3.95493 3.00303 3.79948 3.38989 3.79743H10.654C10.9108 3.79743 11.1572 3.69539 11.3388 3.51375C11.5204 3.33212 11.6225 3.08577 11.6225 2.82889C11.6225 2.57202 11.5204 2.32567 11.3388 2.14403C11.1572 1.96239 10.9108 1.86035 10.654 1.86035H3.38989C2.48945 1.86292 1.6268 2.22262 0.991262 2.86051C0.355727 3.49841 -0.000772015 4.36238 1.25533e-06 5.26284V19.7658C-0.000772015 20.6662 0.355727 21.5302 0.991262 22.1681C1.6268 22.806 2.48945 23.1657 3.38989 23.1683Z" fill="#2DC3C3"/>
<path d="M9.15747 10.1362L8.39329 13.6366C8.3587 13.7953 8.36461 13.9602 8.41048 14.1161C8.45635 14.272 8.5407 14.4138 8.65577 14.5286C8.77242 14.6404 8.91431 14.7225 9.06942 14.7679C9.22453 14.8132 9.38829 14.8205 9.54682 14.7891L13.0394 14.023C13.2207 13.9832 13.3868 13.8921 13.5178 13.7605L22.3451 4.93324C22.615 4.66343 22.8291 4.34309 22.9751 3.99053C23.1212 3.63797 23.1963 3.2601 23.1963 2.87849C23.1963 2.49687 23.1212 2.119 22.9751 1.76644C22.8291 1.41388 22.615 1.09355 22.3451 0.823727C21.7919 0.295035 21.0561 0 20.2908 0C19.5256 0 18.7898 0.295035 18.2366 0.823727L9.42285 9.65972C9.29057 9.78986 9.19845 9.95526 9.15747 10.1362ZM19.6061 2.19421C19.7904 2.01769 20.0357 1.91914 20.2908 1.91914C20.546 1.91914 20.7913 2.01769 20.9756 2.19421C21.1548 2.37691 21.2552 2.62259 21.2552 2.87849C21.2552 3.13438 21.1548 3.38006 20.9756 3.56276L20.2908 4.24752L18.9213 2.878L19.6061 2.19421ZM10.9861 10.8278L17.547 4.25042L18.9029 5.61316L12.3391 12.1925L10.6006 12.5741L10.9861 10.8278Z" fill="#2DC3C3"/>
</svg>
