<svg width="18" height="18" viewBox="0 0 18 18" fill="none" xmlns="http://www.w3.org/2000/svg">
<path d="M1.70546 2.56289H6.90546M9.30546 2.56289H16.1055M1.70546 15.3629H5.30546M7.70546 15.3629H16.1055M16.1055 8.98789H13.3055M10.9055 8.98789H1.49921M9.30546 2.53789C9.30546 3.20063 8.7682 3.73789 8.10546 3.73789C7.44272 3.73789 6.90546 3.20063 6.90546 2.53789C6.90546 1.87515 7.44272 1.33789 8.10546 1.33789C8.7682 1.33789 9.30546 1.87515 9.30546 2.53789ZM7.70546 15.3379C7.70546 16.0006 7.1682 16.5379 6.50546 16.5379C5.84272 16.5379 5.30546 16.0006 5.30546 15.3379C5.30546 14.6751 5.84272 14.1379 6.50546 14.1379C7.1682 14.1379 7.70546 14.6751 7.70546 15.3379ZM10.9055 9.01289C10.9055 8.35015 11.4427 7.81289 12.1055 7.81289C12.7682 7.81289 13.3055 8.35015 13.3055 9.01289C13.3055 9.67563 12.7682 10.2129 12.1055 10.2129C11.4427 10.2129 10.9055 9.67563 10.9055 9.01289Z" stroke="white"/>
</svg>
