<svg width="17" height="17" viewBox="0 0 17 17" fill="none" xmlns="http://www.w3.org/2000/svg">
<g id="Frame">
<path id="Vector" d="M3.3676 1.82303C2.88643 1.82303 2.49733 2.21213 2.49733 2.69331V8.47636H13.903H14.8535H15.3287C15.5901 8.47636 15.804 8.69022 15.804 8.9516C15.804 9.21298 15.5901 9.42684 15.3287 9.42684H14.8535H13.903H2.49733H1.54685H1.07161C0.810231 9.42684 0.596375 9.21298 0.596375 8.9516C0.596375 8.69022 0.810231 8.47636 1.07161 8.47636H1.54685V2.69331C1.54685 1.6864 2.36069 0.872559 3.3676 0.872559C3.84878 0.872559 4.31214 1.06562 4.65372 1.40423L5.39924 2.14976C5.72894 1.94184 6.11804 1.82303 6.53685 1.82303C7.13683 1.82303 7.68039 2.06956 8.06949 2.47055L8.10216 2.43787C8.28631 2.25372 8.58928 2.25372 8.77343 2.43787C8.95759 2.62203 8.95759 2.92499 8.77343 3.10915L5.68439 6.19819C5.50023 6.38235 5.19727 6.38235 5.01311 6.19819C4.82896 6.01404 4.82896 5.71107 5.01311 5.52692L5.04579 5.49424C4.64481 5.10514 4.39828 4.56159 4.39828 3.9616C4.39828 3.5428 4.51709 3.1537 4.725 2.824L3.97947 2.07847C3.81908 1.91511 3.59631 1.82303 3.3676 1.82303ZM1.54685 10.3773H2.49733V11.803C2.49733 12.5812 2.87157 13.2703 3.4478 13.704C3.84581 14.001 4.33887 14.1792 4.87351 14.1792H11.5268C12.0615 14.1792 12.5545 14.001 12.9526 13.704C13.5288 13.2703 13.903 12.5812 13.903 11.803V10.3773H14.8535V11.803C14.8535 12.7089 14.4911 13.5317 13.903 14.1317V15.6049C13.903 15.8663 13.6892 16.0802 13.4278 16.0802C13.1664 16.0802 12.9526 15.8663 12.9526 15.6049V14.8089C12.5219 15.0138 12.0377 15.1297 11.5268 15.1297H4.87351C4.36263 15.1297 3.87848 15.0138 3.4478 14.8089V15.6049C3.4478 15.8663 3.23394 16.0802 2.97256 16.0802C2.71118 16.0802 2.49733 15.8663 2.49733 15.6049V14.1317C1.90922 13.5317 1.54685 12.7089 1.54685 11.803V10.3773ZM6.53685 2.77351C5.88042 2.77351 5.34875 3.30518 5.34875 3.9616C5.34875 4.30021 5.49132 4.60614 5.71706 4.82297L7.39821 3.14182C7.18139 2.91608 6.87545 2.77351 6.53685 2.77351Z" fill="#2D383F"/>
</g>
</svg>
