<svg width="39" height="37" viewBox="0 0 39 37" fill="none" xmlns="http://www.w3.org/2000/svg">
<g id="vuesax/linear/gallery-export">
<g id="gallery-export">
<path id="Vector" d="M14.8164 15.4252C16.5285 15.4252 17.9164 14.0489 17.9164 12.351C17.9164 10.6532 16.5285 9.27686 14.8164 9.27686C13.1043 9.27686 11.7164 10.6532 11.7164 12.351C11.7164 14.0489 13.1043 15.4252 14.8164 15.4252Z" stroke="#676767" stroke-width="1.5" stroke-linecap="round" stroke-linejoin="round"/>
<path id="Vector_2" d="M21.0164 3.12842H14.8164C7.06643 3.12842 3.96643 6.20261 3.96643 13.8881V23.1106C3.96643 30.7961 7.06643 33.8703 14.8164 33.8703H24.1164C31.8664 33.8703 34.9664 30.7961 34.9664 23.1106V15.4252" stroke="#676767" stroke-width="1.5" stroke-linecap="round" stroke-linejoin="round"/>
<path id="Vector_3" d="M28.7665 12.351V3.12842L31.8665 6.20261" stroke="#676767" stroke-width="1.5" stroke-linecap="round" stroke-linejoin="round"/>
<path id="Vector_4" d="M28.7665 3.12842L25.6665 6.20261" stroke="#676767" stroke-width="1.5" stroke-linecap="round" stroke-linejoin="round"/>
<path id="Vector_5" d="M5.005 29.1823L12.6465 24.0945C13.871 23.2798 15.638 23.372 16.7385 24.3097L17.25 24.7554C18.459 25.7853 20.412 25.7853 21.621 24.7554L28.069 19.268C29.278 18.2381 31.231 18.2381 32.44 19.268L34.9665 21.4199" stroke="#676767" stroke-width="1.5" stroke-linecap="round" stroke-linejoin="round"/>
</g>
</g>
</svg>
