<svg width="23" height="22" viewBox="0 0 23 22" fill="none" xmlns="http://www.w3.org/2000/svg">
<path d="M19.5821 9.14607L17.4525 20.1452C17.4008 20.3818 17.2721 20.5943 17.0859 20.7491C16.8997 20.9039 16.6672 20.9922 16.4252 21H5.99041C5.74839 20.9922 5.51588 20.9039 5.3297 20.7491C5.14352 20.5943 5.01433 20.3818 4.96258 20.1452L2.83301 9.14607M21.207 10.6304L11.207 1.5L1.20703 10.6304M9.03291 13.2391C9.03291 13.8157 9.26195 14.3686 9.66964 14.7763C10.0773 15.184 10.6302 15.413 11.2068 15.413C11.7834 15.413 12.3363 15.184 12.744 14.7763C13.1517 14.3686 13.3807 13.8157 13.3807 13.2391C13.3807 12.6626 13.1517 12.1096 12.744 11.7019C12.3363 11.2942 11.7834 11.0652 11.2068 11.0652C10.6302 11.0652 10.0773 11.2942 9.66964 11.7019C9.26195 12.1096 9.03291 12.6626 9.03291 13.2391Z" stroke="black" stroke-linecap="round" stroke-linejoin="round"/>
</svg>
