<svg width="20" height="16" viewBox="0 0 20 16" fill="none" xmlns="http://www.w3.org/2000/svg">
<g id="icon-bed" clip-path="url(#clip0_934_3848)">
<path id="Vector" d="M1.23998 1.50159C1.23998 1.22666 1.02623 1.00171 0.764978 1.00171C0.503728 1.00171 0.289978 1.22666 0.289978 1.50159V6.50042V10.4995V12.499V14.4985C0.289978 14.7735 0.503728 14.9984 0.764978 14.9984C1.02623 14.9984 1.23998 14.7735 1.23998 14.4985V12.9989H18.34V14.4985C18.34 14.7735 18.5537 14.9984 18.815 14.9984C19.0762 14.9984 19.29 14.7735 19.29 14.4985V12.499V10.4995V9.49972C19.29 7.5658 17.8026 6.00054 15.965 6.00054H1.23998V1.50159ZM18.34 9.9996H1.23998V7.0003H15.965C17.2772 7.0003 18.34 8.11879 18.34 9.49972V9.9996ZM1.23998 10.9994H18.34V11.9991H1.23998V10.9994Z" fill="#2D383F"/>
</g>
<defs>
<clipPath id="clip0_934_3848">
<rect width="19" height="15.9963" fill="white" transform="translate(0.289978 0.00183105)"/>
</clipPath>
</defs>
</svg>
