<svg width="17" height="17" viewBox="0 0 17 17" fill="none" xmlns="http://www.w3.org/2000/svg">
<circle cx="8.5" cy="8.5" r="8.5" fill="#D9D9D9"/>
<g clip-path="url(#clip0_725_3599)">
<path d="M12.2055 8.33648C12.2355 8.11711 12.2182 7.89386 12.1547 7.68175C12.0912 7.46964 11.983 7.27358 11.8374 7.10676C11.6919 6.93994 11.5122 6.80622 11.3107 6.71459C11.1091 6.62297 10.8903 6.57556 10.6689 6.57556C10.4475 6.57556 10.2286 6.62297 10.027 6.71459C9.82549 6.80622 9.64588 6.93994 9.5003 7.10676C9.35472 7.27358 9.24655 7.46964 9.18306 7.68175C9.11957 7.89386 9.10222 8.11711 9.1322 8.33648L9.46146 8.33648C9.43112 8.16055 9.43958 7.98011 9.48627 7.8078C9.53296 7.63548 9.61674 7.47545 9.73175 7.33891C9.84676 7.20236 9.99022 7.0926 10.1521 7.0173C10.314 6.942 10.4903 6.90299 10.6689 6.90299C10.8474 6.90299 11.0238 6.942 11.1856 7.0173C11.3475 7.0926 11.491 7.20236 11.606 7.33891C11.721 7.47545 11.8048 7.63548 11.8515 7.8078C11.8981 7.98011 11.9066 8.16055 11.8763 8.33648L12.2055 8.33648Z" fill="black"/>
<path d="M11.3529 8.33652C11.3748 8.27291 11.3777 8.20429 11.3612 8.13906C11.3447 8.07384 11.3096 8.01484 11.2601 7.96929C10.9077 7.61691 10.4581 8.23847 10.2734 8.05381C10.217 7.99744 10.2075 7.897 10.3293 7.77519C10.4037 7.69907 10.5033 7.6526 10.6095 7.64447C10.6437 7.64568 10.6772 7.63425 10.7036 7.61238C10.7246 7.59253 10.7368 7.56519 10.7377 7.53635C10.7385 7.5075 10.7279 7.47949 10.7081 7.45846C10.6918 7.44245 10.6709 7.43182 10.6483 7.42802C10.5773 7.42392 10.5062 7.43394 10.4391 7.4575C10.372 7.48106 10.3102 7.5177 10.2573 7.56528L10.1756 7.48353C10.1573 7.4663 10.1331 7.45686 10.1079 7.45723C10.0828 7.45759 10.0589 7.46773 10.0411 7.48549C10.0233 7.50325 10.0132 7.52723 10.0128 7.55234C10.0125 7.57745 10.0219 7.60172 10.0391 7.61999L10.1195 7.70032C9.95136 7.90788 9.97776 8.09858 10.1032 8.22403C10.4429 8.56372 10.884 7.9337 11.0898 8.13951C11.1168 8.16383 11.1346 8.19672 11.1401 8.23262C11.1456 8.26852 11.1385 8.30522 11.1201 8.33652L11.3529 8.33652ZM10.9623 11.3586C10.8983 11.357 10.8354 11.3429 10.7769 11.3169C10.7185 11.2909 10.6658 11.2535 10.6219 11.2071C10.6107 11.1937 10.5967 11.1829 10.581 11.1753C10.5653 11.1677 10.5481 11.1636 10.5307 11.1632C10.5018 11.1629 10.474 11.1741 10.4534 11.1943C10.4328 11.2145 10.421 11.242 10.4207 11.2709C10.4207 11.2907 10.4265 11.31 10.4373 11.3267C10.4881 11.3942 10.5527 11.4503 10.6267 11.4912C10.7007 11.5321 10.7825 11.5568 10.8668 11.5639L10.8668 11.6755C10.8676 11.7006 10.878 11.7245 10.8961 11.742C10.9141 11.7594 10.9382 11.7692 10.9633 11.7692C10.9884 11.7692 11.0126 11.7594 11.0306 11.742C11.0486 11.7245 11.0591 11.7006 11.0598 11.6755L11.0598 11.5639C11.3379 11.538 11.4832 11.3944 11.4832 11.1752C11.4832 10.6768 10.7257 10.7984 10.7257 10.5373C10.7257 10.4575 10.79 10.3798 10.9623 10.3798C11.0687 10.3786 11.172 10.4161 11.2528 10.4854C11.2762 10.5105 11.3079 10.5261 11.3421 10.5293C11.3709 10.5301 11.3989 10.5194 11.4199 10.4996C11.4409 10.4798 11.4532 10.4525 11.4541 10.4236C11.4538 10.4008 11.4466 10.3785 11.4333 10.3599C11.386 10.3068 11.3287 10.2636 11.2645 10.2328C11.2004 10.202 11.1308 10.1842 11.0598 10.1805L11.0598 10.0648C11.0591 10.0397 11.0486 10.0159 11.0306 9.99841C11.0126 9.98091 10.9884 9.97112 10.9633 9.97112C10.9382 9.97112 10.9141 9.98091 10.8961 9.99841C10.878 10.0159 10.8676 10.0397 10.8668 10.0648L10.8668 10.1784C10.6012 10.2063 10.485 10.3599 10.485 10.5373C10.485 11.0177 11.2424 10.8841 11.2424 11.1752C11.2424 11.2988 11.1512 11.3586 10.9623 11.3586Z" fill="black"/>
<path d="M10.0078 11.652C9.97598 11.7318 9.93869 11.8093 9.89614 11.8839C10.0362 11.9675 10.1482 12.0908 10.2181 12.2381C10.4745 12.3765 10.7647 12.4399 11.0556 12.4211C11.3464 12.4024 11.626 12.3022 11.8626 12.1321C12.0992 11.9619 12.2832 11.7287 12.3935 11.459C12.5038 11.1892 12.536 10.8939 12.4865 10.6068C12.437 10.3196 12.3077 10.0521 12.1134 9.83496C11.9191 9.61778 11.6676 9.45964 11.3877 9.37859C11.1078 9.29754 10.8107 9.29686 10.5304 9.37661C10.2501 9.45637 9.99792 9.61336 9.80261 9.82963C9.86116 9.93416 9.91347 10.0421 9.95928 10.1528C10.1091 9.94579 10.3199 9.79083 10.5621 9.70959C10.8044 9.62835 11.066 9.62489 11.3103 9.69969C11.5546 9.77449 11.7694 9.92382 11.9247 10.1268C12.0799 10.3297 12.1678 10.5761 12.1761 10.8315C12.1843 11.0869 12.1125 11.3384 11.9707 11.551C11.8289 11.7635 11.6242 11.9264 11.3852 12.0169C11.1462 12.1073 10.885 12.1207 10.638 12.0553C10.391 11.9899 10.1706 11.8489 10.0078 11.652ZM12.0155 4.60419C11.8934 4.48206 11.7277 4.41345 11.555 4.41345C11.3823 4.41345 11.2167 4.48206 11.0946 4.60419L9.75781 5.94093C9.70492 6.03023 9.64691 6.12 9.58293 6.2103C9.17914 6.77961 8.74374 7.32583 8.27881 7.84641C8.28428 7.8525 8.29016 7.85914 8.29573 7.86536L11.3257 4.83535C11.3865 4.77454 11.469 4.74037 11.555 4.74037C11.641 4.74037 11.7235 4.77454 11.7843 4.83535L13.9628 7.01376C13.9929 7.04387 14.0168 7.07962 14.033 7.11897C14.0493 7.15831 14.0577 7.20048 14.0577 7.24307C14.0577 7.28565 14.0493 7.32782 14.033 7.36716C14.0168 7.40651 13.9929 7.44226 13.9628 7.47237L13.0986 8.33653L13.5609 8.33653L14.1939 7.70354C14.2544 7.64307 14.3024 7.57128 14.3351 7.49227C14.3678 7.41326 14.3847 7.32858 14.3847 7.24306C14.3847 7.15754 14.3678 7.07286 14.3351 6.99385C14.3024 6.91484 14.2544 6.84306 14.1939 6.78259L12.0155 4.60419Z" fill="black"/>
<path d="M6.94718 11.9327C7.9352 11.9327 8.57403 11.3637 8.8669 11.0246C8.92509 10.9561 8.96452 10.8738 8.98135 10.7855C8.99818 10.6973 8.99182 10.6061 8.9629 10.5211C8.93712 10.4404 8.89055 10.3678 8.82787 10.3108C8.76518 10.2538 8.6886 10.2142 8.6058 10.1962C8.41134 10.1539 8.21301 10.1319 8.01401 10.1307C7.89086 10.1302 7.76792 10.1408 7.6467 10.1625C7.49789 10.01 7.31376 9.8966 7.11064 9.8323L7.11063 7.4971C7.48679 7.03962 7.79574 6.67017 8.04499 6.37214C8.82171 5.44349 8.94108 5.30074 8.90352 5.1366C8.89293 5.09417 8.87374 5.05432 8.84714 5.0196C8.82054 4.98488 8.7871 4.95598 8.74888 4.93471C8.42252 4.73489 7.63306 4.83374 7.05616 4.97905C6.42706 5.13736 5.39325 5.52547 5.48109 5.98129C5.48601 6.01168 5.49943 6.04005 5.5198 6.06314L6.78371 7.49825L6.78371 9.83231C6.58062 9.89661 6.39652 10.01 6.24772 10.1625C6.12608 10.1407 6.00272 10.13 5.87915 10.1305C5.68071 10.1317 5.48294 10.1535 5.28899 10.1955C5.20617 10.2135 5.12955 10.2529 5.06681 10.3099C5.00407 10.3669 4.95744 10.4394 4.93159 10.5201C4.90259 10.6051 4.89616 10.6963 4.91292 10.7845C4.92969 10.8728 4.96907 10.9552 5.02722 11.0238C5.31991 11.3632 5.95855 11.9326 6.94718 11.9327ZM5.81535 5.90411C5.89325 5.78726 6.30905 5.50415 7.13602 5.29608C7.94331 5.09275 8.43517 5.14035 8.56347 5.20385C8.48122 5.34101 8.1859 5.69411 7.79421 6.16243C7.56359 6.43815 7.28248 6.77425 6.94378 7.18534L5.81535 5.90411ZM5.35651 10.5154C5.52829 10.4783 5.70341 10.4589 5.87914 10.4574C6.04248 10.4552 6.20514 10.4789 6.36102 10.5277C6.36102 10.5277 6.597 10.2001 6.91846 10.1346L6.97594 10.1346C7.29739 10.2001 7.53338 10.5277 7.53338 10.5277C7.68885 10.479 7.85109 10.4553 8.014 10.4576C8.1902 10.4591 8.36578 10.4786 8.53797 10.516C8.56679 10.5254 8.59283 10.5418 8.61376 10.5637C8.6347 10.5856 8.64988 10.6123 8.65795 10.6416C8.66603 10.6708 8.66674 10.7015 8.66002 10.7311C8.6533 10.7606 8.63937 10.7881 8.61947 10.8109C8.41477 11.0564 8.15926 11.2546 7.87056 11.3918C7.58185 11.5291 7.26683 11.602 6.9472 11.6057C6.62748 11.6021 6.31237 11.529 6.02363 11.3917C5.73489 11.2543 5.4794 11.056 5.27481 10.8103C5.25491 10.7874 5.241 10.7599 5.2343 10.7304C5.2276 10.7008 5.22833 10.6701 5.23642 10.6409C5.24452 10.6117 5.25972 10.5849 5.28067 10.563C5.30163 10.5411 5.32768 10.5247 5.35651 10.5154Z" fill="black"/>
<path d="M3.9231 12.5865C3.92324 12.7165 3.97496 12.8412 4.06689 12.9331C4.15882 13.025 4.28347 13.0767 4.41348 13.0769L9.48079 13.0769C9.61085 13.0769 9.73558 13.0252 9.82754 12.9333C9.91951 12.8413 9.97117 12.7166 9.97117 12.5865C9.97117 12.4565 9.91951 12.3317 9.82754 12.2398C9.73558 12.1478 9.61085 12.0961 9.48079 12.0961L9.31947 12.0961C9.5379 11.8906 9.69301 11.6269 9.76649 11.3362C9.88978 10.8269 9.73827 10.2667 9.31617 9.67096C8.86288 9.03097 8.36837 8.42119 7.83577 7.84552C8.36874 7.2706 8.86328 6.6612 9.31617 6.02129C9.73827 5.4256 9.88978 4.86534 9.76649 4.35609C9.693 4.06532 9.5379 3.80163 9.31947 3.59613L9.48079 3.59613C9.61085 3.59613 9.73558 3.54446 9.82754 3.45249C9.91951 3.36053 9.97117 3.2358 9.97117 3.10574C9.97117 2.97568 9.91951 2.85095 9.82754 2.75899C9.73558 2.66702 9.61085 2.61536 9.48079 2.61536L4.41348 2.61536C4.28342 2.61536 4.15869 2.66702 4.06673 2.75899C3.97476 2.85095 3.9231 2.97568 3.9231 3.10574C3.9231 3.2358 3.97476 3.36053 4.06673 3.4525C4.15869 3.54446 4.28342 3.59613 4.41348 3.59613L4.57463 3.59613C4.35731 3.80059 4.20268 4.0627 4.12882 4.3518C4.00362 4.86216 4.15479 5.42385 4.57812 6.02129C5.03141 6.66128 5.52592 7.27105 6.05852 7.84672C5.52555 8.42165 5.03102 9.03105 4.57813 9.67096C4.15479 10.2684 4.00362 10.8301 4.12882 11.3405C4.20268 11.6296 4.35731 11.8917 4.57463 12.0961L4.41348 12.0961C4.28347 12.0963 4.15882 12.148 4.06689 12.2399C3.97496 12.3319 3.92324 12.4565 3.9231 12.5865ZM4.41348 3.2692C4.37013 3.2692 4.32855 3.25198 4.2979 3.22133C4.26724 3.19067 4.25002 3.14909 4.25002 3.10574C4.25002 3.06239 4.26724 3.02081 4.2979 2.99016C4.32855 2.9595 4.37013 2.94228 4.41348 2.94228L9.48079 2.94228C9.52414 2.94228 9.56572 2.9595 9.59637 2.99016C9.62703 3.02081 9.64425 3.06239 9.64425 3.10574C9.64425 3.14909 9.62703 3.19067 9.59637 3.22133C9.56572 3.25198 9.52414 3.2692 9.48079 3.2692L4.41348 3.2692ZM4.84487 9.85997C5.28958 9.23181 5.77486 8.63337 6.29761 8.0685C6.35389 8.00812 6.38518 7.92866 6.38518 7.84612C6.38517 7.76359 6.35388 7.68412 6.29761 7.62375C5.77486 7.05887 5.28958 6.46044 4.84487 5.83228C3.94294 4.55942 4.66691 3.86947 5.10543 3.59613L8.78899 3.59613C9.22756 3.86963 9.95113 4.55973 9.04942 5.83228C8.60471 6.46044 8.11943 7.05887 7.59668 7.62375C7.54041 7.68413 7.50912 7.76359 7.50912 7.84612C7.50912 7.92866 7.54041 8.00812 7.59668 8.0685C8.11943 8.63337 8.60471 9.23181 9.04942 9.85997C9.95114 11.1325 9.22757 11.8226 8.78899 12.0961L5.10543 12.0961C4.66692 11.8228 3.94294 11.1328 4.84487 9.85997ZM9.48079 12.423C9.52414 12.423 9.56572 12.4403 9.59637 12.4709C9.62703 12.5016 9.64425 12.5432 9.64425 12.5865C9.64425 12.6299 9.62703 12.6714 9.59637 12.7021C9.56572 12.7328 9.52414 12.75 9.48079 12.75L4.41348 12.75C4.37013 12.75 4.32855 12.7328 4.2979 12.7021C4.26724 12.6714 4.25002 12.6299 4.25002 12.5865C4.25002 12.5432 4.26724 12.5016 4.2979 12.4709C4.32855 12.4403 4.37013 12.423 4.41348 12.423L9.48079 12.423Z" fill="black"/>
<path d="M13.7309 8.66345L8.96802 8.66345C9.00711 8.71263 9.04709 8.76348 9.08734 8.8152L9.0969 8.82747C9.13815 8.88055 9.17986 8.93482 9.22204 8.99028L13.7309 8.99037C13.8176 8.99037 13.9007 9.02482 13.962 9.08613C14.0233 9.14744 14.0578 9.23059 14.0578 9.3173L14.0578 12.4231C14.0578 12.5098 14.0233 12.5929 13.962 12.6542C13.9007 12.7155 13.8176 12.75 13.7309 12.75L10.2817 12.75C10.2757 12.7791 10.268 12.8079 10.2588 12.8362C10.2574 12.8405 10.2556 12.8447 10.2541 12.849C10.2459 12.8731 10.2367 12.8968 10.2264 12.9198C10.2248 12.9232 10.2231 12.9264 10.2216 12.9298C10.2102 12.9542 10.1977 12.9779 10.1841 13.0009L10.1817 13.0048C10.1668 13.0297 10.1506 13.0538 10.1331 13.0769L13.7309 13.0769C13.9042 13.0767 14.0704 13.0078 14.193 12.8852C14.3156 12.7626 14.3845 12.5964 14.3847 12.4231L14.3847 9.3173C14.3845 9.14395 14.3155 8.97775 14.193 8.85518C14.0704 8.7326 13.9042 8.66365 13.7309 8.66345Z" fill="black"/>
</g>
<defs>
<clipPath id="clip0_725_3599">
<rect width="10.4615" height="10.4615" fill="white" transform="translate(3.9231 2.61536)"/>
</clipPath>
</defs>
</svg>
