<svg width="241" height="112" viewBox="0 0 241 112" fill="none" xmlns="http://www.w3.org/2000/svg">
<mask id="mask0_1127_33399" style="mask-type:alpha" maskUnits="userSpaceOnUse" x="4" y="0" width="233" height="104">
<rect x="4.5" y="0.5" width="232" height="103" fill="#D9D9D9" stroke="black"/>
</mask>
<g mask="url(#mask0_1127_33399)">
<path d="M225.32 62.3262L227.002 67.9345C227.146 68.4138 227.405 68.8499 227.756 69.204C228.107 69.5582 228.539 69.8194 229.014 69.9648L234.572 71.6623C234.716 71.7026 234.844 71.7895 234.934 71.9097C235.025 72.03 235.074 72.1769 235.074 72.328C235.074 72.4791 235.025 72.6261 234.934 72.7463C234.844 72.8665 234.716 72.9534 234.572 72.9936L229.014 74.6911C228.538 74.8353 228.104 75.0962 227.751 75.4504C227.399 75.8046 227.139 76.2412 226.994 76.7214L225.32 82.3298C225.28 82.4755 225.194 82.6039 225.075 82.6954C224.956 82.7869 224.81 82.8364 224.66 82.8364C224.511 82.8364 224.365 82.7869 224.246 82.6954C224.127 82.6039 224.04 82.4755 224.001 82.3298L222.318 76.7214C222.174 76.2408 221.914 75.8039 221.562 75.4496C221.209 75.0953 220.775 74.8347 220.298 74.6911L214.74 72.9936C214.596 72.9534 214.469 72.8665 214.378 72.7463C214.287 72.6261 214.238 72.4791 214.238 72.328C214.238 72.1769 214.287 72.03 214.378 71.9097C214.469 71.7895 214.596 71.7026 214.74 71.6623L220.298 69.9648C220.775 69.8213 221.209 69.5608 221.562 69.2065C221.914 68.8521 222.174 68.4151 222.318 67.9345L224.001 62.3262C224.04 62.1806 224.127 62.0522 224.246 61.9607C224.365 61.8692 224.511 61.8196 224.66 61.8196C224.81 61.8196 224.956 61.8692 225.075 61.9607C225.194 62.0522 225.28 62.1806 225.32 62.3262Z" fill="white"/>
<path d="M224.66 83.761C224.507 83.7605 224.354 83.7381 224.207 83.6944C223.947 83.6189 223.711 83.4788 223.519 83.2868C223.327 83.0949 223.187 82.8573 223.11 82.596L221.428 76.9961C221.329 76.6611 221.149 76.3562 220.905 76.1092C220.66 75.8622 220.358 75.6807 220.026 75.5814L214.468 73.884C214.14 73.78 213.853 73.573 213.649 73.2932C213.446 73.0133 213.336 72.6752 213.336 72.328C213.336 71.9808 213.446 71.6427 213.649 71.3629C213.853 71.083 214.14 70.876 214.468 70.772L220.034 69.0745C220.365 68.974 220.665 68.7921 220.908 68.5451C221.152 68.2981 221.33 67.994 221.428 67.66L223.11 62.0517C223.211 61.7172 223.415 61.4243 223.694 61.2162C223.972 61.0081 224.31 60.8958 224.656 60.8958C225.002 60.8958 225.34 61.0081 225.618 61.2162C225.896 61.4243 226.101 61.7172 226.202 62.0517L227.884 67.66C227.984 67.9942 228.164 68.2984 228.409 68.5452C228.653 68.792 228.955 68.9739 229.286 69.0745L234.844 70.772C235.172 70.876 235.459 71.083 235.663 71.3629C235.866 71.6427 235.976 71.9808 235.976 72.328C235.976 72.6752 235.866 73.0133 235.663 73.2932C235.459 73.573 235.172 73.78 234.844 73.884L229.286 75.5814C228.955 75.6821 228.653 75.864 228.409 76.1108C228.164 76.3577 227.984 76.6618 227.884 76.9961L226.202 82.596C226.103 82.9315 225.9 83.2259 225.622 83.4356C225.344 83.6454 225.007 83.7595 224.66 83.761ZM215.771 72.328L220.57 73.7925C221.194 73.9805 221.762 74.3223 222.223 74.7871C222.684 75.252 223.022 75.8252 223.209 76.4552L224.66 81.2979L226.111 76.4552C226.299 75.8259 226.638 75.2534 227.099 74.7887C227.559 74.3241 228.127 73.9818 228.75 73.7925L233.549 72.328L228.75 70.8635C228.127 70.6742 227.559 70.3318 227.099 69.8672C226.638 69.4025 226.299 68.83 226.111 68.2008L224.66 63.358L223.201 68.2091C223.013 68.8375 222.674 69.409 222.213 69.8724C221.753 70.3357 221.185 70.6763 220.562 70.8635L215.771 72.328Z" fill="#222433"/>
<path d="M98.6606 6.10138L100.145 11.0524C100.272 11.4767 100.502 11.8626 100.812 12.1761C101.123 12.4896 101.506 12.7211 101.926 12.8498L106.841 14.3475C106.965 14.3846 107.074 14.4615 107.152 14.5665C107.23 14.6714 107.272 14.799 107.272 14.93C107.272 15.061 107.23 15.1885 107.152 15.2934C107.074 15.3984 106.965 15.4752 106.841 15.5124L101.926 17.0102C101.505 17.1397 101.121 17.3723 100.811 17.6873C100.5 18.0024 100.271 18.39 100.145 18.8158L98.6606 23.7668C98.6262 23.8959 98.5506 24.0099 98.4455 24.0913C98.3404 24.1726 98.2117 24.2166 98.0792 24.2166C97.9468 24.2166 97.8181 24.1726 97.713 24.0913C97.6079 24.0099 97.5323 23.8959 97.4979 23.7668L96.0136 18.8158C95.8867 18.3912 95.6577 18.0049 95.3469 17.6913C95.0361 17.3777 94.6533 17.1465 94.2325 17.0185L89.3179 15.5208C89.1934 15.4836 89.0841 15.4067 89.0064 15.3018C88.9287 15.1968 88.8867 15.0692 88.8867 14.9382C88.8867 14.8072 88.9287 14.6798 89.0064 14.5748C89.0841 14.4698 89.1934 14.393 89.3179 14.3558L94.2325 12.858C94.6527 12.728 95.0345 12.4951 95.3438 12.1801C95.6532 11.865 95.8804 11.4776 96.0054 11.0524L97.4896 6.10138C97.524 5.97231 97.5996 5.85828 97.7047 5.77695C97.8098 5.69563 97.9386 5.65161 98.071 5.65161C98.2034 5.65161 98.3322 5.69563 98.4373 5.77695C98.5424 5.85828 98.618 5.97231 98.6523 6.10138H98.6606Z" fill="#001229"/>
<path d="M237.791 140.069C237.148 136.291 235.277 132.836 232.472 130.25L193.032 93.8461C188.77 89.8432 183.162 87.6217 177.34 87.6303H169.292L145.222 87.5471L138.897 87.6303C135.582 87.6307 132.306 88.3518 129.292 89.7446C126.279 91.1375 123.598 93.1692 121.432 95.7016L121.498 95.6268L90.3281 134.585C89.7922 135.268 87.9038 138.829 87.9038 138.829C86.6786 141.477 86.1588 144.402 86.3957 147.315C86.6326 150.228 87.6181 153.028 89.2549 155.439C90.8916 157.85 93.1231 159.789 95.7292 161.064C98.3352 162.339 101.226 162.907 104.115 162.71C105.319 162.677 108.601 162.294 109.747 161.146" fill="white"/>
<path d="M102.959 163.617C100.017 163.61 97.1244 162.856 94.5477 161.423C91.971 159.991 89.7933 157.927 88.2157 155.421C86.6381 152.915 85.7114 150.049 85.5211 147.087C85.3307 144.124 85.883 141.161 87.1267 138.471L87.1515 138.429C87.9188 136.932 88.7553 135.471 89.6583 134.053L120.713 95.2187C120.735 95.1866 120.76 95.156 120.787 95.1272C123.033 92.503 125.813 90.3978 128.938 88.9548C132.063 87.5118 135.459 86.7648 138.895 86.7646L145.211 86.6731L169.29 86.7563H177.33C183.373 86.7486 189.194 89.0565 193.615 93.2134L193.648 93.2466L233.039 129.609H233.056C236.006 132.32 237.972 135.949 238.638 139.919C238.677 140.146 238.624 140.379 238.492 140.568C238.359 140.756 238.159 140.883 237.933 140.922C237.708 140.96 237.477 140.907 237.291 140.773C237.104 140.64 236.978 140.437 236.94 140.21C236.335 136.618 234.556 133.334 231.885 130.882L231.868 130.866L192.453 94.4865L192.403 94.4449C188.305 90.6143 182.924 88.489 177.338 88.4954H169.29L145.211 88.4122L138.912 88.4954C135.74 88.4944 132.606 89.1786 129.718 90.5019C126.831 91.8252 124.258 93.757 122.172 96.1673L91.0024 135.134C90.6478 135.575 89.3944 137.864 88.677 139.22C87.5211 141.731 87.033 144.502 87.2609 147.261C87.4888 150.02 88.4248 152.672 89.9767 154.955C91.5286 157.238 93.643 159.074 96.1116 160.282C98.5803 161.49 101.318 162.029 104.056 161.845C104.069 161.846 104.083 161.846 104.097 161.845C105.664 161.811 108.36 161.329 109.144 160.538C109.222 160.453 109.317 160.386 109.422 160.339C109.527 160.292 109.64 160.266 109.755 160.265C109.87 160.263 109.985 160.284 110.091 160.328C110.198 160.371 110.294 160.436 110.376 160.518C110.457 160.6 110.521 160.698 110.564 160.805C110.607 160.913 110.629 161.028 110.627 161.144C110.625 161.26 110.6 161.374 110.553 161.48C110.507 161.586 110.44 161.682 110.356 161.761C108.772 163.359 104.542 163.559 104.163 163.575C103.762 163.603 103.36 163.617 102.959 163.617Z" fill="#222433"/>
<path d="M177.84 39.4765C179.162 38.5929 180.704 38.1024 182.289 38.061C183.874 38.0196 185.438 38.4289 186.804 39.2423C188.169 40.0557 189.281 41.2402 190.011 42.6606C190.741 44.081 191.06 45.68 190.932 47.2748C190.804 48.8696 190.234 50.396 189.288 51.6796C188.341 52.9631 187.055 53.952 185.578 54.5333C184.101 55.1146 182.491 55.2648 180.933 54.9669C179.375 54.6689 177.932 53.9347 176.768 52.8482C178.11 56.9783 178.108 61.433 176.762 65.5618C175.416 69.6905 172.798 73.277 169.289 75.7974V87.8378C169.289 90.4534 168.385 92.9872 166.733 95.0021L152.789 97.748C151.019 96.7827 149.542 95.3531 148.511 93.6101C147.48 91.8672 146.936 89.8757 146.934 87.8461V76.5047C143.196 74.1606 140.32 70.6485 138.742 66.5029C137.164 62.3573 136.971 57.8051 138.193 53.5389C136.964 54.4185 135.524 54.9506 134.023 55.08C132.522 55.2094 131.013 54.9314 129.654 54.2748C128.295 53.6183 127.134 52.607 126.293 51.3457C125.451 50.0844 124.959 48.619 124.867 47.1012C124.776 45.5835 125.088 44.0685 125.771 42.7134C126.455 41.3582 127.485 40.2121 128.755 39.3937C130.025 38.5753 131.488 38.1144 132.994 38.0587C134.5 38.0031 135.993 38.3546 137.319 39.0771L138.927 25.1811L177.271 24.3074L177.84 39.4765Z" fill="#E0E8F4"/>
<path d="M152.788 98.614C152.645 98.616 152.503 98.5817 152.376 98.5141C150.472 97.4712 148.882 95.9287 147.775 94.0497C146.667 92.1706 146.083 90.0246 146.084 87.8383V76.9878C142.593 74.6899 139.856 71.3976 138.22 67.5283C136.585 63.6591 136.125 59.387 136.898 55.2535C135.494 55.8507 133.966 56.0914 132.449 55.9544C130.931 55.8174 129.47 55.3069 128.193 54.4677C126.916 53.6285 125.863 52.4861 125.125 51.1407C124.388 49.7953 123.988 48.2879 123.962 46.7505C123.936 45.2132 124.284 43.6928 124.975 42.3226C125.667 40.9525 126.681 39.7743 127.928 38.8913C129.176 38.0084 130.618 37.4476 132.131 37.2581C133.643 37.0686 135.178 37.2562 136.601 37.8045L138.069 25.0818C138.093 24.8742 138.19 24.6824 138.344 24.5416C138.497 24.4009 138.695 24.3209 138.902 24.3162L177.246 23.4509C177.47 23.4463 177.688 23.531 177.851 23.6866C178.015 23.8422 178.111 24.0563 178.12 24.283L178.648 38.0458C180.086 37.3805 181.669 37.0958 183.247 37.2188C184.825 37.3417 186.346 37.8681 187.666 38.7484C188.987 39.6287 190.063 40.8338 190.794 42.2502C191.525 43.6665 191.887 45.2474 191.844 46.8438C191.802 48.4402 191.358 49.9994 190.553 51.3745C189.749 52.7496 188.61 53.8952 187.245 54.7034C185.88 55.5115 184.334 55.9555 182.752 55.9935C181.17 56.0316 179.604 55.6623 178.202 54.9207C179.006 58.8801 178.674 62.9888 177.246 66.7647C175.818 70.5406 173.352 73.8272 170.138 76.2389V87.8383C170.137 90.6556 169.166 93.3851 167.392 95.5602C167.266 95.7147 167.091 95.8205 166.897 95.8597L152.953 98.6057C152.899 98.6138 152.843 98.6166 152.788 98.614ZM138.193 52.6823C138.326 52.6822 138.457 52.7133 138.576 52.7732C138.696 52.8332 138.799 52.9203 138.879 53.0277C138.959 53.135 139.013 53.2597 139.037 53.3919C139.061 53.524 139.055 53.66 139.017 53.789C137.848 57.8752 138.033 62.2352 139.546 66.2052C141.058 70.1752 143.814 73.5379 147.395 75.7813C147.519 75.8588 147.62 75.9667 147.691 76.0948C147.762 76.2228 147.799 76.3669 147.799 76.5135V87.8383C147.798 89.6618 148.273 91.4534 149.174 93.0336C150.076 94.6138 151.373 95.927 152.937 96.8416L166.262 94.2205C167.663 92.3934 168.423 90.1485 168.423 87.8383V75.7979C168.423 75.6593 168.455 75.5228 168.519 75.3997C168.582 75.2766 168.673 75.1706 168.785 75.0907C172.146 72.6794 174.655 69.2472 175.946 65.2952C177.236 61.3432 177.241 57.0783 175.959 53.1234C175.898 52.9402 175.898 52.7415 175.962 52.5589C176.025 52.3763 176.147 52.2203 176.308 52.1159C176.47 52.0115 176.661 51.9646 176.852 51.9828C177.043 52.0011 177.222 52.0833 177.361 52.2164C178.407 53.1927 179.704 53.8524 181.104 54.1203C182.503 54.3881 183.95 54.2533 185.277 53.7311C186.604 53.2089 187.76 52.3205 188.61 51.1673C189.461 50.0142 189.973 48.6428 190.088 47.2098C190.203 45.7768 189.917 44.3401 189.261 43.0638C188.605 41.7874 187.607 40.7229 186.38 39.9919C185.153 39.2609 183.748 38.8929 182.323 38.9298C180.899 38.9668 179.514 39.4073 178.326 40.2009C178.199 40.2869 178.052 40.3373 177.9 40.3468C177.748 40.3564 177.596 40.3247 177.46 40.2552C177.324 40.1857 177.208 40.0808 177.126 39.9513C177.043 39.8218 176.996 39.6724 176.99 39.5186L176.438 25.2066L139.694 26.0387L138.176 39.1858C138.161 39.3269 138.111 39.462 138.032 39.5791C137.953 39.6963 137.846 39.792 137.721 39.8578C137.597 39.9236 137.458 39.9574 137.317 39.9563C137.177 39.9552 137.038 39.9192 136.915 39.8514C135.724 39.2003 134.382 38.8823 133.028 38.9305C131.675 38.9788 130.359 39.3914 129.216 40.1257C128.074 40.86 127.147 41.8893 126.531 43.1068C125.916 44.3242 125.634 45.6857 125.716 47.05C125.797 48.4143 126.239 49.7318 126.994 50.866C127.75 52.0002 128.793 52.9097 130.014 53.5004C131.236 54.091 132.592 54.3413 133.941 54.2253C135.291 54.1092 136.585 53.6311 137.69 52.8404C137.834 52.7345 138.007 52.6763 138.185 52.674L138.193 52.6823Z" fill="#222433"/>
<path d="M156.095 55.9274C155.898 55.9237 155.709 55.8517 155.558 55.7235C155.408 55.5954 155.306 55.4189 155.269 55.2237C155.232 55.0285 155.263 54.8265 155.357 54.6516C155.45 54.4767 155.6 54.3395 155.782 54.2632L160.276 52.4742L156.953 42.2727C156.882 42.0542 156.9 41.8162 157.003 41.611C157.105 41.4058 157.285 41.2502 157.501 41.1785C157.718 41.1068 157.954 41.1248 158.157 41.2286C158.36 41.3323 158.515 41.5134 158.586 41.7319L162.164 52.7155C162.235 52.9254 162.223 53.1547 162.131 53.356C162.039 53.5572 161.874 53.7152 161.67 53.7972L156.4 55.8775C156.3 55.9136 156.194 55.9306 156.087 55.9274H156.095Z" fill="#222433"/>
<path d="M148.426 48.9795C152.119 48.9795 155.113 45.9582 155.113 42.2312C155.113 38.5042 152.119 35.4829 148.426 35.4829C144.732 35.4829 141.738 38.5042 141.738 42.2312C141.738 45.9582 144.732 48.9795 148.426 48.9795Z" fill="white"/>
<path d="M148.427 49.8448C146.936 49.8431 145.478 49.3952 144.238 48.5576C142.998 47.72 142.032 46.5303 141.463 45.139C140.893 43.7476 140.745 42.217 141.037 40.7407C141.329 39.2643 142.048 37.9084 143.103 36.8445C144.159 35.7805 145.503 35.0562 146.967 34.7631C148.43 34.47 149.947 34.6213 151.325 35.1978C152.703 35.7743 153.881 36.7502 154.71 38.002C155.538 39.2539 155.981 40.7256 155.981 42.2311C155.981 43.2316 155.785 44.2224 155.406 45.1466C155.026 46.0709 154.469 46.9106 153.768 47.6177C153.066 48.3248 152.234 48.8855 151.317 49.2676C150.401 49.6497 149.419 49.8459 148.427 49.8448ZM148.427 36.3482C147.275 36.3498 146.148 36.6963 145.191 37.3437C144.233 37.9911 143.487 38.9105 143.047 39.9856C142.607 41.0607 142.493 42.2433 142.719 43.3839C142.945 44.5245 143.501 45.572 144.316 46.3939C145.132 47.2158 146.171 47.7753 147.301 48.0016C148.432 48.2279 149.604 48.1109 150.669 47.6654C151.733 47.2199 152.643 46.4659 153.284 45.4986C153.924 44.5313 154.266 43.3943 154.266 42.2311C154.266 41.4578 154.115 40.6922 153.821 39.9779C153.528 39.2636 153.097 38.6147 152.555 38.0683C152.013 37.5219 151.369 37.0888 150.661 36.7936C149.953 36.4985 149.194 36.3471 148.427 36.3482Z" fill="#222433"/>
<path d="M167.375 48.9795C171.068 48.9795 174.062 45.9582 174.062 42.2312C174.062 38.5042 171.068 35.4829 167.375 35.4829C163.682 35.4829 160.688 38.5042 160.688 42.2312C160.688 45.9582 163.682 48.9795 167.375 48.9795Z" fill="white"/>
<path d="M167.385 49.8448C165.893 49.8448 164.434 49.3982 163.193 48.5616C161.952 47.725 160.985 46.5359 160.414 45.1447C159.843 43.7535 159.694 42.2227 159.985 40.7457C160.276 39.2688 160.995 37.9122 162.05 36.8474C163.105 35.7826 164.449 35.0575 165.913 34.7637C167.377 34.47 168.894 34.6207 170.272 35.197C171.651 35.7733 172.829 36.7491 173.658 38.0012C174.487 39.2532 174.93 40.7253 174.93 42.2311C174.93 44.2504 174.135 46.1869 172.72 47.6148C171.305 49.0426 169.386 49.8448 167.385 49.8448ZM167.385 36.3482C166.232 36.3482 165.105 36.6932 164.146 37.3396C163.187 37.9861 162.44 38.9049 161.999 39.9798C161.558 41.0548 161.442 42.2376 161.667 43.3788C161.892 44.52 162.447 45.5682 163.263 46.3909C164.078 47.2137 165.117 47.774 166.248 48.001C167.378 48.228 168.551 48.1115 169.616 47.6662C170.681 47.2209 171.592 46.4669 172.232 45.4995C172.873 44.532 173.215 43.3946 173.215 42.2311C173.215 40.6709 172.601 39.1745 171.507 38.0713C170.414 36.968 168.931 36.3482 167.385 36.3482Z" fill="#222433"/>
<path d="M160.361 42.5137H155.463C155.236 42.5137 155.017 42.4225 154.857 42.2603C154.696 42.098 154.605 41.8779 154.605 41.6483C154.605 41.4188 154.696 41.1987 154.857 41.0364C155.017 40.8741 155.236 40.783 155.463 40.783H160.353C160.58 40.783 160.798 40.8741 160.959 41.0364C161.12 41.1987 161.211 41.4188 161.211 41.6483C161.211 41.8779 161.12 42.098 160.959 42.2603C160.798 42.4225 160.58 42.5137 160.353 42.5137H160.361Z" fill="#222433"/>
<path d="M181.989 99.1713C182.418 99.3654 182.814 99.554 183.176 99.7371C186.55 101.478 189.877 103.309 193.154 105.229L195.455 106.893C197.154 108.121 198.541 109.738 199.503 111.611C200.464 113.484 200.973 115.561 200.986 117.67C201 119.78 200.519 121.862 199.582 123.748C198.645 125.634 197.278 127.269 195.595 128.519C192.264 131.082 187.143 131.016 184.331 128.503C181.445 125.923 179.235 121.937 175.409 120.015L154.464 99.1713C153.227 98.5472 152.658 97.79 152.831 96.6583C153.301 93.5213 160.64 93.721 168.235 95.1606" fill="#E0E8F4"/>
<path d="M189.814 131.29C187.605 131.339 185.455 130.576 183.762 129.143C182.688 128.137 181.68 127.061 180.744 125.923C179.07 123.976 177.33 121.954 175.029 120.797C174.947 120.757 174.872 120.704 174.807 120.639L153.952 99.8869C153.3 99.6295 152.751 99.1601 152.393 98.5528C152.034 97.9455 151.887 97.235 151.973 96.5335C152.036 96.1323 152.182 95.7489 152.401 95.4078C152.619 95.0667 152.906 94.7756 153.243 94.5532C156.228 92.4063 164.013 93.4798 168.383 94.3118C168.494 94.3332 168.6 94.3763 168.694 94.4389C168.789 94.5014 168.87 94.5821 168.933 94.6764C168.997 94.7707 169.042 94.8766 169.064 94.9883C169.087 95.0999 169.088 95.215 169.067 95.327C169.046 95.439 169.003 95.5457 168.941 95.641C168.879 95.7364 168.799 95.8184 168.706 95.8826C168.613 95.9467 168.508 95.9916 168.397 96.0148C168.286 96.038 168.172 96.039 168.061 96.0176C161.184 94.7113 156.022 94.6863 154.233 95.9677C154.086 96.0558 153.959 96.1751 153.863 96.3173C153.766 96.4596 153.701 96.6214 153.672 96.7915C153.598 97.2741 153.631 97.79 154.843 98.4058C154.922 98.4469 154.994 98.5002 155.057 98.5638L175.92 119.316C178.459 120.631 180.29 122.745 182.038 124.791C182.925 125.874 183.881 126.896 184.9 127.854C187.439 130.134 192.098 130.125 195.067 127.829C196.643 126.66 197.922 125.132 198.8 123.369C199.678 121.606 200.13 119.658 200.119 117.685C200.108 115.712 199.633 113.769 198.735 112.016C197.837 110.264 196.541 108.75 194.951 107.6L192.684 105.953C191.521 105.262 188.28 103.382 182.78 100.511C182.442 100.345 182.055 100.153 181.642 99.9701C181.534 99.9281 181.435 99.8643 181.352 99.7825C181.268 99.7007 181.202 99.6027 181.158 99.4944C181.113 99.3861 181.091 99.2698 181.092 99.1525C181.093 99.0353 181.118 98.9195 181.165 98.8122C181.212 98.7049 181.28 98.6084 181.365 98.5285C181.451 98.4486 181.551 98.387 181.66 98.3475C181.77 98.3079 181.886 98.2912 182.002 98.2983C182.118 98.3055 182.231 98.3364 182.335 98.3891C182.78 98.5888 183.193 98.7802 183.572 98.9716C189.163 101.892 192.445 103.798 193.591 104.48C193.614 104.495 193.636 104.512 193.657 104.53L195.949 106.194C197.758 107.502 199.235 109.224 200.258 111.218C201.282 113.212 201.823 115.422 201.837 117.668C201.852 119.914 201.339 122.131 200.341 124.138C199.344 126.146 197.89 127.887 196.098 129.218C194.282 130.582 192.077 131.312 189.814 131.298V131.29Z" fill="#222433"/>
<path d="M140.997 106.893C139.297 108.121 137.91 109.738 136.949 111.611C135.987 113.484 135.479 115.561 135.465 117.67C135.451 119.779 135.933 121.862 136.87 123.748C137.807 125.634 139.173 127.269 140.857 128.519C144.188 131.082 149.309 131.015 152.121 128.503C156.45 124.633 159.253 117.619 168.258 119.117C172.323 119.782 178.31 121.43 178.805 117.536C179.151 114.831 172.224 112.626 167.186 110.812C174.855 110.105 184.89 109.165 184.775 105.653C184.659 102.142 177.304 102.142 167.376 103.132C178.071 100.12 184.132 100.02 183.62 96.6583C182.796 91.1165 160.532 95.9843 153.275 99.737C149.902 101.479 146.575 103.31 143.298 105.229L140.997 106.893Z" fill="#E0E8F4"/>
<path d="M146.637 131.29C144.369 131.305 142.158 130.574 140.337 129.21C138.546 127.877 137.093 126.135 136.097 124.127C135.101 122.119 134.59 119.901 134.606 117.656C134.622 115.41 135.165 113.2 136.189 111.206C137.214 109.213 138.692 107.493 140.502 106.186L142.794 104.522C146.109 102.582 149.475 100.731 152.887 98.9716C159.13 95.7348 177.221 91.3996 182.664 94.2204C183.132 94.4224 183.543 94.7389 183.86 95.1413C184.176 95.5437 184.389 96.0193 184.478 96.5253C184.931 99.5042 181.872 100.461 176.677 101.701C180.841 101.701 183.29 102.267 184.585 103.407C184.908 103.68 185.169 104.019 185.351 104.402C185.533 104.785 185.632 105.204 185.64 105.628C185.756 109.14 179.654 110.396 171.111 111.295C175.828 113.026 180.008 114.923 179.662 117.644C179.618 118.113 179.476 118.567 179.246 118.977C179.015 119.387 178.702 119.744 178.326 120.024C176.364 121.471 172.793 120.822 169.635 120.24C169.116 120.14 168.613 120.049 168.126 119.974C161.744 118.909 158.808 122.32 155.716 125.923C154.78 127.064 153.772 128.143 152.698 129.152C151.003 130.58 148.853 131.34 146.645 131.29H146.637ZM143.759 105.953L141.5 107.592C139.911 108.741 138.615 110.253 137.716 112.004C136.818 113.755 136.343 115.696 136.33 117.668C136.317 119.64 136.767 121.587 137.642 123.35C138.518 125.113 139.794 126.642 141.368 127.812C144.353 130.109 149.004 130.117 151.552 127.845C152.57 126.888 153.526 125.865 154.413 124.783C157.53 121.155 161.067 117.045 168.398 118.26L169.94 118.526C172.612 119.025 175.943 119.633 177.312 118.617C177.497 118.474 177.65 118.292 177.759 118.084C177.869 117.876 177.933 117.646 177.947 117.411C177.988 117.103 177.799 116.229 175.176 114.881C172.899 113.803 170.558 112.866 168.167 112.077L166.897 111.619C166.716 111.551 166.562 111.423 166.462 111.256C166.361 111.088 166.32 110.891 166.345 110.697C166.37 110.503 166.459 110.323 166.599 110.187C166.738 110.051 166.919 109.966 167.112 109.947C171.004 109.663 174.878 109.157 178.714 108.433C183.29 107.426 183.934 106.269 183.917 105.678C183.914 105.491 183.871 105.307 183.79 105.139C183.709 104.97 183.591 104.822 183.447 104.705C181.344 102.841 173.321 103.407 167.466 103.989C167.251 104.014 167.033 103.956 166.858 103.826C166.684 103.696 166.564 103.504 166.524 103.288C166.485 103.072 166.527 102.85 166.644 102.665C166.761 102.48 166.943 102.347 167.153 102.292C170.122 101.46 172.678 100.86 174.929 100.328C180.536 99.0132 183.01 98.3642 182.779 96.7832C182.738 96.517 182.606 96.1259 181.88 95.7514C177.394 93.4382 160.16 97.141 153.679 100.503C150.327 102.233 147.019 104.05 143.759 105.953Z" fill="#222433"/>
<path d="M177.421 18.9656C178.042 15.6164 177.444 12.1535 175.737 9.21349C174.031 6.27345 171.33 4.05386 168.131 2.96271C164.932 1.87156 161.45 1.9822 158.326 3.27428C155.202 4.56635 152.644 6.95304 151.124 9.99561C149.213 9.5531 147.227 9.55081 145.315 9.98891C143.403 10.427 141.613 11.2942 140.078 12.5261C138.544 13.7581 137.304 15.3231 136.451 17.1048C135.598 18.8866 135.154 20.8394 135.152 22.8182C135.152 23.1843 135.16 23.5421 135.193 23.8999C133.764 26.0569 133.003 28.5944 133.008 31.1891C133.008 35.3329 134.88 38.2785 138.145 40.7998L138.318 40.9246C138.446 41.0224 138.597 41.0823 138.757 41.0975C138.916 41.1128 139.076 41.0828 139.219 41.011C139.363 40.9391 139.483 40.8283 139.567 40.691C139.651 40.5537 139.696 40.3954 139.695 40.2339C139.695 36.3397 139.712 31.2723 139.737 30.8313L139.778 30.5151C139.907 29.7943 140.176 29.1063 140.568 28.4903C140.961 27.8744 141.47 27.3425 142.067 26.9253C142.663 26.508 143.336 26.2134 144.045 26.0584C144.754 25.9033 145.487 25.8909 146.201 26.0218L152.493 27.1784C153.429 27.3517 154.373 27.4767 155.321 27.5528C156.006 27.6027 156.715 27.636 157.408 27.636H157.919C158.562 27.636 159.205 27.6111 159.816 27.5528C160.761 27.4852 161.702 27.3685 162.636 27.2033L169.587 25.9552C170.381 25.8156 171.195 25.853 171.973 26.0646C172.751 26.2762 173.474 26.657 174.091 27.1803C174.707 27.7035 175.203 28.3566 175.544 29.0936C175.884 29.8307 176.06 30.6339 176.06 31.447L175.969 40.209C175.967 40.3704 176.01 40.5292 176.092 40.6676C176.174 40.8059 176.294 40.9182 176.436 40.9918C176.578 41.0654 176.738 41.0973 176.898 41.0839C177.057 41.0706 177.21 41.0125 177.338 40.9162L177.709 40.6417C179.313 39.2996 180.602 37.6155 181.483 35.7105C182.364 33.8055 182.816 31.727 182.805 29.6247C182.807 27.546 182.32 25.4966 181.384 23.645C180.448 21.7933 179.09 20.1924 177.421 18.9739V18.9656Z" fill="#001229"/>
<path d="M131.978 50.1112C131.782 50.1141 131.591 50.0492 131.437 49.9274C131.282 49.8056 131.174 49.6342 131.13 49.4417C131.085 49.2492 131.108 49.0471 131.193 48.8692C131.278 48.6913 131.421 48.5481 131.598 48.4636L134.954 46.7994L129.174 45.2184C129.057 45.1976 128.945 45.1524 128.846 45.0856C128.747 45.0189 128.663 44.932 128.599 44.8306C128.535 44.7292 128.493 44.6155 128.475 44.4967C128.457 44.3779 128.463 44.2566 128.494 44.1405C128.526 44.0245 128.58 43.9163 128.655 43.8227C128.73 43.7292 128.823 43.6524 128.929 43.5972C129.035 43.5421 129.151 43.5098 129.27 43.5024C129.388 43.495 129.508 43.5126 129.619 43.5542L137.61 45.7343C137.776 45.7822 137.924 45.8796 138.034 46.0137C138.144 46.1479 138.212 46.3125 138.228 46.4861C138.244 46.6597 138.208 46.8341 138.124 46.9865C138.04 47.1389 137.913 47.2622 137.758 47.3403L132.365 50.0113C132.247 50.0679 132.117 50.0964 131.986 50.0945L131.978 50.1112Z" fill="#222433"/>
<path d="M183.424 50.1111C183.296 50.112 183.169 50.0836 183.053 50.0279L177.66 47.3486C177.503 47.2718 177.373 47.1484 177.287 46.9949C177.201 46.8414 177.163 46.665 177.179 46.4895C177.196 46.3139 177.264 46.1475 177.377 46.0125C177.489 45.8776 177.64 45.7805 177.809 45.7343L185.782 43.5459C186.002 43.4852 186.237 43.5151 186.435 43.629C186.633 43.7429 186.778 43.9315 186.838 44.1533C186.898 44.3751 186.868 44.6119 186.756 44.8117C186.643 45.0114 186.456 45.1577 186.236 45.2184L180.456 46.7994L183.812 48.4636C183.989 48.5481 184.132 48.6912 184.217 48.8692C184.302 49.0471 184.325 49.2491 184.28 49.4417C184.236 49.6342 184.128 49.8056 183.973 49.9274C183.819 50.0492 183.628 50.114 183.432 50.1111H183.424Z" fill="#222433"/>
<path d="M148.429 44.4028C149.613 44.4028 150.573 43.4342 150.573 42.2394C150.573 41.0445 149.613 40.0759 148.429 40.0759C147.245 40.0759 146.285 41.0445 146.285 42.2394C146.285 43.4342 147.245 44.4028 148.429 44.4028Z" fill="#222433"/>
<path d="M167.378 44.4028C168.562 44.4028 169.522 43.4342 169.522 42.2394C169.522 41.0445 168.562 40.0759 167.378 40.0759C166.194 40.0759 165.234 41.0445 165.234 42.2394C165.234 43.4342 166.194 44.4028 167.378 44.4028Z" fill="#222433"/>
<path d="M165.61 59.8132C163.054 72.278 150.298 68.3422 150.627 59.8132H165.61Z" fill="white"/>
<path d="M157.944 68.6167C157.649 68.6154 157.355 68.5959 157.062 68.5585C154.982 68.2724 153.083 67.2145 151.735 65.5912C150.388 63.9679 149.688 61.8959 149.773 59.7798C149.781 59.5562 149.875 59.3445 150.035 59.1893C150.195 59.0342 150.408 58.9476 150.63 58.9478H165.613C165.74 58.9476 165.866 58.976 165.981 59.0311C166.097 59.0862 166.198 59.1664 166.279 59.266C166.359 59.3656 166.417 59.4821 166.447 59.607C166.477 59.7318 166.48 59.862 166.454 59.9879C165.135 66.4033 161.234 68.6167 157.944 68.6167ZM151.504 60.6785C151.629 62.2144 152.268 63.6615 153.318 64.7809C154.367 65.9004 155.764 66.6253 157.276 66.836C159.932 67.1689 163.148 65.6877 164.525 60.6785H151.504Z" fill="#222433"/>
<path d="M171.416 60.462C171.348 60.6124 171.239 60.7402 171.102 60.8301C170.964 60.9201 170.804 60.9685 170.641 60.9696H145.639C145.475 60.9703 145.315 60.9237 145.176 60.8354C145.038 60.747 144.928 60.6205 144.858 60.4709C144.789 60.3213 144.763 60.1547 144.785 59.991C144.806 59.8272 144.874 59.673 144.979 59.5467C145.21 59.2804 145.457 59.0058 145.721 58.7312C148.421 56.0208 152.072 54.4957 155.88 54.4875H160.407C162.476 54.4876 164.52 54.9399 166.399 55.8132C168.278 56.6865 169.947 57.9602 171.292 59.5467C171.396 59.6719 171.463 59.8243 171.485 59.9863C171.507 60.1483 171.483 60.3132 171.416 60.462Z" fill="#001229"/>
<path d="M-23.438 166.08C-25.4628 164.185 -27.0016 161.822 -27.9222 159.194C-28.8429 156.567 -29.1179 153.753 -28.7237 150.994L-26.2664 133.77C-25.9251 131.383 -25.092 129.095 -23.8209 127.052C-22.5498 125.01 -20.8688 123.259 -18.8862 121.913L19.8534 95.8014C21.6754 94.4277 23.7053 93.3599 25.8647 92.6394L48.5989 92.6062C53.7114 94.6832 58.0352 98.3497 60.9432 103.074L83.9412 135.775" fill="white"/>
<path d="M-23.4379 166.945C-23.6553 166.945 -23.8645 166.862 -24.0234 166.712C-26.1466 164.719 -27.7604 162.237 -28.7268 159.479C-29.6931 156.72 -29.9835 153.766 -29.5729 150.869L-27.1239 133.645C-26.7635 131.138 -25.8878 128.735 -24.5529 126.59C-23.2181 124.445 -21.4536 122.605 -19.3726 121.188L19.3505 95.0938C21.2409 93.6728 23.3459 92.5686 25.5845 91.8236C25.672 91.7924 25.7638 91.7756 25.8566 91.7738L48.6073 91.7488C48.7144 91.7485 48.8206 91.7682 48.9206 91.807C54.1951 93.9518 58.6589 97.7307 61.6689 102.599V102.608L84.634 135.267C84.6989 135.36 84.7451 135.465 84.7699 135.576C84.7947 135.687 84.7977 135.802 84.7785 135.914C84.7594 136.026 84.7185 136.133 84.6584 136.229C84.5982 136.325 84.5199 136.408 84.4278 136.474C84.3358 136.539 84.2318 136.586 84.1219 136.611C84.012 136.636 83.8983 136.639 83.7873 136.62C83.6763 136.6 83.5701 136.559 83.4748 136.499C83.3796 136.438 83.2971 136.359 83.2321 136.266L60.2423 103.564C60.2243 103.538 60.2078 103.51 60.1929 103.481C57.4074 98.9888 53.2985 95.4885 48.4424 93.4712L26.005 93.5045C23.9774 94.1962 22.071 95.2072 20.3565 96.5L20.3235 96.5167L-18.4078 122.628C-20.2898 123.909 -21.8855 125.573 -23.0926 127.513C-24.2996 129.454 -25.0914 131.627 -25.4169 133.894L-27.8742 151.119C-28.2454 153.741 -27.9817 156.414 -27.1057 158.911C-26.2297 161.408 -24.7675 163.653 -22.8442 165.456C-22.7179 165.575 -22.6302 165.73 -22.5925 165.9C-22.5549 166.07 -22.5691 166.248 -22.6333 166.41C-22.6975 166.571 -22.8086 166.71 -22.9522 166.807C-23.0958 166.904 -23.2651 166.955 -23.4379 166.954V166.945Z" fill="#222433"/>
<path d="M49.1758 87.7382H62.7569L62.6745 66.3117V50.7682C62.6745 36.3397 50.8662 24.6404 36.3038 24.6404C21.7414 24.6404 9.94141 37.5378 9.94141 51.9663V87.7547L25.9963 87.7382" fill="#E0E8F4"/>
<path d="M9.94397 88.6203C9.83135 88.6214 9.7196 88.6001 9.61514 88.5576C9.51068 88.5152 9.41553 88.4524 9.33513 88.3728C9.25473 88.2932 9.19064 88.1983 9.14655 88.0937C9.10245 87.9892 9.0792 87.8769 9.07812 87.7632V51.9665C9.07812 36.6892 21.5461 23.7834 36.3064 23.7834C51.3141 23.7834 63.5346 35.8905 63.5346 50.7683V66.3119L63.6171 87.7383C63.6171 87.9678 63.5267 88.1879 63.3659 88.3502C63.2051 88.5125 62.9869 88.6036 62.7595 88.6036H49.1701C49.051 88.6155 48.9307 88.602 48.8171 88.5641C48.7034 88.5262 48.5989 88.4648 48.5102 88.3836C48.4215 88.3025 48.3506 88.2036 48.3021 88.0931C48.2536 87.9827 48.2285 87.8633 48.2285 87.7425C48.2285 87.6217 48.2536 87.5022 48.3021 87.3918C48.3506 87.2813 48.4215 87.1824 48.5102 87.1013C48.5989 87.0201 48.7034 86.9587 48.8171 86.9208C48.9307 86.8829 49.051 86.8694 49.1701 86.8813H61.8937L61.8112 66.3201V50.76C61.8112 36.839 50.3658 25.5143 36.3064 25.5143C22.4779 25.5143 10.7933 37.6295 10.7933 51.9748V86.8979L25.9906 86.8729C26.2181 86.8729 26.4362 86.9641 26.597 87.1264C26.7579 87.2886 26.8482 87.5088 26.8482 87.7383C26.8482 87.9678 26.7579 88.1879 26.597 88.3502C26.4362 88.5125 26.2181 88.6036 25.9906 88.6036L9.93571 88.6203H9.94397Z" fill="#222433"/>
<path d="M58.9805 49.9111C60.1099 49.8755 61.2349 50.0692 62.2887 50.4808C63.3425 50.8923 64.3037 51.5133 65.1151 52.3069C65.9265 53.1004 66.5717 54.0504 67.0122 55.1005C67.4528 56.1505 67.6798 57.279 67.6798 58.4193C67.6798 59.5595 67.4528 60.6882 67.0122 61.7382C66.5717 62.7882 65.9265 63.7382 65.1151 64.5318C64.3037 65.3254 63.3425 65.9464 62.2887 66.3579C61.2349 66.7694 60.1099 66.9632 58.9805 66.9275" fill="#E0E8F4"/>
<path d="M58.9826 67.7927C58.7551 67.7927 58.537 67.7015 58.3762 67.5392C58.2153 67.377 58.125 67.1569 58.125 66.9274C58.125 66.6978 58.2153 66.4777 58.3762 66.3154C58.537 66.1531 58.7551 66.062 58.9826 66.062C59.9982 66.0958 61.0102 65.9231 61.9584 65.5543C62.9066 65.1854 63.7716 64.6278 64.5019 63.9148C65.2322 63.2017 65.813 62.3478 66.2096 61.4037C66.6062 60.4595 66.8106 59.4446 66.8106 58.4191C66.8106 57.3937 66.6062 56.3788 66.2096 55.4347C65.813 54.4905 65.2322 53.6365 64.5019 52.9234C63.7716 52.2104 62.9066 51.6529 61.9584 51.284C61.0102 50.9152 59.9982 50.7426 58.9826 50.7764C58.7551 50.7764 58.537 50.6852 58.3762 50.5229C58.2153 50.3607 58.125 50.1405 58.125 49.911C58.125 49.6815 58.2153 49.4614 58.3762 49.2991C58.537 49.1368 58.7551 49.0457 58.9826 49.0457C61.4462 49.0457 63.8089 50.0332 65.551 51.7911C67.293 53.549 68.2717 55.9331 68.2717 58.4191C68.2717 60.9051 67.293 63.2893 65.551 65.0472C63.8089 66.8051 61.4462 67.7927 58.9826 67.7927Z" fill="#222433"/>
<path d="M15.4533 66.9275C14.3238 66.9632 13.1988 66.7694 12.145 66.3579C11.0912 65.9464 10.13 65.3254 9.31862 64.5318C8.50721 63.7382 7.86207 62.7882 7.4215 61.7382C6.98093 60.6882 6.75391 59.5595 6.75391 58.4193C6.75391 57.279 6.98093 56.1505 7.4215 55.1005C7.86207 54.0504 8.50721 53.1004 9.31862 52.3069C10.13 51.5133 11.0912 50.8923 12.145 50.4808C13.1988 50.0692 14.3238 49.8755 15.4533 49.9111" fill="#E0E8F4"/>
<path d="M15.4532 67.7927C12.9896 67.7927 10.6268 66.8051 8.8848 65.0472C7.14276 63.2893 6.16406 60.9051 6.16406 58.4191C6.16406 55.9331 7.14276 53.549 8.8848 51.7911C10.6268 50.0332 12.9896 49.0457 15.4532 49.0457C15.6806 49.0457 15.8987 49.1368 16.0596 49.2991C16.2204 49.4614 16.3108 49.6815 16.3108 49.911C16.3108 50.1405 16.2204 50.3607 16.0596 50.5229C15.8987 50.6852 15.6806 50.7764 15.4532 50.7764C14.4375 50.7426 13.4255 50.9152 12.4773 51.284C11.5291 51.6529 10.6642 52.2104 9.93384 52.9234C9.20352 53.6365 8.62278 54.4905 8.22616 55.4347C7.82955 56.3788 7.62518 57.3937 7.62518 58.4191C7.62518 59.4446 7.82955 60.4595 8.22616 61.4037C8.62278 62.3478 9.20352 63.2017 9.93384 63.9148C10.6642 64.6278 11.5291 65.1854 12.4773 65.5543C13.4255 65.9231 14.4375 66.0958 15.4532 66.062C15.6806 66.062 15.8987 66.1531 16.0596 66.3154C16.2204 66.4777 16.3108 66.6978 16.3108 66.9274C16.3108 67.1569 16.2204 67.377 16.0596 67.5392C15.8987 67.7015 15.6806 67.7927 15.4532 67.7927Z" fill="#222433"/>
<path d="M20.5234 77.9112C21.9902 79.9773 23.9616 81.6255 26.2462 82.6957V93.6544C26.2462 96.6469 27.4242 99.5169 29.5212 101.633C31.6181 103.749 34.4622 104.938 37.4277 104.938C40.3932 104.938 43.2373 103.749 45.3343 101.633C47.4312 99.5169 48.6093 96.6469 48.6093 93.6544V81.9801C50.4316 81.2812 53.6393 78.244 54.3567 76.272" fill="#E0E8F4"/>
<path d="M37.4278 105.761C34.2419 105.761 31.1859 104.487 28.9293 102.218C26.6727 99.9484 25.3995 96.8691 25.3886 93.6543V83.2698C23.1698 82.0942 21.2529 80.4134 19.7896 78.3604C19.6693 78.1651 19.6309 77.9296 19.6827 77.7057C19.7345 77.4817 19.8723 77.2877 20.0658 77.1663C20.2594 77.0449 20.4928 77.0062 20.7147 77.0584C20.9366 77.1107 21.1289 77.2498 21.2491 77.4451C22.6099 79.3465 24.4254 80.8693 26.5266 81.8718C26.6947 81.9305 26.8406 82.0406 26.944 82.1867C27.0475 82.3328 27.1033 82.5077 27.1038 82.6873V93.646C27.1038 96.409 28.1915 99.0587 30.1276 101.012C32.0637 102.966 34.6897 104.064 37.4278 104.064C40.1658 104.064 42.7918 102.966 44.7279 101.012C46.664 99.0587 47.7517 96.409 47.7517 93.646V81.98C47.7521 81.8049 47.805 81.6339 47.9037 81.4898C48.0023 81.3457 48.142 81.2352 48.3042 81.1729C49.8792 80.5655 52.922 77.728 53.5487 75.9723C53.6263 75.756 53.7859 75.5797 53.9923 75.4822C54.1988 75.3847 54.4352 75.3739 54.6495 75.4522C54.8638 75.5306 55.0385 75.6916 55.1352 75.8999C55.2318 76.1082 55.2425 76.3468 55.1649 76.5631C54.4227 78.6183 51.4872 81.4725 49.4751 82.5375V93.6543C49.4642 96.8691 48.191 99.9484 45.9344 102.218C43.6778 104.487 40.6219 105.761 37.436 105.761H37.4278Z" fill="#222433"/>
<path d="M40.9137 70.1481C40.9137 72.7526 39.3552 74.866 37.4256 74.866C35.496 74.866 33.9376 72.7526 33.9376 70.1481C33.9341 69.3666 34.0825 68.592 34.3746 67.8682C34.5357 67.1736 34.9248 66.5544 35.4787 66.1112C36.0326 65.668 36.7187 65.4268 37.4256 65.4268C38.1325 65.4268 38.8186 65.668 39.3725 66.1112C39.9264 66.5544 40.3155 67.1736 40.4766 67.8682C40.7687 68.592 40.9172 69.3666 40.9137 70.1481Z" fill="white"/>
<path d="M37.4278 75.731C35.0365 75.731 33.0822 73.2264 33.0822 70.1476C33.0763 69.2552 33.2444 68.3702 33.5769 67.5432C33.8041 66.6889 34.3042 65.9341 34.9996 65.3958C35.6951 64.8575 36.5472 64.5657 37.4237 64.5657C38.3002 64.5657 39.1523 64.8575 39.8477 65.3958C40.5432 65.9341 41.0433 66.6889 41.2704 67.5432C41.6071 68.3722 41.778 69.2601 41.7734 70.156C41.7734 73.2264 39.8274 75.731 37.4278 75.731ZM37.4278 66.295C36.9083 66.3527 36.417 66.5633 36.0153 66.9006C35.6135 67.238 35.319 67.6872 35.1684 68.1922C34.9193 68.8104 34.7932 69.472 34.7973 70.1393C34.7973 72.2362 36.0013 74.0002 37.4361 74.0002C38.8709 74.0002 40.0583 72.2362 40.0583 70.1476C40.0637 69.4775 39.9376 68.8129 39.6872 68.1922C39.5376 67.6866 39.2433 67.2369 38.8414 66.8994C38.4395 66.5619 37.9477 66.3516 37.4278 66.295Z" fill="#222433"/>
<path d="M40.477 68.1589H34.375C34.5361 67.4643 34.9252 66.8451 35.4791 66.4019C36.033 65.9587 36.7191 65.7175 37.426 65.7175C38.1329 65.7175 38.819 65.9587 39.3729 66.4019C39.9268 66.8451 40.3159 67.4643 40.477 68.1589Z" fill="#222433"/>
<path d="M31.1752 56.227C32.3593 56.227 33.3192 55.2621 33.3192 54.0719C33.3192 52.8816 32.3593 51.9167 31.1752 51.9167C29.9911 51.9167 29.0312 52.8816 29.0312 54.0719C29.0312 55.2621 29.9911 56.227 31.1752 56.227Z" fill="#222433"/>
<path d="M49.5541 56.227C50.7382 56.227 51.6981 55.2621 51.6981 54.0719C51.6981 52.8816 50.7382 51.9167 49.5541 51.9167C48.37 51.9167 47.4102 52.8816 47.4102 54.0719C47.4102 55.2621 48.37 56.227 49.5541 56.227Z" fill="#222433"/>
<path d="M35.7947 62.4758C35.5972 62.4739 35.4063 62.4033 35.2545 62.2758C35.1026 62.1483 34.999 61.9718 34.9612 61.7761C34.9234 61.5804 34.9537 61.3776 35.0469 61.2019C35.1402 61.0261 35.2908 60.8883 35.4732 60.8116L39.4889 59.2223L36.5864 52.7736C36.4923 52.5639 36.4847 52.3252 36.5651 52.1098C36.6455 51.8945 36.8074 51.7202 37.0151 51.6253C37.2229 51.5304 37.4595 51.5227 37.6729 51.6038C37.8863 51.685 38.0591 51.8483 38.1531 52.058L41.4268 59.3388C41.4737 59.4456 41.4988 59.5608 41.5005 59.6776C41.5021 59.7944 41.4804 59.9103 41.4364 60.0184C41.3925 60.1265 41.3274 60.2244 41.2449 60.3064C41.1625 60.3884 41.0645 60.4527 40.9567 60.4954L36.1081 62.4092C36.0087 62.4511 35.9024 62.4737 35.7947 62.4758Z" fill="#222433"/>
<path d="M50.5202 47.4149C50.4788 47.4151 50.4375 47.4123 50.3965 47.4065L44.0471 46.4413C43.9298 46.4313 43.8158 46.397 43.7122 46.3407C43.6086 46.2843 43.5176 46.207 43.4449 46.1136C43.3722 46.0201 43.3193 45.9126 43.2896 45.7977C43.2598 45.6828 43.2538 45.5629 43.272 45.4455C43.2901 45.3282 43.332 45.2158 43.3951 45.1155C43.4581 45.0152 43.541 44.9291 43.6384 44.8625C43.7359 44.7959 43.8459 44.7502 43.9616 44.7284C44.0773 44.7065 44.1962 44.709 44.311 44.7355L50.6521 45.6924C50.8685 45.7227 51.0653 45.8352 51.2023 46.0068C51.3393 46.1785 51.4062 46.3965 51.3894 46.6163C51.3725 46.8361 51.2732 47.0411 51.1117 47.1895C50.9502 47.3379 50.7386 47.4185 50.5202 47.4149Z" fill="#222433"/>
<path d="M24.3315 47.4148C24.1139 47.4162 23.9039 47.334 23.7441 47.1849C23.5844 47.0358 23.4867 46.831 23.471 46.612C23.4553 46.393 23.5226 46.1762 23.6594 46.0054C23.7963 45.8346 23.9923 45.7228 24.2078 45.6924L30.5407 44.7355C30.656 44.7082 30.7756 44.7053 30.8921 44.727C31.0085 44.7487 31.1193 44.7945 31.2173 44.8615C31.3154 44.9285 31.3986 45.0152 31.4618 45.1163C31.525 45.2173 31.5667 45.3305 31.5844 45.4486C31.6022 45.5668 31.5954 45.6873 31.5647 45.8027C31.5339 45.9181 31.4798 46.0258 31.4058 46.1191C31.3318 46.2123 31.2394 46.2891 31.1345 46.3446C31.0296 46.4 30.9145 46.433 30.7963 46.4413L24.4634 47.4065C24.4195 47.4098 24.3754 47.4098 24.3315 47.4065V47.4148Z" fill="#222433"/>
<path d="M63.2194 60.7287H63.1617L58.2388 60.4375C58.072 60.4279 57.9115 60.3695 57.7772 60.2691C57.6428 60.1688 57.5405 60.031 57.4826 59.8728C57.4248 59.7146 57.4141 59.5427 57.4517 59.3784C57.4894 59.2141 57.5738 59.0645 57.6946 58.948L61.5702 55.2369C61.6489 55.147 61.7452 55.0748 61.853 55.0245C61.9608 54.9742 62.0778 54.947 62.1966 54.9447C62.3154 54.9425 62.4333 54.9652 62.5429 55.0114C62.6526 55.0575 62.7515 55.1261 62.8335 55.2129C62.9154 55.2996 62.9786 55.4026 63.0191 55.5153C63.0595 55.628 63.0763 55.7479 63.0684 55.8675C63.0605 55.9871 63.0281 56.1039 62.9732 56.2101C62.9182 56.3164 62.842 56.41 62.7494 56.485L60.3086 58.8232L63.2606 58.9979C63.4881 59.0046 63.7036 59.1021 63.8598 59.269C64.016 59.436 64.1 59.6587 64.0935 59.8882C64.0869 60.1178 63.9903 60.3353 63.8248 60.4929C63.6593 60.6505 63.4386 60.7353 63.2112 60.7287H63.2194Z" fill="#222433"/>
<path d="M12.4925 61.8684C12.2873 61.8707 12.088 61.7988 11.9309 61.6655C11.7739 61.5322 11.6694 61.3464 11.6364 61.142C11.6035 60.9375 11.6443 60.728 11.7515 60.5513C11.8586 60.3747 12.025 60.2427 12.2203 60.1793L14.7601 59.3389L11.8163 57.4584C11.721 57.3972 11.6386 57.3176 11.5738 57.2242C11.5089 57.1309 11.463 57.0256 11.4385 56.9143C11.414 56.8031 11.4114 56.6881 11.431 56.5758C11.4505 56.4635 11.4918 56.3563 11.5524 56.2601C11.6131 56.1639 11.6919 56.0808 11.7844 56.0154C11.8769 55.95 11.9812 55.9035 12.0915 55.8788C12.2018 55.8541 12.3158 55.8515 12.427 55.8713C12.5382 55.891 12.6446 55.9327 12.7399 55.9939L17.2092 58.8562C17.3448 58.945 17.4528 59.0707 17.5207 59.2188C17.5886 59.3668 17.6136 59.5312 17.5929 59.693C17.5722 59.8548 17.5066 60.0073 17.4037 60.1331C17.3008 60.2589 17.1648 60.3528 17.0113 60.4039L12.7564 61.8185C12.6716 61.8492 12.5825 61.866 12.4925 61.8684Z" fill="#222433"/>
<path d="M20.5217 88.2042C20.2943 88.2042 20.0762 88.1131 19.9153 87.9508C19.7545 87.7885 19.6641 87.5683 19.6641 87.3388V45.3015C19.6476 42.4474 22.6574 41.6402 26.1455 40.7C29.782 39.7264 34.309 38.5199 36.7168 34.6923C36.7981 34.5608 36.9129 34.4536 37.0491 34.3822C37.1854 34.3107 37.3383 34.2775 37.4916 34.286C37.645 34.2945 37.7932 34.3444 37.921 34.4305C38.0487 34.5166 38.1511 34.6357 38.2176 34.7755C40.3863 39.2937 45.2102 40.3671 49.0858 41.2242C52.376 41.9564 55.2126 42.5888 55.2126 45.2515V86.7147C55.2126 86.9443 55.1222 87.1644 54.9614 87.3267C54.8006 87.489 54.5824 87.5802 54.355 87.5802C54.1275 87.5802 53.9094 87.489 53.7486 87.3267C53.5878 87.1644 53.4974 86.9443 53.4974 86.7147V45.2515C53.4974 44.045 51.6833 43.5789 48.7147 42.9216C45.0288 42.1061 40.0977 41.0079 37.3518 36.7642C34.5069 40.259 30.153 41.4239 26.5908 42.3808C23.3584 43.2462 21.3711 43.8536 21.3793 45.2931V87.3388C21.3793 87.5683 21.2889 87.7885 21.1281 87.9508C20.9673 88.1131 20.7492 88.2042 20.5217 88.2042Z" fill="#222433"/>
</g>
</svg>
