<svg width="17" height="17" viewBox="0 0 17 17" fill="none" xmlns="http://www.w3.org/2000/svg">
<circle cx="8.5" cy="8.5" r="8.5" fill="#D9D9D9"/>
<g clip-path="url(#clip0_1490_48725)">
<path d="M12.4299 9.97098H12.1544C12.1378 9.92161 12.1133 9.87526 12.0819 9.8337C12.0244 9.75958 11.9463 9.70369 11.8578 9.67277V9.2354C11.8578 9.19205 11.8405 9.15047 11.8099 9.11982C11.7792 9.08916 11.7376 9.07194 11.6943 9.07194C11.6509 9.07194 11.6094 9.08916 11.5787 9.11982C11.5481 9.15047 11.5308 9.19205 11.5308 9.2354V9.67399C11.4269 9.7107 11.3384 9.78142 11.2797 9.87469C11.221 9.96796 11.1955 10.0783 11.2073 10.1879C11.2191 10.2975 11.2676 10.3999 11.3448 10.4785C11.4221 10.5571 11.5236 10.6073 11.633 10.621C11.6536 10.6236 11.6744 10.625 11.6952 10.6251C11.7964 10.625 11.895 10.5934 11.9775 10.5348C12.0599 10.4762 12.1221 10.3934 12.1555 10.2979H12.4299C12.4732 10.2979 12.5148 10.2807 12.5455 10.25C12.5761 10.2194 12.5933 10.1778 12.5933 10.1344C12.5933 10.0911 12.5761 10.0495 12.5455 10.0189C12.5148 9.9882 12.4732 9.97098 12.4299 9.97098ZM11.7945 10.2637C11.7602 10.2902 11.7168 10.302 11.6738 10.2965C11.6308 10.2911 11.5917 10.2688 11.565 10.2347C11.5462 10.2105 11.5346 10.1816 11.5315 10.1512C11.5283 10.1208 11.5338 10.0901 11.5472 10.0626C11.5607 10.0351 11.5815 10.012 11.6075 9.99578C11.6334 9.97959 11.6634 9.97099 11.694 9.97098C11.7008 9.97093 11.7076 9.97136 11.7144 9.97226C11.7465 9.97628 11.7767 9.98972 11.8012 10.0109C11.8256 10.0321 11.8433 10.06 11.8519 10.0912C11.8604 10.1224 11.8596 10.1555 11.8494 10.1862C11.8392 10.2169 11.8201 10.2439 11.7945 10.2637ZM14.3282 9.56903C14.2497 9.21734 14.0976 8.88627 13.8819 8.59762C13.6662 8.30897 13.3917 8.0693 13.0767 7.89439V5.06714C13.0767 5.03284 13.0659 4.99941 13.0459 4.97158C13.0258 4.94376 12.9975 4.92296 12.965 4.91214L10.0226 3.93137C10.0183 3.92985 10.0138 3.93129 10.0094 3.93017C9.98383 3.92553 9.95766 3.92554 9.93212 3.93019C9.92785 3.93129 9.92342 3.92989 9.91921 3.93137L7.02862 4.89489L4.13803 3.93137C4.11352 3.92291 4.08733 3.92053 4.06169 3.92442C4.03606 3.92832 4.01175 3.93837 3.99085 3.95371C3.96981 3.96885 3.95267 3.98877 3.94084 4.01183C3.92902 4.0349 3.92285 4.06045 3.92285 4.08637V11.6056C3.92288 11.6399 3.93368 11.6733 3.95373 11.7012C3.97378 11.729 4.00206 11.7499 4.03459 11.7608L6.9769 12.7415C7.01049 12.7526 7.04675 12.7526 7.08034 12.7415L9.54266 11.9219C10.0587 12.7438 10.6804 13.4945 11.392 14.1546L11.5685 14.3324C11.6027 14.3651 11.648 14.3837 11.6953 14.3844L11.7013 14.3841C11.8868 14.3765 12.4327 13.7433 12.6588 13.4717C12.7632 13.3468 12.8695 13.2249 12.9755 13.1032C13.382 12.676 13.7292 12.1961 14.008 11.6765C14.2188 11.2514 14.3447 10.7893 14.3786 10.3161C14.3948 10.0659 14.3778 9.81475 14.3282 9.56903ZM6.86516 12.3597L4.24977 11.4878V4.3132L6.86516 5.18494V12.3597ZM10.1344 4.3132L12.7498 5.18494V7.73378C12.2991 7.54498 11.8065 7.47877 11.322 7.54188C10.8946 7.5994 10.4873 7.75886 10.1344 8.00681V4.3132ZM7.19208 12.3597V5.18494L9.80747 4.3132V8.27441C9.4792 8.58934 9.2388 8.98447 9.11002 9.42077C8.98124 9.85706 8.96853 10.3194 9.07317 10.7621C9.14532 11.0618 9.25085 11.3525 9.38778 11.6287L7.19208 12.3597ZM13.7143 11.5334C13.4481 12.0272 13.1167 12.483 12.729 12.8884C12.6218 13.0116 12.5138 13.1355 12.4075 13.2626C12.2789 13.4174 11.8903 13.8513 11.7115 14.0125L11.6241 13.9241C10.7167 13.011 9.6887 11.9763 9.39179 10.6887C9.31724 10.375 9.3099 10.0491 9.37026 9.73237C9.43062 9.41565 9.55732 9.11529 9.74202 8.85102C9.92916 8.58302 10.1701 8.35699 10.4496 8.18738C10.729 8.01776 11.0407 7.90828 11.3648 7.86592C11.4704 7.852 11.5767 7.84502 11.6831 7.845C12.0795 7.84582 12.4699 7.94179 12.8215 8.12485C12.8342 8.13408 12.8482 8.14137 12.863 8.14648C13.1506 8.29634 13.4021 8.50715 13.5998 8.7642C13.7976 9.02125 13.9369 9.31835 14.008 9.63477C14.0519 9.85235 14.0668 10.0748 14.0524 10.2963C14.021 10.7267 13.9062 11.1469 13.7143 11.5334ZM11.6943 8.1729C11.3063 8.1729 10.9271 8.28795 10.6045 8.50348C10.282 8.71902 10.0305 9.02537 9.88207 9.38379C9.73361 9.74222 9.69476 10.1366 9.77045 10.5171C9.84614 10.8976 10.033 11.2471 10.3073 11.5215C10.5816 11.7958 10.9311 11.9826 11.3116 12.0583C11.6921 12.134 12.0865 12.0951 12.4449 11.9467C12.8034 11.7982 13.1097 11.5468 13.3253 11.2242C13.5408 10.9016 13.6558 10.5224 13.6558 10.1344C13.6553 9.61438 13.4484 9.11579 13.0807 8.74805C12.713 8.38032 12.2144 8.17347 11.6943 8.1729ZM11.6943 11.7691C11.371 11.7691 11.055 11.6732 10.7862 11.4936C10.5173 11.314 10.3078 11.0587 10.1841 10.76C10.0604 10.4613 10.028 10.1326 10.0911 9.81555C10.1542 9.49846 10.3098 9.2072 10.5384 8.97859C10.7671 8.74999 11.0583 8.59431 11.3754 8.53124C11.6925 8.46816 12.0211 8.50053 12.3198 8.62425C12.6185 8.74797 12.8738 8.95749 13.0534 9.2263C13.233 9.49511 13.3289 9.81115 13.3289 10.1344C13.3284 10.5678 13.156 10.9833 12.8496 11.2897C12.5431 11.5962 12.1277 11.7685 11.6943 11.7691Z" fill="#333333"/>
</g>
<defs>
<clipPath id="clip0_1490_48725">
<rect width="10.4615" height="10.4615" fill="white" transform="translate(3.92285 3.9231)"/>
</clipPath>
</defs>
</svg>
