<svg width="17" height="17" viewBox="0 0 17 17" fill="none" xmlns="http://www.w3.org/2000/svg">
<g id="Group 238368">
<circle id="Ellipse 961" cx="8.5" cy="8.5" r="8.5" fill="#D9D9D9"/>
<path id="57  Write, Basic, Essential, Pencil" d="M11.3518 10.2603H11.9978V12.0206C11.9978 12.3007 11.8957 12.5694 11.714 12.7675C11.5323 12.9655 11.2858 13.0768 11.0288 13.0768H4.89185C4.63485 13.0768 4.38839 12.9655 4.20666 12.7675C4.02494 12.5694 3.92285 12.3007 3.92285 12.0206V4.97919C3.92285 4.69906 4.02494 4.43041 4.20666 4.23233C4.38839 4.03425 4.63485 3.92297 4.89185 3.92297H11.0288C11.2858 3.92297 11.5323 4.03425 11.714 4.23233C11.8957 4.43041 11.9978 4.69906 11.9978 4.97919V5.38407H11.3518V4.97919C11.3518 4.88581 11.3178 4.79626 11.2572 4.73023C11.1966 4.66421 11.1145 4.62712 11.0288 4.62712H4.89185C4.80618 4.62712 4.72403 4.66421 4.66345 4.73023C4.60288 4.79626 4.56885 4.88581 4.56885 4.97919V12.0206C4.56885 12.114 4.60288 12.2035 4.66345 12.2696C4.72403 12.3356 4.80618 12.3727 4.89185 12.3727H11.0288C11.1145 12.3727 11.1966 12.3356 11.2572 12.2696C11.3178 12.2035 11.3518 12.114 11.3518 12.0206V10.2603ZM13.0766 7.14794C13.0769 7.28719 13.052 7.42514 13.0032 7.55384C12.9544 7.68254 12.8828 7.79945 12.7924 7.89786L12.2788 8.45413L9.83372 11.1228C9.78381 11.1766 9.71918 11.2112 9.64961 11.2214L8.58372 11.3904H8.53527C8.45007 11.3891 8.3688 11.3511 8.30917 11.2848C8.27323 11.2463 8.24604 11.1992 8.22978 11.1473C8.21352 11.0953 8.20862 11.0399 8.2155 10.9855L8.37054 9.82368C8.37988 9.74786 8.41163 9.67741 8.46098 9.623L10.9093 6.95783L11.4196 6.38747C11.605 6.19606 11.8507 6.08938 12.106 6.08938C12.3614 6.08938 12.607 6.19606 12.7924 6.38747C12.8839 6.48712 12.9563 6.60575 13.0051 6.73637C13.0539 6.86698 13.0782 7.00692 13.0766 7.14794ZM11.5941 8.20416L11.1386 7.70774L8.99393 10.042L8.91641 10.6123L9.45258 10.5278L11.5941 8.20416ZM12.4306 7.14794C12.4294 7.05508 12.3946 6.9665 12.3337 6.90149C12.2732 6.83592 12.1913 6.79911 12.106 6.79911C12.0207 6.79911 11.9388 6.83592 11.8783 6.90149L11.5941 7.21132L12.0495 7.70774L12.3337 7.39791C12.3642 7.36531 12.3885 7.32642 12.4052 7.28351C12.4218 7.24061 12.4305 7.19453 12.4306 7.14794ZM7.79883 11.3165V10.6123H5.53784V11.3165H7.79883Z" fill="#202020"/>
</g>
</svg>
