<svg width="17" height="17" viewBox="0 0 17 17" fill="none" xmlns="http://www.w3.org/2000/svg">
<g id="Group 238356">
<circle id="Ellipse 964" cx="8.5" cy="8.5" r="8.5" fill="#D9D9D9"/>
<path id="Vector" fill-rule="evenodd" clip-rule="evenodd" d="M7.53856 8.43442V3.19668C7.53856 2.87569 7.81406 2.61548 8.15394 2.61548H12.4616C12.8015 2.61548 13.077 2.87569 13.077 3.19668V12.7864C13.077 12.9469 12.9392 13.077 12.7693 13.077C12.5994 13.077 12.4616 12.9469 12.4616 12.7864V3.19668H8.15394V8.43442H9.38471C9.72459 8.43442 10.0001 8.69462 10.0001 9.01561V12.7864C10.0001 12.9469 9.86231 13.077 9.6924 13.077C9.52249 13.077 9.38471 12.9469 9.38471 12.7864V9.01561H3.23086V12.7864C3.23086 12.9469 3.0931 13.077 2.92317 13.077C2.75324 13.077 2.61548 12.9469 2.61548 12.7864V9.01561C2.61548 8.69462 2.891 8.43442 3.23086 8.43442H7.53856ZM4.46163 12.7864C4.46163 12.9469 4.32387 13.077 4.15394 13.077C3.98401 13.077 3.84625 12.9469 3.84625 12.7864V11.6281C3.84625 10.8256 4.53504 10.1751 5.38471 10.1751C6.23438 10.1751 6.92317 10.8256 6.92317 11.6281V12.7864C6.92317 12.9469 6.78539 13.077 6.61548 13.077C6.44555 13.077 6.30779 12.9469 6.30779 12.7864V11.6281C6.30779 11.1466 5.89451 10.7563 5.38471 10.7563C4.87491 10.7563 4.46163 11.1466 4.46163 11.6281V12.7864ZM9.38471 4.94026C9.2148 4.94026 9.07702 4.81016 9.07702 4.64967C9.07702 4.48917 9.2148 4.35907 9.38471 4.35907H11.2309C11.4008 4.35907 11.5386 4.48917 11.5386 4.64967C11.5386 4.81016 11.4008 4.94026 11.2309 4.94026H9.38471ZM9.38471 6.68385C9.2148 6.68385 9.07702 6.55375 9.07702 6.39326C9.07702 6.23276 9.2148 6.10266 9.38471 6.10266H11.2309C11.4008 6.10266 11.5386 6.23276 11.5386 6.39326C11.5386 6.55375 11.4008 6.68385 11.2309 6.68385H9.38471Z" fill="#403B45"/>
</g>
</svg>
