<svg width="22" height="23" viewBox="0 0 22 23" fill="none" xmlns="http://www.w3.org/2000/svg">
<path d="M15.5782 4.16663H6.41157C2.90074 4.16663 1.9199 5.00996 1.8374 8.29163C3.60657 8.29163 5.03657 9.73079 5.03657 11.5C5.03657 13.2691 3.60657 14.6991 1.8374 14.7083C1.9199 17.99 2.90074 18.8333 6.41157 18.8333H15.5782C19.2449 18.8333 20.1616 17.9166 20.1616 14.25V8.74996C20.1616 5.08329 19.2449 4.16663 15.5782 4.16663Z" stroke="white" stroke-width="1.5" stroke-linecap="round" stroke-linejoin="round"/>
<path d="M8.24341 4.16663V7.37496" stroke="white" stroke-width="1.5" stroke-linecap="round" stroke-linejoin="round"/>
<path d="M8.24341 15.625V18.8333" stroke="white" stroke-width="1.5" stroke-linecap="round" stroke-linejoin="round"/>
<path d="M13.7725 9.05248L14.3409 10.1983C14.3959 10.3083 14.5059 10.3908 14.625 10.4091L15.89 10.5925C16.2017 10.6383 16.33 11.0233 16.1009 11.2433L15.1842 12.1325C15.0925 12.215 15.0559 12.3433 15.0742 12.4716L15.2942 13.7275C15.3492 14.0391 15.0192 14.2775 14.7442 14.1308L13.6167 13.535C13.5067 13.48 13.3692 13.48 13.2592 13.535L12.1317 14.1308C11.8475 14.2775 11.5267 14.0391 11.5817 13.7275L11.8017 12.4716C11.82 12.3433 11.7834 12.2241 11.6917 12.1325L10.7842 11.2433C10.555 11.0233 10.6834 10.6383 10.995 10.5925L12.26 10.4091C12.3884 10.3908 12.4892 10.3175 12.5442 10.1983L13.1034 9.05248C13.2317 8.76831 13.635 8.76831 13.7725 9.05248Z" stroke="white" stroke-width="1.5" stroke-linecap="round" stroke-linejoin="round"/>
</svg>
