<svg width="61" height="51" viewBox="0 0 61 51" fill="none" xmlns="http://www.w3.org/2000/svg">
<g id="Upload icon">
<path id="Vector" d="M31.5187 12.397L31.6082 12.4226L31.6125 12.4179C31.9975 12.4806 32.3832 12.2597 32.4994 11.8836C33.5206 8.593 36.7406 6.28817 40.3346 6.28817C40.765 6.28817 41.1248 5.95187 41.1248 5.52417C41.1248 5.09645 40.765 4.76016 40.3346 4.76016C35.9082 4.76016 32.1829 7.58695 30.9859 11.4448C30.8583 11.8551 31.104 12.2784 31.5187 12.397Z" fill="#2DC3C3" stroke="#F9FFF9" stroke-width="0.3"/>
<path id="Vector_2" d="M49.2972 35.6105H45.456C45.1025 35.6105 44.8157 35.3355 44.8157 34.9965C44.8157 34.6575 45.1025 34.3825 45.456 34.3825H49.2972C54.5922 34.3825 58.9005 30.2506 58.9005 25.1725C58.9005 20.0943 54.5922 15.9624 49.2972 15.9624H49.2049C49.0192 15.9624 48.8427 15.8852 48.721 15.7506C48.5994 15.616 48.5445 15.4374 48.571 15.2611C48.6282 14.8787 48.657 14.4945 48.657 14.1204C48.657 9.71936 44.9231 6.13835 40.3341 6.13835C38.5488 6.13835 36.8463 6.67341 35.4103 7.68606C35.0948 7.90842 34.6467 7.80974 34.4642 7.47686C30.3975 0.0500942 19.7756 -0.947245 14.2687 5.51339C11.9488 8.23516 11.0373 11.7758 11.7677 15.2265C11.8482 15.6076 11.5441 15.9629 11.1403 15.9629H10.8838C5.58875 15.9629 1.2805 20.0947 1.2805 25.1729C1.2805 30.2511 5.58875 34.383 10.8838 34.383H14.725C15.0785 34.383 15.3652 34.6579 15.3652 34.997C15.3652 35.336 15.0785 35.611 14.725 35.611H10.8838C4.88259 35.611 0 30.9283 0 25.1729C0 19.5789 4.61227 14.9984 10.3812 14.7458C9.83929 11.1657 10.8755 7.55446 13.2772 4.73625C19.1732 -2.18135 30.4723 -1.40598 35.2487 6.30765C36.7725 5.39146 38.5161 4.91084 40.3339 4.91084C45.8937 4.91084 50.2994 9.44922 49.9139 14.7515C55.6297 15.059 60.1807 19.6153 60.1807 25.1724C60.1807 30.9283 55.2981 35.6105 49.2969 35.6105L49.2972 35.6105Z" fill="#2DC3C3"/>
<path id="Vector_3" d="M13.849 34.6498C13.849 43.2026 21.1023 50.15 30.0047 50.15C38.9071 50.15 46.1603 43.2025 46.1603 34.6498C46.1603 26.0969 38.9071 19.1495 30.0047 19.1495C21.1022 19.1495 13.849 26.097 13.849 34.6498ZM15.4298 34.6498C15.4298 26.9517 21.9622 20.6778 30.0047 20.6778C38.047 20.6778 44.5796 26.9516 44.5796 34.6498C44.5796 42.3478 38.047 48.6217 30.0047 48.6217C21.9623 48.6217 15.4298 42.3479 15.4298 34.6498Z" fill="#2DC3C3" stroke="#F9FFF9" stroke-width="0.3"/>
<g id="arrow">
<path id="Vector_4" d="M29.6784 40.8292C29.6784 41.1661 29.9614 41.4287 30.2971 41.4287C30.6327 41.4287 30.9158 41.1665 30.9158 40.8292V29.1416C30.9158 28.8047 30.6328 28.5421 30.2971 28.5421C29.9614 28.5421 29.6784 28.8047 29.6784 29.1416V40.8292Z" fill="#2DC3C3" stroke="#2DC3C3" stroke-width="0.3"/>
<path id="Vector_5" d="M33.6115 33.1652C33.7326 33.2813 33.8907 33.3386 34.0467 33.3386H34.0468C34.2026 33.3386 34.3609 33.2818 34.4822 33.165C34.7267 32.9303 34.7266 32.5475 34.482 32.3129L30.7323 28.7168L30.6293 28.8242L30.7323 28.7168C30.4913 28.4856 30.1027 28.4854 29.8618 28.7168C29.8618 28.7168 29.8618 28.7168 29.8618 28.7168C29.8617 28.7168 29.8617 28.7169 29.8617 28.7169L26.1121 32.3129C25.8674 32.5476 25.8674 32.9305 26.1121 33.1652C26.3532 33.3964 26.7419 33.3965 26.9828 33.1651L30.2971 29.9865L33.6115 33.1652Z" fill="#2DC3C3" stroke="#2DC3C3" stroke-width="0.3"/>
</g>
</g>
</svg>
