<svg width="18" height="13" viewBox="0 0 18 13" fill="none" xmlns="http://www.w3.org/2000/svg">
<path fill-rule="evenodd" clip-rule="evenodd" d="M13.7929 12H4.20711L3.35355 12.8536C3.15829 13.0488 2.84171 13.0488 2.64645 12.8536C2.45118 12.6583 2.45118 12.3417 2.64645 12.1464L2.79289 12H2.5C1.39543 12 0.5 11.1046 0.5 10V9C0.5 7.8954 1.39543 7 2.5 7H3.76756C3.59739 6.7058 3.5 6.3643 3.5 6C3.5 4.8954 4.39543 4 5.5 4H7.5C8.0973 4 8.6335 4.2619 9 4.6771C9.3665 4.2619 9.9027 4 10.5 4H12.5C13.6046 4 14.5 4.8954 14.5 6C14.5 6.3643 14.4026 6.7058 14.2324 7H15.5C16.6046 7 17.5 7.8954 17.5 9V10C17.5 11.1046 16.6046 12 15.5 12H15.2071L15.3536 12.1464C15.5488 12.3417 15.5488 12.6583 15.3536 12.8536C15.1583 13.0488 14.8417 13.0488 14.6464 12.8536L13.7929 12ZM15.5 8H2.5C1.94772 8 1.5 8.4477 1.5 9V10C1.5 10.5523 1.94772 11 2.5 11H15.5C16.0523 11 16.5 10.5523 16.5 10V9C16.5 8.4477 16.0523 8 15.5 8ZM12.5 7C13.0523 7 13.5 6.5523 13.5 6C13.5 5.4477 13.0523 5 12.5 5H10.5C9.9477 5 9.5 5.4477 9.5 6C9.5 6.5523 9.9477 7 10.5 7H12.5ZM5.5 7H7.5C8.0523 7 8.5 6.5523 8.5 6C8.5 5.4477 8.0523 5 7.5 5H5.5C4.94772 5 4.5 5.4477 4.5 6C4.5 6.5523 4.94772 7 5.5 7ZM2.5 5.5C2.5 5.7761 2.27614 6 2 6C1.72386 6 1.5 5.7761 1.5 5.5V2.5C1.5 1.1384 2.4375 0 3.64706 0H14.3529C15.5625 0 16.5 1.1384 16.5 2.5V5.5C16.5 5.7761 16.2761 6 16 6C15.7239 6 15.5 5.7761 15.5 5.5V2.5C15.5 1.65246 14.9627 1 14.3529 1H3.64706C3.03732 1 2.5 1.65246 2.5 2.5V5.5Z" fill="#333333"/>
</svg>
