<svg width="18" height="12" viewBox="0 0 18 12" fill="none" xmlns="http://www.w3.org/2000/svg">
<path fill-rule="evenodd" clip-rule="evenodd" d="M2.31 3.90832V1.4753C2.31 0.66051 2.97057 0 3.80513 0C4.63969 0 5.31 0.66051 5.31 1.4753V2.13266C5.31 2.40139 5.08687 2.61923 4.81162 2.61923C4.53638 2.61923 4.31324 2.40139 4.31324 2.13266V1.4753C4.31324 1.19796 4.0892 0.97314 3.80513 0.97314C3.52106 0.97314 3.30676 1.19796 3.30676 1.4753V3.90832H9.31C9.31 3.36869 9.7577 2.93124 10.31 2.93124H13.31C13.8623 2.93124 14.31 3.36869 14.31 3.90832H16.31C16.8623 3.90832 17.31 4.3458 17.31 4.8854V7.3281C17.31 9.1507 15.8507 10.6403 14.0114 10.7423L14.4451 11.166C14.6403 11.3568 14.6403 11.6661 14.4451 11.8569C14.2498 12.0477 13.9332 12.0477 13.7379 11.8569L12.6029 10.7479H5.29861L4.16355 11.8569C3.96829 12.0477 3.65171 12.0477 3.45645 11.8569C3.26118 11.6661 3.26118 11.3568 3.45645 11.166L3.8844 10.7479H3.81C1.877 10.7479 0.309998 9.2168 0.309998 7.3281V4.8854C0.309998 4.3458 0.757718 3.90832 1.31 3.90832H2.31ZM10.31 3.90832V4.8854H13.31V3.90832H10.31ZM9.31 4.8854H1.31V7.3281C1.31 8.6772 2.42929 9.7708 3.81 9.7708H13.81C15.1907 9.7708 16.31 8.6772 16.31 7.3281V4.8854H14.31V7.8166C14.31 8.3563 13.8623 8.7937 13.31 8.7937H10.31C9.7577 8.7937 9.31 8.3563 9.31 7.8166V4.8854ZM10.31 4.8854V7.8166H13.31V6.8396H11.5192C11.2431 6.8396 11.0192 6.6208 11.0192 6.351C11.0192 6.0812 11.2431 5.8625 11.5192 5.8625H13.31V4.8854H10.31Z" fill="#333333"/>
</svg>
