<svg width="81" height="80" viewBox="0 0 81 80" fill="none" xmlns="http://www.w3.org/2000/svg">
<path d="M10.406 21.1723L2.98184 39.5397H5.12209L4.23122 56.8543L18.5512 58.6054L75.8648 58.5589L76.1354 39.8873H78.9621L62.089 14.4839L40.9739 21.4231V19.6602L36.569 19.5367L36.3191 23.436L33.4263 24.4434L10.406 21.1723Z" fill="#2DC3C3"/>
<path d="M79.128 39.5822C73.9244 30.853 68.162 22.4695 61.8766 14.4839L38.9107 36.1382C32.4198 35.911 25.7976 35.594 19.3028 35.2622C16.6004 30.1096 13.5183 25.1652 10.0821 20.4701C7.92978 26.9341 5.59435 33.3357 3.07861 39.6671L5.03022 39.7718" stroke="black" stroke-width="0.382222" stroke-linecap="round" stroke-linejoin="round"/>
<path d="M36.4999 23.3511C35.5863 23.7363 34.5522 24.3506 33.5764 24.235C25.6844 23.2864 17.8296 22.05 10.0278 20.5284M61.7107 14.5452C58.0849 15.4699 54.51 16.5839 51.0006 17.8825C49.1883 18.5541 47.3986 19.2711 45.6021 19.9921L40.9009 21.8785" stroke="black" stroke-width="0.382222" stroke-linecap="round" stroke-linejoin="round"/>
<path d="M40.9739 19.7265C40.9542 19.6801 40.9739 19.7719 40.9739 19.7265ZM40.9739 19.7265C40.9739 20.6322 40.9739 21.1112 40.9048 21.8895C39.9023 22.6885 38.6796 23.4055 37.6771 24.2045C37.3079 24.3595 36.9179 24.4593 36.5196 24.5008C36.6312 22.8544 36.8554 21.2455 36.9907 19.6258C37.4608 19.3443 37.5803 19.2406 37.9655 18.9937C39.1112 19.2248 39.9606 19.4806 40.9739 19.7265ZM19.3571 35.3245C19.5266 43.0612 19.2291 50.801 18.4663 58.5018M4.17788 56.5265C4.50874 50.0386 4.82183 45.3413 5.14973 38.8416M1.53195 56.6964C3.73442 57.0519 7.51714 57.5181 9.18331 57.684L18.5512 58.6055M22.5236 58.089L23.2949 41.2909C26.1878 41.3453 32.0495 41.4341 33.3887 41.6998C33.5695 41.7354 33.0371 53.5912 32.7399 58.3319M18.5522 58.6065C29.9201 58.4712 67.1448 58.9265 78.7655 58.5601M75.8727 58.563C75.8727 57.0776 75.8994 45.1981 75.6801 39.5823M75.6761 39.5823C76.8337 39.6633 78.0169 39.5823 79.128 39.5823M60.2302 57.449C60.2302 56.323 60.1878 55.0223 60.1374 53.8924C60.091 52.8277 60.0445 51.763 60.0406 50.6944C60.0406 48.4001 60.2026 46.089 59.8559 43.8213C61.3413 44.0465 62.8436 44.1403 64.3448 44.0988C64.4564 45.3413 64.5423 46.4791 64.5917 47.7245L64.8969 55.2504C64.9196 55.8401 64.9423 56.8356 64.97 57.4292M9.89343 31.8411L9.50825 38.8653C10.3873 38.645 11.2278 38.4801 12.1028 38.2786C12.2766 35.8638 12.4426 33.3374 12.5236 30.9196C12.57 30.9196 12.4544 30.8504 12.408 30.8692C11.5359 31.2277 10.7487 31.4786 9.89343 31.8411ZM53.3423 42.2628C53.3423 45.4875 53.3887 48.7853 53.5003 52.006C51.2949 52.006 49.1883 51.8598 46.9818 51.8875C46.9818 51.9329 47.0055 45.206 46.9285 41.8035C48.568 41.9428 50.1799 42.0969 51.8184 42.2361C52.325 42.2835 52.8347 42.2924 53.3423 42.2628ZM73.3394 43.5783C73.4352 46.1166 73.5399 48.5927 73.5468 51.1882C71.5645 51.0954 67.5349 51.1487 67.5349 51.1882C67.5813 49.927 67.4954 43.3778 67.4806 43.1685L73.3394 43.5783ZM56.9482 34.1403C56.971 34.7823 56.9976 35.4262 57.0292 36.0692C57.8855 36.3191 66.6707 36.9324 66.6707 37.1793C66.6707 37.2416 65.1478 36.9255 65.1478 36.9867C64.9664 34.3872 64.8739 31.7822 64.8702 29.1764C64.8949 27.8529 64.8495 26.5295 64.7349 25.2109C64.3181 25.1181 63.9132 25.0648 63.4974 24.9719C61.1833 24.4583 59.0075 23.8806 56.732 23.2751C56.9986 23.3482 56.8357 31.1013 56.9482 34.1403Z" stroke="black" stroke-width="0.382222" stroke-linecap="round" stroke-linejoin="round"/>
<path d="M56.8949 30.5571L60.6974 31.1586C62.1167 31.3828 65.0164 31.93 66.4357 32.1344M56.9986 33.3146C59.6357 33.8509 63.8283 34.0593 66.5008 34.4524M60.8317 24.6016C60.8989 28.569 60.9087 32.5393 60.8633 36.5127M70.6707 43.8559C70.728 46.005 70.6707 49.0055 70.7547 51.123M47.0095 48.2272C47.9892 48.2845 48.969 48.3458 49.9487 48.323C51.1053 48.2964 52.2628 48.1532 53.4194 48.2342M39.1349 36.1265C38.6213 43.1191 38.7102 50.6598 38.6865 57.6682" stroke="black" stroke-width="0.382222" stroke-linecap="round" stroke-linejoin="round"/>
<path d="M45.3374 35.6563C40.4989 35.4035 22.8544 35.8548 19.0559 35.6385C18.9571 37.119 19.2347 50.1343 18.9769 55.9309C27.2386 55.9032 36.6352 56.2795 44.8811 55.9309C44.9739 49.362 45.3374 42.2894 45.3374 35.6563Z" fill="#2D383F"/>
<path d="M40.0732 31.8174C39.9417 33.0114 39.8708 34.2113 39.8608 35.4124M23.4747 32.087V35.8855" stroke="black" stroke-width="0.201481" stroke-linecap="round" stroke-linejoin="round"/>
<path d="M12.5394 64.8841C12.5394 66.3033 12.2865 33.285 12.6707 23.4194C14.4525 23.3483 16.1591 23.2712 17.9409 23.4539C17.9981 33.4934 18.0544 54.8416 18.1107 64.8841C16.0702 64.9255 14.3833 64.9255 12.5394 64.8841Z" fill="white" stroke="black" stroke-width="0.201481" stroke-linecap="round" stroke-linejoin="round"/>
<path d="M20.886 64.884C17.1765 64.9287 13.4666 64.9287 9.75714 64.884H20.886Z" fill="white"/>
<path d="M20.886 64.884C17.1765 64.9287 13.4666 64.9287 9.75714 64.884" stroke="black" stroke-width="0.201481" stroke-linecap="round" stroke-linejoin="round"/>
<path d="M43.5823 31.6524C41.5082 31.6524 18.0791 31.6426 8.46134 31.5191C8.49425 31.147 8.49854 30.7729 8.47418 30.4001C8.42006 29.4045 8.53018 28.4068 8.8001 27.447C20.4969 27.3226 32.1087 26.9077 43.8055 27.4144C43.7147 28.7784 43.6712 30.2885 43.5823 31.6524Z" fill="white" stroke="black" stroke-width="0.201481" stroke-linecap="round" stroke-linejoin="round"/>
<path d="M10.6954 64.8841C10.6954 66.3033 10.4416 33.285 10.8268 23.4194C12.6085 23.3483 14.3152 23.2712 16.0969 23.4539C16.1532 33.4934 16.2105 54.8416 16.2668 64.8841C14.2263 64.9255 12.5354 64.9255 10.6954 64.8841Z" fill="white" stroke="black" stroke-width="0.201481" stroke-linecap="round" stroke-linejoin="round"/>
<path d="M19.046 64.884C14.9058 64.9295 11.526 64.9295 7.91714 64.884H19.046Z" fill="white"/>
<path d="M19.046 64.884C14.9058 64.9295 11.526 64.9295 7.91714 64.884" stroke="black" stroke-width="0.201481" stroke-linecap="round" stroke-linejoin="round"/>
<path d="M41.7463 31.6524C39.6722 31.6524 16.2431 31.6426 6.62531 31.5191C6.65772 31.147 6.66202 30.7729 6.63815 30.4001C6.58403 29.4045 6.69415 28.4068 6.96407 27.447C18.6609 27.3226 30.2727 26.9077 41.9665 27.4144C41.8698 28.7784 41.8273 30.2885 41.7463 31.6524Z" fill="white" stroke="black" stroke-width="0.201481" stroke-linecap="round" stroke-linejoin="round"/>
<path d="M26.4979 47.6938C26.1167 47.6938 25.7996 47.6414 25.5478 47.5347C25.3227 47.4443 25.1254 47.2961 24.9759 47.1051C24.8516 46.9439 24.7799 46.7484 24.7705 46.5451C24.7704 46.5301 24.7734 46.5153 24.7794 46.5015C24.7853 46.4877 24.7941 46.4753 24.805 46.4651C24.8167 46.4527 24.8308 46.4428 24.8464 46.436C24.862 46.4292 24.8789 46.4257 24.8959 46.4256H25.6169C25.6586 46.4226 25.7003 46.4322 25.7364 46.4533C25.7679 46.473 25.7953 46.4984 25.8174 46.5283C25.847 46.5856 25.8895 46.6409 25.9428 46.6942C26.0063 46.7514 26.08 46.796 26.1601 46.8256C26.252 46.8552 26.3646 46.871 26.4979 46.871C26.7181 46.871 26.8841 46.8365 26.9947 46.7683C27.1092 46.6992 27.1665 46.6063 27.1665 46.4878C27.1675 46.4489 27.1598 46.4102 27.1439 46.3747C27.128 46.3391 27.1044 46.3076 27.0747 46.2824C26.9879 46.212 26.8868 46.1614 26.7784 46.1342C26.602 46.077 26.4222 46.0309 26.2401 45.996C25.9843 45.9459 25.7348 45.8674 25.4964 45.7619C25.3114 45.6765 25.1518 45.5444 25.0332 45.3787C24.9216 45.201 24.8658 44.9939 24.8732 44.7841C24.8732 44.551 24.9384 44.3436 25.0678 44.1609C25.2011 43.9772 25.3858 43.835 25.6228 43.7313C25.8589 43.6286 26.1394 43.5772 26.4623 43.5772C26.726 43.5772 26.9562 43.6118 27.1547 43.6799C27.34 43.7393 27.5128 43.8324 27.6643 43.9545C27.8016 44.0691 27.9043 44.1915 27.9725 44.3199C28.0411 44.4325 28.0805 44.5605 28.087 44.6923C28.087 44.7219 28.0762 44.7515 28.0534 44.7782C28.0422 44.7895 28.0288 44.7984 28.0141 44.8044C27.9993 44.8103 27.9834 44.8132 27.9675 44.8128H27.212C27.1745 44.8137 27.1373 44.806 27.1033 44.79C27.0709 44.7724 27.0436 44.7465 27.0243 44.715C26.9936 44.6215 26.9277 44.5435 26.8406 44.4977C26.7274 44.4282 26.596 44.3945 26.4633 44.4009C26.2954 44.4009 26.1641 44.4305 26.0683 44.4918C25.9774 44.5491 25.931 44.6389 25.931 44.7614C25.9304 44.8349 25.9571 44.906 26.006 44.9609C26.0787 45.03 26.1667 45.0807 26.2628 45.1091C26.3853 45.1515 26.5512 45.196 26.7606 45.2414C27.1073 45.3066 27.3878 45.3876 27.6011 45.4873C27.8144 45.5821 27.9715 45.7086 28.0702 45.8646C28.169 46.0167 28.2184 46.2103 28.2184 46.4424C28.2184 46.7012 28.1443 46.9263 27.9962 47.117C27.851 47.3046 27.6485 47.4468 27.3897 47.5456C27.13 47.6444 26.8327 47.6938 26.4979 47.6938ZM30.4268 47.6938C30.1133 47.7011 29.8018 47.6429 29.5122 47.5229C29.2626 47.4168 29.0511 47.2374 28.9058 47.0083C28.7606 46.7762 28.6806 46.4858 28.6658 46.1392C28.6582 45.8094 28.6582 45.4794 28.6658 45.1496C28.6806 44.8068 28.7606 44.5184 28.9058 44.2863C29.0539 44.0493 29.2584 43.8725 29.5181 43.754C29.8048 43.6305 30.1147 43.5702 30.4268 43.5772C30.7695 43.5772 31.0707 43.6365 31.3305 43.755C31.5932 43.8735 31.7996 44.0503 31.9478 44.2863C32.0959 44.5184 32.1769 44.8068 32.1878 45.1496C32.2026 45.4793 32.2026 45.8095 32.1878 46.1392C32.1729 46.4858 32.0929 46.7762 31.9478 47.0083C31.8024 47.2373 31.591 47.4168 31.3413 47.5229C31.0518 47.6432 30.7403 47.7008 30.4268 47.6938ZM30.4268 46.871C30.5168 46.8746 30.6066 46.8603 30.691 46.8289C30.7754 46.7975 30.8528 46.7498 30.9186 46.6883C31.048 46.5658 31.1162 46.3723 31.1241 46.1056C31.1382 45.793 31.1382 45.4799 31.1241 45.1673C31.1236 45.0165 31.0884 44.8678 31.0213 44.7328C30.9707 44.6251 30.8865 44.5367 30.7813 44.4809C30.6714 44.4259 30.5497 44.3985 30.4268 44.4009C30.3059 44.3986 30.1862 44.4257 30.0781 44.4799C29.9716 44.5366 29.8853 44.6249 29.8312 44.7328C29.7645 44.8679 29.7297 45.0166 29.7295 45.1673C29.7219 45.48 29.7219 45.7929 29.7295 46.1056C29.7404 46.3723 29.8085 46.5658 29.9349 46.6883C30.0006 46.75 30.078 46.7979 30.1624 46.8293C30.2469 46.8607 30.3368 46.8749 30.4268 46.871ZM33.0046 47.6375C32.9858 47.6381 32.9671 47.6349 32.9497 47.6281C32.9322 47.6213 32.9162 47.611 32.9028 47.5979C32.8893 47.5844 32.8787 47.5682 32.8718 47.5503C32.8648 47.5325 32.8616 47.5134 32.8623 47.4942V43.7777C32.8623 43.7352 32.8762 43.7007 32.9018 43.674C32.9155 43.6607 32.9317 43.6503 32.9496 43.6435C32.9674 43.6367 32.9865 43.6336 33.0055 43.6345H33.7601C33.7986 43.6345 33.8302 43.6473 33.8579 43.674C33.8875 43.7017 33.9033 43.7352 33.9033 43.7777V46.7742H35.6297C35.6722 46.7742 35.7068 46.7891 35.7334 46.8197C35.7631 46.8463 35.7789 46.8809 35.7789 46.9224V47.4952C35.7793 47.5145 35.7754 47.5336 35.7676 47.5512C35.7597 47.5688 35.7481 47.5844 35.7334 47.597C35.7198 47.6103 35.7035 47.6207 35.6857 47.6275C35.6679 47.6343 35.6488 47.6373 35.6297 47.6365H33.0055L33.0046 47.6375ZM36.4179 47.6375C36.3988 47.6383 36.3798 47.6353 36.3619 47.6285C36.3441 47.6217 36.3278 47.6113 36.3142 47.5979C36.3008 47.5843 36.2904 47.568 36.2837 47.5502C36.2769 47.5324 36.2738 47.5133 36.2747 47.4942V43.7777C36.2747 43.7352 36.2875 43.7007 36.3142 43.674C36.3278 43.6607 36.3441 43.6503 36.3619 43.6435C36.3798 43.6367 36.3988 43.6336 36.4179 43.6345H37.9043C38.2776 43.6345 38.5957 43.6957 38.8594 43.8172C39.1221 43.9357 39.3236 44.1105 39.4658 44.3436C39.606 44.5718 39.6831 44.8562 39.6939 45.196C39.7005 45.4876 39.7005 45.7794 39.6939 46.071C39.6791 46.4246 39.6031 46.7189 39.4658 46.951C39.3315 47.1844 39.1244 47.3673 38.8762 47.4715C38.6213 47.5821 38.3063 47.6375 37.9329 47.6375H36.4169H36.4179ZM37.2979 46.8137H37.9043C38.0434 46.8186 38.1818 46.7933 38.3102 46.7397C38.4185 46.6886 38.5055 46.6012 38.5562 46.4928C38.6134 46.3831 38.6441 46.2379 38.648 46.0582C38.6547 45.9596 38.6583 45.8608 38.6589 45.7619C38.6627 45.674 38.6627 45.5861 38.6589 45.4982C38.6589 45.4113 38.6549 45.3135 38.648 45.2068C38.6401 44.9481 38.571 44.7594 38.4416 44.6409C38.3162 44.5184 38.1275 44.4582 37.8757 44.4582H37.2979V46.8137Z" fill="white"/>
</svg>
