<svg width="537" height="630" viewBox="0 0 537 630" fill="none" xmlns="http://www.w3.org/2000/svg">
<g filter="url(#filter0_d_3339_3269)">
<path fill-rule="evenodd" clip-rule="evenodd" d="M464.002 84.0841C509.554 133.178 534.045 197.428 532.426 263.593C530.808 329.758 503.203 392.797 455.302 439.721L268.258 622L104.432 462.383V311.193L104.746 256.821C105.252 168.974 177.858 97.5688 268.238 97.5688C292.799 97.5743 317.043 102.971 339.17 113.359C361.296 123.746 380.737 138.858 396.047 157.57C411.358 176.283 422.145 198.116 427.608 221.448C433.07 244.78 433.068 269.011 427.601 292.342C422.134 315.673 411.342 337.504 396.028 356.214C380.714 374.924 361.27 390.032 339.142 400.415C317.013 410.799 292.768 416.191 268.207 416.192C243.646 416.193 219.401 410.802 197.271 400.421V332.268C214.974 348.1 237.717 357.534 261.699 358.994C285.681 360.455 309.452 353.854 329.041 340.294C348.63 326.734 362.852 307.036 369.33 284.49C375.808 261.943 374.151 237.913 364.636 216.414C355.12 194.915 338.322 177.247 317.047 166.362C295.773 155.477 271.309 152.034 247.743 156.608C224.177 161.182 202.934 173.495 187.564 191.492C172.193 209.489 163.625 232.079 163.29 255.491V437.907L268.258 540.195L413.338 398.824C451.644 361.244 473.142 310.427 473.142 257.462C473.142 204.496 451.644 153.68 413.338 116.1L413.257 116.021C333.499 38.3074 202.906 38.3961 123.168 116.09C69.5507 168.284 51.9582 242.923 70.441 309.892V428.592C-21.5682 327.675 -18.0376 171.823 81.1745 75.193C184.079 -25.0643 352.407 -25.0643 455.302 75.193L464.002 83.6701V84.0841Z" fill="#2DC3C3"/>
</g>
<defs>
<filter id="filter0_d_3339_3269" x="0" y="0" width="536.501" height="630" filterUnits="userSpaceOnUse" color-interpolation-filters="sRGB">
<feFlood flood-opacity="0" result="BackgroundImageFix"/>
<feColorMatrix in="SourceAlpha" type="matrix" values="0 0 0 0 0 0 0 0 0 0 0 0 0 0 0 0 0 0 127 0" result="hardAlpha"/>
<feOffset dy="4"/>
<feGaussianBlur stdDeviation="2"/>
<feComposite in2="hardAlpha" operator="out"/>
<feColorMatrix type="matrix" values="0 0 0 0 0 0 0 0 0 0 0 0 0 0 0 0 0 0 0.06 0"/>
<feBlend mode="normal" in2="BackgroundImageFix" result="effect1_dropShadow_3339_3269"/>
<feBlend mode="normal" in="SourceGraphic" in2="effect1_dropShadow_3339_3269" result="shape"/>
</filter>
</defs>
</svg>
