<svg width="80" height="81" viewBox="0 0 80 81" fill="none" xmlns="http://www.w3.org/2000/svg">
<path d="M22.8622 13.0449C19.1962 15.1159 15.6342 17.1869 12.1752 19.6099C11.7612 23.2349 11.2022 27.3769 10.7462 30.9599C18.1202 43.8219 26.0102 56.6629 33.9222 69.1939L56.2702 56.1239L34.0262 17.6639C30.4838 15.7228 26.7403 14.1736 22.8622 13.0439V13.0449Z" fill="#2D383F"/>
<path d="M38.7351 49.8699C43.6811 46.5669 44.3031 38.8149 40.1241 32.5559C35.9441 26.2959 28.5461 23.8989 23.6001 27.2019C18.6531 30.5049 18.0301 38.2569 22.2101 44.5159C26.3901 50.7759 33.7891 53.1729 38.7351 49.8699ZM22.5301 22.5099C22.5998 22.3102 22.628 22.0983 22.6129 21.8873C22.5977 21.6763 22.5397 21.4707 22.4422 21.2829C22.3448 21.0952 22.21 20.9293 22.0462 20.7955C21.8824 20.6617 21.693 20.5628 21.4895 20.5048C21.2861 20.4468 21.073 20.431 20.8632 20.4583C20.6535 20.4856 20.4515 20.5555 20.2697 20.6637C20.088 20.7718 19.9302 20.916 19.8061 21.0873C19.682 21.2586 19.5942 21.4534 19.5481 21.6599C19.4596 21.9103 19.4368 22.1792 19.4819 22.4409C19.527 22.7027 19.6385 22.9485 19.8058 23.1548C19.9731 23.3611 20.1905 23.521 20.4373 23.6192C20.684 23.7175 20.9519 23.7508 21.2151 23.7159C21.5317 23.6744 21.8278 23.5364 22.0631 23.3206C22.2984 23.1048 22.4615 22.8217 22.5301 22.5099Z" fill="white" stroke="#1A1A1A" stroke-width="0.605" stroke-miterlimit="10"/>
<path d="M35.2882 40.073C35.0699 39.4289 34.7557 38.8214 34.3562 38.271C34.1583 37.9956 33.9049 37.7648 33.6122 37.5936C33.3195 37.4224 32.9942 37.3145 32.6572 37.277C32.3153 37.2591 31.9774 37.3579 31.6991 37.5572C31.4207 37.7565 31.2183 38.0445 31.1252 38.374C31.0952 38.69 31.1372 39.009 31.2492 39.306C31.6222 40.528 32.4922 41.709 32.2642 42.972C32.1198 43.5788 31.7948 44.1276 31.3322 44.546C31.0965 44.8024 30.8074 45.004 30.4854 45.1365C30.1633 45.2691 29.8161 45.3293 29.4682 45.313C29.104 45.2132 28.7638 45.0406 28.4682 44.8056C28.1725 44.5707 27.9276 44.2782 27.7482 43.946C27.126 43.0219 26.6837 41.9889 26.4442 40.901M36.6552 38.002L25.6782 44.464" stroke="#1A1A1A" stroke-width="0.605" stroke-miterlimit="10" stroke-linecap="round"/>
<path d="M17.4362 13.3549C15.5349 17.0739 13.8139 20.8823 12.2792 24.7669L17.4152 35.0189C30.7332 41.5019 44.4852 47.6949 58.0722 53.6589L69.2152 30.2349L29.2002 10.9109C25.2029 11.3039 21.2592 12.1232 17.4362 13.3549Z" fill="white"/>
<path d="M17.3522 13.4999C15.4472 17.2079 13.7482 21.0199 12.1952 24.8919L17.3312 35.1239C30.6492 41.5859 44.3602 47.7989 57.9262 53.7639L69.0682 30.3599L29.0752 11.0779C25.0925 11.4663 21.1627 12.2782 17.3522 13.4999Z" fill="#2DC3C3"/>
<path d="M17.4952 13.378C17.4563 13.3905 17.4204 13.4106 17.3895 13.4372C17.3586 13.4639 17.3333 13.4964 17.3152 13.533C15.4979 17.227 13.801 20.9789 12.2272 24.783C12.2105 24.8235 12.2027 24.8672 12.2045 24.9111C12.2062 24.9549 12.2173 24.9978 12.2372 25.037C13.9295 28.4039 15.5982 31.7827 17.2432 35.173C17.2734 35.2348 17.3234 35.2847 17.3852 35.315C30.5832 41.717 44.1872 47.875 57.6322 53.788C57.7051 53.8201 57.7877 53.8226 57.8625 53.7947C57.9372 53.7669 57.9981 53.711 58.0322 53.639L68.9792 30.51C69.0136 30.4368 69.0178 30.3531 68.9908 30.2769C68.9639 30.2007 68.9079 30.1382 68.8352 30.103L29.1522 10.97C29.1012 10.9454 29.0445 10.9353 28.9882 10.941C25.0827 11.3505 21.2308 12.1673 17.4952 13.378Z" stroke="#333333" stroke-width="0.605" stroke-miterlimit="10"/>
<path d="M54.2002 36.3479C56.5602 30.8879 52.8752 24.0409 45.9672 21.0529C39.0592 18.0649 31.5442 20.0679 29.1832 25.5269C26.8222 30.9869 30.5082 37.8339 37.4152 40.8219C44.3242 43.8099 51.8392 41.8069 54.2002 36.3479ZM22.4682 21.4949C22.4058 21.3013 22.3057 21.122 22.1736 20.9673C22.0415 20.8126 21.8801 20.6857 21.6986 20.5938C21.5171 20.5019 21.3193 20.4469 21.1164 20.4319C20.9135 20.417 20.7097 20.4424 20.5168 20.5067C20.3238 20.571 20.1455 20.6729 19.9921 20.8066C19.8388 20.9402 19.7135 21.1029 19.6234 21.2853C19.5333 21.4677 19.4803 21.6661 19.4674 21.8691C19.4545 22.0721 19.4819 22.2756 19.5482 22.4679C19.6802 22.8513 19.9582 23.1671 20.3218 23.3467C20.6854 23.5262 21.1051 23.555 21.4898 23.4269C21.8745 23.2987 22.1931 23.0238 22.3763 22.6621C22.5595 22.3003 22.5925 21.8809 22.4682 21.4949Z" fill="white" stroke="#1A1A1A" stroke-width="0.605" stroke-miterlimit="10"/>
<path d="M41.0662 25.7609C40.5594 25.3869 40.0103 25.0741 39.4302 24.8289C39.1237 24.718 38.7971 24.6735 38.4721 24.6985C38.1471 24.7235 37.8311 24.8174 37.5452 24.9739C37.2602 25.1353 37.0415 25.3922 36.9276 25.6993C36.8138 26.0064 36.8122 26.3438 36.9232 26.6519C37.0172 26.9209 37.1652 27.1679 37.3582 27.3769C38.3112 28.1429 39.6162 28.6199 40.1132 29.7369C40.3308 30.2907 40.3741 30.8978 40.2372 31.4769C40.1865 31.8059 40.0637 32.1197 39.8775 32.3956C39.6913 32.6715 39.4463 32.9028 39.1602 33.0729C38.8249 33.1947 38.4683 33.2464 38.1122 33.2249C37.7562 33.2034 37.4083 33.1092 37.0902 32.9479C36.1089 32.5411 35.2102 31.9586 34.4382 31.2289M40.9842 23.4199L35.7642 34.3769M48.3162 28.7229C47.8024 28.3253 47.2295 28.0108 46.6182 27.7909C46.3131 27.6769 45.9872 27.629 45.6622 27.6506C45.3372 27.6721 45.0205 27.7626 44.7332 27.9159C44.4582 28.0864 44.2492 28.345 44.1402 28.6496C44.0312 28.9542 44.0287 29.2867 44.1332 29.5929C44.2532 29.8729 44.4552 30.1119 44.7122 30.2769C45.6652 31.0429 46.9702 31.4989 47.4672 32.6369C47.6772 33.1869 47.7132 33.7869 47.5702 34.3569C47.5231 34.6843 47.404 34.9972 47.2213 35.273C47.0387 35.5489 46.7972 35.7807 46.5142 35.9519C46.1788 36.0738 45.8219 36.1256 45.4657 36.1041C45.1095 36.0826 44.7615 35.9882 44.4432 35.8269C43.4478 35.4358 42.5397 34.8516 41.7712 34.1079M48.2532 26.3829L43.0132 37.3389" stroke="#1A1A1A" stroke-width="0.605" stroke-miterlimit="10" stroke-linecap="round"/>
</svg>
