<svg width="81" height="80" viewBox="0 0 81 80" fill="none" xmlns="http://www.w3.org/2000/svg">
<path d="M54.0862 43.5072C55.3671 46.1088 56.8595 48.6008 58.5485 50.958C60.2443 53.3254 62.2324 55.3926 64.0912 57.6089C64.2393 57.7877 64.3954 57.9773 64.427 58.2074C64.4586 58.4375 64.3697 58.642 64.2848 58.8464L63.2892 61.2168C64.4421 60.908 65.4924 60.299 66.3332 59.4519C66.4464 59.3548 66.5293 59.2273 66.5722 59.0844C66.5893 58.9485 66.5712 58.8105 66.5198 58.6835C65.4048 55.1161 63.2477 51.9872 61.4028 48.7368C59.5578 45.4854 57.9717 41.8923 58.187 38.161C58.2759 36.643 58.6611 35.1575 59.3218 33.7877C59.4472 33.5026 59.6136 33.2375 59.8156 33.0005C59.9144 32.9116 59.9973 32.8089 60.0635 32.6943C60.1178 32.5407 60.1314 32.3757 60.103 32.2153L59.4423 24.8869C60.6176 25.3057 60.8418 26.5659 61.0848 27.6405C61.3708 28.911 61.5117 30.2098 61.5045 31.5121C61.4986 32.5235 61.4373 33.5664 61.6892 34.5561C61.7978 35.0331 62.0122 35.4785 62.3183 35.8598C62.6156 36.2104 63.0788 37.0143 63.6536 36.6844C63.7627 36.6211 63.8457 36.5211 63.888 36.4023C63.9303 36.2835 63.9292 36.1536 63.8848 36.0356C63.7514 35.6504 63.3435 35.6681 63.0057 35.5575C62.7539 35.4756 62.508 35.2198 62.6186 34.9847C62.6496 34.929 62.6882 34.8778 62.7331 34.8326C63.2576 34.238 63.303 33.3936 63.3998 32.6163C63.5954 31.0242 64.0833 29.4815 64.3756 27.9042C64.668 26.3269 64.7549 24.6509 64.1712 23.1585C63.6378 21.7946 62.5791 20.6706 61.3662 19.8183C60.1524 18.9659 58.7835 18.3575 57.4196 17.764C56.7835 17.4884 56.0951 17.1674 55.7978 16.5521C55.3485 15.6237 55.9993 14.4988 55.7297 13.5081C55.5124 12.7072 54.6749 12.1452 53.8285 12.1235C52.9811 12.1027 52.1672 12.5768 51.6734 13.2514C51.1559 13.9585 51.0443 15.0844 51.7524 15.603C51.9618 15.7531 52.2117 15.8351 52.4122 15.9931C52.8754 16.3605 52.9376 17.0202 52.9554 17.603C52.9662 17.8854 52.9692 18.1956 52.7845 18.4128C52.6334 18.5906 52.3934 18.6627 52.1662 18.7289C50.7104 19.1269 49.2359 19.4499 47.7465 19.6938C47.4611 19.7569 47.1669 19.769 46.8773 19.7294C46.4043 19.6365 46.0378 19.2899 45.6941 18.9551C44.1972 17.4752 42.7638 15.9324 41.3978 14.3309C40.904 13.7541 40.3983 13.1506 39.709 12.8207C39.0976 12.5294 38.4833 12.5659 37.8818 12.8375C37.4048 13.0548 36.9465 13.519 37.5312 13.9279C38.1159 14.3378 38.7687 14.641 39.3425 15.0835C39.9164 15.524 40.4872 16.0267 41.0393 16.5156C41.5914 17.0054 41.8788 17.7679 42.1939 18.4336C42.7371 19.5565 43.2309 20.637 43.9114 21.6859C44.025 21.8775 44.1623 22.0543 44.3203 22.2114C44.7104 22.5669 45.2655 22.6568 45.7899 22.7427C46.8033 22.9086 47.8087 23.1151 48.8053 23.362C49.708 23.5852 50.7608 23.764 51.6023 24.1659C52.6294 24.6568 52.022 26.319 51.9509 27.2089L51.6892 30.7072C51.5983 31.9338 51.5065 33.1625 51.2843 34.3714C51.0028 35.8854 50.5198 37.3561 50.186 38.8593C48.8033 45.0815 50.024 51.5427 50.2048 57.9141H50.5722C50.9475 58.5719 50.5248 59.4202 49.9499 59.9151C49.3771 60.4089 48.6492 60.7249 48.1465 61.2928C49.5815 61.4973 51.0403 61.4578 52.4625 61.1763C52.3066 60.2298 52.1706 59.2801 52.0546 58.3279C52.0158 58.1322 52.0219 57.9303 52.0724 57.7373C52.2215 57.2998 52.6453 57.0301 52.7993 56.5827C52.9672 56.0948 53.0097 55.5338 53.0956 55.0272C53.3139 53.7501 53.4936 52.4662 53.6339 51.1753C53.8429 49.2595 53.979 47.3365 54.0418 45.4104C54.0566 44.9482 54.2828 43.9052 54.0862 43.5072Z" fill="white"/>
<path d="M39.8107 25.8944C39.0749 29.4628 36.9208 32.722 33.9015 34.8327C33.6685 34.9946 33.4235 35.1606 33.2892 35.4085C33.0996 35.763 33.1855 36.1946 33.2803 36.5838C34.3924 41.3067 35.4097 46.2243 34.4151 50.9759C34.021 52.8544 33.3188 54.6746 33.147 56.5857C32.9761 58.4949 33.4551 60.6095 34.9919 61.7956C34.1052 61.8697 33.2124 61.796 32.3499 61.5774C32.0566 61.5013 31.7475 61.3966 31.5746 61.1576C31.2586 60.7191 31.3593 60.0257 31.3939 59.525C31.4423 58.8386 31.541 58.1522 31.5341 57.4628C31.5341 56.9057 31.4551 56.3536 31.4018 55.7996C31.1154 52.8425 31.3702 49.8015 30.5376 46.9512C30.5376 47.1931 30.0912 47.6188 29.9796 47.842C29.869 48.0643 29.8038 48.322 29.6734 48.5551C29.3144 49.1832 28.9336 49.7985 28.5317 50.4001C27.7272 51.6338 26.865 52.8288 25.948 53.9813C25.0492 55.1132 24.0843 56.2213 23.4996 57.5349C22.9159 58.8485 22.7657 60.4386 23.4996 61.6791L21.4917 59.6287C21.2704 59.4015 20.8991 59.043 20.9346 58.6954C20.9732 58.325 21.4591 57.9606 21.6586 57.6643C22.0398 57.0934 22.1475 56.3892 22.2877 55.7166C22.8882 52.7665 24.1939 50.0169 25.3534 47.2396C25.7554 46.2727 26.1455 45.286 26.2749 44.247C25.1153 45.9799 23.8991 47.6743 22.6285 49.3275C22.5833 49.4006 22.5147 49.4563 22.4339 49.4855C22.3703 49.4937 22.3057 49.4856 22.2462 49.4618C21.6791 49.3042 21.125 49.1027 20.589 48.8593C20.0122 48.5778 19.4887 48.2006 18.9682 47.8253C18.4428 47.5635 17.9519 47.0904 17.4769 46.7487L15.9223 45.6297C15.5934 45.3927 14.8477 45.0499 14.9692 44.5482C15.0749 44.1166 15.704 43.5902 15.9815 43.2376C17.3591 41.4516 18.5754 39.5468 19.6161 37.5457C20.3837 36.0689 21.0522 34.5425 21.6171 32.9769C17.9292 32.2924 14.6156 29.8756 12.8882 26.6065C12.9751 27.206 12.0685 27.5388 11.5499 27.209C11.0314 26.8801 10.8507 26.2312 10.7203 25.6356C10.668 25.3986 10.6364 25.1102 10.826 24.9561C11.0433 24.7862 11.3603 24.9294 11.5894 25.0835C12.9534 26.005 14.0902 27.2929 15.6418 27.8529C16.9396 28.3211 18.6452 28.5344 19.8976 27.9319C21.3035 27.2561 22.5848 26.3471 23.6872 25.2435C24.2769 24.6509 24.8112 24.006 25.3425 23.362C26.5396 21.9171 27.6171 20.0514 29.6457 19.6406C30.6551 19.4302 31.4699 19.8736 31.9401 20.7793C32.1386 21.1902 32.2729 21.6287 32.3371 22.0801C32.4181 22.5512 32.4606 23.045 32.3035 23.4964C32.0734 24.1551 31.383 24.1976 31.1727 24.8297C31.0956 25.0588 30.908 26.5087 31.469 26.4643C32.6152 26.3503 33.7049 25.911 34.6097 25.1981C35.079 24.8365 35.5045 24.4215 35.8778 23.9615C36.0654 23.7314 36.2404 23.4914 36.4023 23.2425C36.5149 23.0687 36.7539 22.8228 36.7934 22.6223C37.0008 21.5882 37.1539 20.5443 37.2546 19.4954C37.3287 18.7122 37.3741 17.928 37.4186 17.1428C37.4482 16.9067 37.4285 16.6687 37.3643 16.4396C37.2951 16.243 37.1549 16.0751 37.0946 15.8766C37.0595 15.7342 37.0543 15.5861 37.0793 15.4417C37.1043 15.2972 37.159 15.1594 37.2398 15.0371C37.4033 14.7936 37.6001 14.5742 37.8245 14.3853L38.2196 14.0218C38.2424 13.9939 38.271 13.9711 38.3034 13.9551C38.3357 13.9391 38.3711 13.9302 38.4072 13.929C38.5129 13.9438 38.5514 14.0751 38.5623 14.1798C38.6097 14.6539 38.5939 15.1319 38.5149 15.6011C38.4428 16.0425 38.4734 16.3191 38.6887 16.7072C38.8665 17.0282 39.0265 17.3601 39.1657 17.7008C40.2127 20.245 40.3598 23.2198 39.8097 25.8954L39.8107 25.8944Z" fill="white"/>
<path d="M53.9894 15.5241C53.8066 15.7178 53.5711 15.8538 53.3119 15.9152C53.0008 16.0187 52.6686 16.0422 52.346 15.9833C51.6606 15.8342 51.1825 15.1577 51.1282 14.4712C51.0739 13.7848 51.3771 13.1063 51.8057 12.567C52.2541 11.9991 52.8774 11.528 53.6013 11.4243C53.9359 11.3785 54.2766 11.4116 54.5961 11.521C54.9156 11.6304 55.205 11.8131 55.4413 12.0544C55.6701 12.2964 55.8372 12.59 55.9283 12.9104C56.0194 13.2307 56.0319 13.5683 55.9648 13.8944C55.8492 14.4307 55.5164 14.9186 55.4986 15.4688C55.5035 15.7433 55.548 16.0149 55.6319 16.2767L55.8739 17.1804" stroke="black" stroke-width="0.316049" stroke-linecap="round" stroke-linejoin="round"/>
<path d="M55.9934 17.44C55.0128 17.7457 53.995 17.9162 52.9682 17.9467C52.9786 17.3675 53.0488 16.7909 53.1776 16.2262M52.1396 12.4998C52.6094 13.1813 53.2711 13.708 54.0408 14.0128C53.9351 13.7412 54.2502 13.4607 54.5445 13.4667C54.9257 13.4736 55.2408 13.7985 55.3534 14.158C55.466 14.5165 55.4196 14.9017 55.3692 15.2741L55.2556 15.0005M56.9593 22.3151C58.7667 23.8558 60.6759 25.5684 61.1756 27.8607C61.3346 28.5956 61.3396 29.3482 61.3475 30.0968C61.3643 31.76 61.4067 33.4548 61.9272 35.0282L62.988 34.6598C63.147 33.1694 63.4077 31.6909 63.7682 30.2351C64.2502 28.2815 64.9218 26.2805 64.5475 24.3032C64.1998 22.4454 62.9494 20.8346 61.4067 19.7027C59.863 18.5719 58.0388 17.8706 56.2048 17.2899" stroke="black" stroke-width="0.316049" stroke-linecap="round" stroke-linejoin="round"/>
<path d="M59.5815 24.8345C59.5855 27.5238 59.7919 30.2093 60.1978 32.867C57.4393 33.2275 54.6028 33.5831 51.9006 32.9283C51.8404 32.9296 51.7809 32.9168 51.7267 32.8908C51.6724 32.8648 51.6251 32.8263 51.5886 32.7786C51.552 32.7309 51.5272 32.6752 51.5162 32.6161C51.5052 32.557 51.5083 32.4961 51.5253 32.4384C51.9193 27.5594 52.3687 22.6833 52.8744 17.8142" stroke="black" stroke-width="0.316049" stroke-linecap="round" stroke-linejoin="round"/>
<path d="M52.7914 18.628L47.2645 19.5969C46.9939 19.6443 46.7104 19.6917 46.4487 19.6068C46.188 19.5209 45.9954 19.3263 45.8107 19.1357C44.1038 17.3792 42.4796 15.5441 40.9435 13.6364C40.5998 13.2078 40.2423 12.7624 39.7435 12.5184C39.4592 12.3838 39.1462 12.3212 38.832 12.3362C38.5179 12.3511 38.2122 12.4432 37.942 12.6043C37.6778 12.768 37.4592 12.996 37.3069 13.267C37.1546 13.538 37.0734 13.8431 37.0709 14.154C37.7051 13.989 38.3119 13.7328 38.8724 13.3935L43.9964 21.7796C44.103 21.9841 44.2502 22.1648 44.428 22.311C44.6314 22.4562 44.8872 22.5085 45.1351 22.5579C47.3794 23.0053 49.5992 23.5674 51.786 24.2419M59.4709 33.2177C58.982 35.9772 56.9208 38.1787 55.6487 40.6873C54.3322 43.2829 53.865 46.2043 53.5006 49.0824C53.1647 51.7095 52.8951 54.3436 52.6907 56.9836C52.6778 57.1317 52.6581 57.2987 52.5386 57.3935C52.4556 57.4467 52.3604 57.4779 52.262 57.4843L50.0754 57.7984L49.4601 47.6542C49.3784 46.6154 49.3507 45.573 49.3771 44.5313C49.4393 43.4369 49.5736 42.3485 49.7781 41.271C50.2472 38.5777 50.8617 35.9117 51.6191 33.2848M61.9164 35.0873C61.8452 35.5782 62.2324 36.0315 62.6847 36.2577C63.2043 36.5115 63.8008 36.554 64.3509 36.3782C64.3855 36.1787 64.2551 35.992 64.1228 35.8369C63.7801 35.4419 62.3588 35.3777 61.9164 35.0873Z" stroke="black" stroke-width="0.316049" stroke-linecap="round" stroke-linejoin="round"/>
<path d="M58.1119 37.0074C58.2304 38.4138 58.3875 39.8153 58.582 41.2138C58.746 42.4049 58.9406 43.599 59.3475 44.7328C59.7129 45.7472 60.2443 46.6943 60.7717 47.6385L65.3564 55.8232C65.4433 55.9783 65.5331 56.1511 65.5015 56.3249C65.463 56.463 65.3871 56.5877 65.2823 56.6854L64.265 57.8252C60.5919 53.9062 56.8764 49.9427 54.1978 45.3096M65.5302 56.7575C65.9164 57.3896 66.2571 58.0494 66.5494 58.7299C66.6025 58.8323 66.6316 58.9454 66.6344 59.0607C66.6215 59.2958 66.4062 59.4637 66.2146 59.6L63.1035 61.7511C63.0907 61.3975 63.2665 61.0667 63.4373 60.7555L64.8151 58.2469C64.6617 58.0778 64.5732 57.8598 64.5653 57.6316M50.6097 57.8114L50.5603 59.2069C50.5646 59.3112 50.5453 59.4152 50.504 59.5111C50.4481 59.6018 50.3712 59.6777 50.2798 59.7323C49.3969 60.3447 48.2857 60.6509 47.5509 61.4281C49.0274 61.4221 50.502 61.3218 51.9657 61.1279C52.0716 61.1236 52.1741 61.0901 52.262 61.0311C52.4201 60.8997 52.3845 60.6558 52.343 60.4583C52.1583 59.5875 52.0991 58.6949 52.1672 57.8074M50.5346 59.6425L51.8798 59.44M30.2245 24.1926C30.6146 24.562 31.2813 24.5472 31.7257 24.238C32.1682 23.9299 32.3983 23.3906 32.4369 22.8593C32.4764 22.3289 32.345 21.8005 32.183 21.2928C32.0201 20.7852 31.8048 20.2509 31.3771 19.916C30.983 19.6089 30.4527 19.5062 29.9529 19.5605C29.4554 19.6318 28.9769 19.8014 28.5455 20.0593M27.1519 25.1575C23.0087 27.676 17.8186 28.481 13.0897 27.3393C14.1396 29.7847 16.343 31.7234 18.9406 32.4751C20.2438 32.8428 21.6109 32.9263 22.9492 32.7198C24.2875 32.5133 25.5658 32.0216 26.6976 31.278" stroke="black" stroke-width="0.316049" stroke-linecap="round" stroke-linejoin="round"/>
<path d="M21.8383 33.5259C21.4532 34.7388 20.8724 35.8825 20.2443 36.9886C18.6699 39.7708 16.7939 42.3712 14.6502 44.7427C17.0161 46.6255 19.5741 48.2533 22.2818 49.599C24.5023 47.3718 26.2693 44.7347 27.4848 41.8341C27.9684 40.6977 28.3408 39.5172 28.5969 38.3091C28.8033 37.2316 28.9425 36.1412 29.0166 35.0469C29.2971 31.598 29.3583 28.0286 28.104 24.7951M22.4882 38.1778C23.17 38.819 24.0708 39.1758 25.0067 39.1753M30.9228 24.6746L30.8181 25.763C30.8157 25.8349 30.8003 25.9059 30.7727 25.9723C30.7051 26.0845 30.598 26.1673 30.4724 26.2044C30.1887 26.3078 29.8809 26.3259 29.587 26.2566C29.293 26.1873 29.0258 26.0336 28.8181 25.8143M30.8971 25.9309C31.3969 26.4899 31.862 27.0785 32.2897 27.6928C32.4181 27.8607 32.5208 28.0464 32.5959 28.243C32.6611 28.482 32.6867 28.7299 32.6709 28.9778C32.6527 30.3961 32.5428 31.8117 32.342 33.2158C31.3692 33.4133 30.3944 33.602 29.4186 33.7807" stroke="black" stroke-width="0.316049" stroke-linecap="round" stroke-linejoin="round"/>
<path d="M31.4897 26.2904C32.3405 26.3242 33.1867 26.1496 33.9547 25.782C34.7227 25.4143 35.3893 24.8647 35.8966 24.1808C36.7618 22.9798 37.0423 21.4736 37.2201 20.0139C37.36 18.8314 37.4499 17.6435 37.4897 16.4534C37.708 16.6262 38.0843 16.404 38.2996 16.5818C38.3549 16.6351 38.3983 16.7003 38.425 16.7734C39.2645 18.5995 40.0053 20.5067 40.1435 22.5037C40.2541 24.0781 39.9845 25.6524 39.5924 27.1852C39.1727 28.8109 38.6067 30.4218 37.6714 31.8272C36.7361 33.2316 35.4067 34.4267 33.789 34.9827M30.9346 36.3269C31.2643 38.8786 31.4 41.4516 31.3406 44.0237C31.3423 44.411 31.3072 44.7976 31.2359 45.1783C31.1318 45.5972 30.9825 46.0036 30.7904 46.3902C30.2151 47.6309 29.553 48.8296 28.8092 49.9773C27.1164 52.5916 25.0107 54.9225 23.1035 57.3916C22.9267 57.6208 22.7381 57.8598 22.4734 57.9714C22.2087 58.082 21.8285 58.001 21.7267 57.7324C22.9129 52.9502 25.2675 48.5235 26.6867 43.8035" stroke="black" stroke-width="0.316049" stroke-linecap="round" stroke-linejoin="round"/>
<path d="M32.265 33.2642C33.1934 36.3693 33.8828 39.5358 34.5741 42.6992C34.7845 43.6434 34.986 44.5995 35.0136 45.5674C35.0393 46.476 34.909 47.3847 34.7687 48.2854C34.251 51.6677 33.6579 55.0381 32.9899 58.394C32.9615 58.6166 32.8871 58.8308 32.7717 59.0232C32.4912 59.4242 31.9322 59.5022 31.4383 59.5476C31.5088 55.2736 31.2466 51.0007 30.6541 46.7674" stroke="black" stroke-width="0.316049" stroke-linecap="round" stroke-linejoin="round"/>
<path d="M21.9499 27.3245C21.5973 27.3936 21.1578 27.4153 20.9583 27.122C20.8319 26.9363 20.8527 26.6904 20.909 26.4731C21.0503 25.9014 21.3219 25.37 21.7024 24.9205C22.0829 24.471 22.562 24.1154 23.1025 23.8815C23.6132 23.6632 24.182 23.5487 24.6136 23.2059C25.3218 22.644 25.4532 21.6563 25.8739 20.8612C26.5682 19.525 28.2048 18.7279 29.7109 18.9946C30.1218 19.0667 30.5791 19.2415 30.8517 19.5664C31.1973 19.9773 30.9692 20.2815 30.7578 20.7092C30.3507 21.5325 29.8463 22.3041 29.2556 23.0074C27.3787 25.2301 24.8043 26.7515 21.9519 27.3235L21.9499 27.3245Z" fill="black" stroke="black" stroke-width="0.316049" stroke-linecap="round" stroke-linejoin="round"/>
<path d="M38.4546 16.4641L38.5287 14.9392C38.5475 14.5589 38.5623 14.1609 38.3974 13.8172C38.1797 13.9721 37.9834 14.1551 37.8136 14.3614C37.658 14.558 37.5148 14.7641 37.385 14.9787C37.2566 15.1831 37.1243 15.3984 37.0986 15.6374C37.0719 15.8774 37.1865 16.151 37.4176 16.23M22.6433 58.1688L23.8235 61.2226C22.8072 60.5987 21.8507 59.8823 20.9662 59.0824C20.9014 59.0339 20.852 58.9677 20.824 58.8917C20.7796 58.7268 20.9376 58.5836 21.068 58.472C21.2853 58.2873 21.4729 58.072 21.627 57.832M32.9109 59.2611C32.8793 59.2453 32.9011 59.192 32.9366 59.1861C32.9543 59.1856 32.9719 59.1886 32.9883 59.1951C33.0048 59.2015 33.0198 59.2112 33.0324 59.2236L35.5667 61.1614C34.1178 61.4458 32.6136 60.9095 31.1509 61.109C31.2247 60.5307 31.3554 59.961 31.5411 59.4083M38.9011 13.2503L39.2862 12.6616M12.9771 25.6019C12.7598 25.1357 12.2541 24.8671 11.7564 24.7051C11.2596 24.5441 10.7302 24.4631 10.2699 24.2182C10.5169 25.0221 10.9909 25.7392 11.6339 26.2804C11.7248 26.337 11.7897 26.4271 11.8146 26.5313C11.8245 26.6547 11.4611 26.8345 11.3781 26.9283C11.2951 27.0211 11.2309 27.1713 11.3188 27.2611C11.3484 27.2839 11.3823 27.3006 11.4184 27.3101C11.4545 27.3196 11.4922 27.3217 11.5292 27.3164C11.9045 27.3164 12.7885 27.1624 13.0146 26.8157C13.225 26.5026 13.1203 25.913 12.9771 25.6009V25.6019Z" stroke="black" stroke-width="0.316049" stroke-linecap="round" stroke-linejoin="round"/>
<path d="M55.866 13.2011C55.866 12.9789 55.8225 12.7586 55.7376 12.5542C55.6508 12.3959 55.5417 12.2508 55.4136 12.1235C55.2395 11.9141 55.0299 11.7369 54.7944 11.6001C54.4498 11.4467 54.0646 11.4096 53.6971 11.4944C53.4484 11.5404 53.2063 11.6167 52.9761 11.7216C52.813 11.7876 52.6644 11.8849 52.5386 12.008C52.4765 12.0692 52.4282 12.143 52.397 12.2244C52.3659 12.3059 52.3525 12.393 52.3578 12.4801C52.3825 12.7092 52.5672 12.885 52.742 13.0411L53.4689 13.6919C53.548 13.7808 53.6586 13.8391 53.7781 13.8529C53.9628 13.8529 54.0724 13.6554 54.2186 13.5448C54.4596 13.3611 54.825 13.4164 55.068 13.5981C55.2201 13.7216 55.3445 13.8747 55.4334 14.0505C55.4976 14.165 55.5183 14.3033 55.6625 14.2233C55.9351 14.0682 55.8778 13.4371 55.866 13.2011Z" fill="black" stroke="black" stroke-width="0.0632099" stroke-miterlimit="10"/>
<path d="M66.8033 40.4394C67.1588 44.5175 67.1292 47.9328 66.8349 52.0177C48.5412 52.5163 30.2445 52.9008 11.946 53.1713C11.9035 53.1713 11.6072 46.3071 11.5766 45.6839C11.5144 44.4217 11.4344 43.1584 11.389 41.8952C11.3386 40.4631 11.8215 40.7249 12.8675 40.7199C17.2062 40.7031 21.546 40.6528 25.8838 40.6004C34.6087 40.4938 43.3356 40.3377 52.0655 40.1313C56.9593 40.0167 61.7159 39.1002 66.8033 40.4394Z" fill="#2DC3C3"/>
<path d="M47.2131 40.2292H28.9939V52.4011H47.2131V40.2292Z" fill="white"/>
<path d="M66.985 46.9719C66.8892 44.647 66.8517 42.7645 66.9238 40.4396C65.1736 40.2174 63.3702 39.5112 61.626 39.2109C61.2457 43.5566 61.0136 47.9141 60.9297 52.2816C62.4487 52.57 63.9993 52.4129 65.5292 52.327C66.0141 52.2993 67.066 52.5186 67.1835 51.9517C67.3267 51.2603 67.1164 50.3151 67.0877 49.607C67.0561 48.73 67.0215 47.8509 66.985 46.9719Z" fill="#2DC3C3"/>
<path d="M70.6294 52.889C70.9949 57.5626 70.6907 62.2559 70.3875 66.9423C51.5865 67.5151 32.2739 66.5176 13.4749 66.8277C13.4304 66.8277 13.9025 59.6169 13.8699 58.9008C13.8067 57.4529 13.7248 56.004 13.6783 54.5551C13.626 52.9117 14.1228 53.2129 15.1973 53.205C19.6546 53.1843 24.1129 53.127 28.5702 53.0667C37.5381 52.9453 46.506 52.7655 55.4739 52.5295C60.4981 52.4011 65.5618 52.2144 70.6294 52.889Z" fill="#2DC3C3"/>
<path d="M48.4369 66.9294L31.4383 66.8366L31.3218 52.6638L48.7628 52.5393L48.4369 66.9294Z" fill="white"/>
<path d="M70.6354 60.8712C70.5366 58.2045 70.4378 55.5359 70.5119 52.8722C68.7126 52.6157 66.9198 52.3154 65.1351 51.9714C64.7429 56.9611 64.5041 61.9617 64.4191 66.966C65.9776 67.2959 67.5726 67.1161 69.144 67.0184C69.6428 66.9867 70.7233 67.2396 70.8428 66.5867C70.9909 65.7946 70.7766 64.7102 70.746 63.8983C70.7088 62.8893 70.6719 61.8803 70.6354 60.8712Z" fill="#2DC3C3"/>
<path d="M76.7796 66.7753C56.0191 67.6898 24.9297 66.4444 4.6087 67.2138M28.9978 40.5135C29.1025 44.8878 29.1025 48.2567 29.2052 52.632L29.2467 52.3357M47.0917 40.0049C47.143 44.4325 47.1954 48.2399 47.2457 52.6686M47.2793 43.0715C53.9885 43.034 54.5238 43.1288 61.2299 43.3125M47.3425 47.0281C53.8561 46.9915 54.7006 47.3343 61.1924 46.8967M47.8255 49.9664C54.0931 49.9604 54.8339 49.8054 61.0897 49.5022M11.623 43.9703C13.4097 44.0078 13.9983 43.8074 15.788 43.8518C20.1415 43.9565 24.4299 43.4538 28.8576 43.1535M11.4808 46.7199C16.6749 46.958 20.5692 46.6972 25.8156 46.4681C26.8922 46.4197 27.9569 46.1935 29.0304 46.2212M28.8546 50.0503C22.7806 50.4059 18.0201 50.5027 11.943 50.3436" stroke="black" stroke-width="0.501728" stroke-linecap="round" stroke-linejoin="round"/>
<path d="M31.3662 53.034C31.4403 56.8256 31.4245 60.6172 31.4077 64.4108L31.3959 67.0074C31.3959 67.0795 31.3376 67.1516 31.3643 67.2148C31.3899 67.278 31.4314 67.1279 31.3978 67.1891M48.7559 53.0933C48.3805 57.8364 48.2298 62.5947 48.3045 67.3521M31.2013 56.5096C29.5934 56.4592 18.7904 56.1916 13.4393 56.3891M13.7643 60.24C17.9124 61.2158 21.7623 60.1491 25.9549 60.3377C28.7934 60.4661 28.4161 60.2607 31.2013 60.4661M31.3317 64.4227C26.4635 64.9303 24.5959 64.1679 19.7188 64.2538C17.4492 64.2933 15.8936 64.4908 13.625 64.4049M48.5356 63.675C57.4522 63.5525 55.6388 63.8113 64.5534 63.6819M49.1144 59.6977C57.7099 59.9051 55.9144 60.0928 64.5119 59.913M49.1173 56.717C57.3583 56.8355 56.5089 56.96 64.7213 56.5501M67.0867 52.8454C67.0018 49.7876 66.9564 46.7279 66.8339 43.6701C66.7914 42.6241 66.8694 41.2928 66.8497 40.4819C66.667 40.2844 61.6329 39.5042 61.6329 39.5042C61.6329 39.5042 49.4067 39.9071 45.4403 39.9812L34.9336 40.1767L11.1006 40.6212C11.4423 45.0479 11.6833 48.2656 12.025 52.6923L13.8166 52.7318" stroke="black" stroke-width="0.501728" stroke-linecap="round" stroke-linejoin="round"/>
<path d="M70.265 67.0893C70.4724 62.2024 70.6136 57.8893 70.6235 52.9955C68.9149 52.6933 67.0848 52.4839 65.2388 52.317C48.0754 52.1461 30.902 53.3273 13.7435 52.7436L13.467 66.5866M61.5954 39.2661C61.2922 43.4143 61.1509 47.5703 61.1717 51.7303" stroke="black" stroke-width="0.501728" stroke-linecap="round" stroke-linejoin="round"/>
<path d="M64.8477 52.5412C64.6008 57.3046 64.5198 62.072 64.6048 66.8444L64.5909 66.4503M61.2852 43.1792C63.1391 43.4755 64.9889 43.7856 66.8368 44.1076M61.228 46.956C63.0848 47.0943 64.9327 47.3017 66.7736 47.5792M61.2497 49.598C63.1529 50.0128 65.0917 50.2557 67.0373 50.3249M64.7727 56.393L70.4487 57.2503M64.7223 59.8972C66.5422 59.7746 68.3703 59.8925 70.1593 60.2478M64.6719 63.675C66.4396 63.6786 68.2053 63.7964 69.9578 64.0276M39.1134 44.3555C38.6383 44.0938 38.0685 43.9733 37.543 44.1135C37.0196 44.2538 36.5603 44.6834 36.4704 45.2187C36.4402 45.363 36.4554 45.513 36.5139 45.6483C36.6373 45.9022 36.9425 46.0019 37.2181 46.0631C37.7435 46.1787 38.2828 46.2409 38.7954 46.4078C39.0196 46.4651 39.221 46.5856 39.3771 46.7575C39.4981 46.925 39.5584 47.1288 39.548 47.3352C39.5491 47.5781 39.473 47.815 39.3307 48.0118C39.2214 48.1441 39.0857 48.2521 38.9323 48.329C38.7789 48.4058 38.6112 48.4498 38.4398 48.4582C38.0966 48.4731 37.7541 48.4159 37.4344 48.2903C37.0488 48.1546 36.6813 47.9722 36.3401 47.7471" stroke="black" stroke-width="0.501728" stroke-linecap="round" stroke-linejoin="round"/>
<path d="M37.8601 42.9116C37.9094 43.4252 37.8867 43.9408 37.8877 44.4553C37.8877 46.0899 38.1425 47.7175 38.1297 49.3531M41.0255 57.7808C40.5504 57.519 39.9796 57.3975 39.4551 57.5378C38.9307 57.678 38.4714 58.1087 38.3825 58.644C38.3522 58.7885 38.3674 58.939 38.426 59.0746C38.5494 59.3274 38.8536 59.4272 39.1302 59.4894C39.6556 59.604 40.1949 59.6672 40.7065 59.8331C40.9307 59.8904 41.1331 60.0119 41.2892 60.1837C41.4088 60.352 41.4689 60.5553 41.4601 60.7615C41.4601 61.0035 41.384 61.2405 41.2418 61.4371C41.1326 61.5691 40.997 61.6769 40.8438 61.7536C40.6906 61.8303 40.5231 61.8742 40.3519 61.8825C40.0085 61.8973 39.6657 61.8404 39.3455 61.7156C38.9601 61.5794 38.5926 61.397 38.2512 61.1724" stroke="black" stroke-width="0.501728" stroke-linecap="round" stroke-linejoin="round"/>
<path d="M39.7712 56.3369C39.8206 56.8495 39.7969 57.3651 39.7969 57.8806C39.7969 59.5162 40.0537 61.1428 40.0408 62.7784" stroke="black" stroke-width="0.501728" stroke-linecap="round" stroke-linejoin="round"/>
</svg>
