<svg width="15" height="15" viewBox="0 0 15 15" fill="none" xmlns="http://www.w3.org/2000/svg">
<path d="M14.4374 7.27956H14.3571V5.08543C14.3571 4.40064 13.8499 3.83375 13.1918 3.7364V3.24277C13.1918 2.48986 12.5793 1.87736 11.8264 1.87736H11.2214L10.9029 1.02839C10.8811 0.970413 10.8379 0.923034 10.7821 0.896085C10.7264 0.869136 10.6624 0.864686 10.6035 0.883658L7.51907 1.87736H1.2226C0.581821 1.87736 0.0603943 2.39878 0.0603943 3.03956V12.7626C0.0603943 13.5155 0.672902 14.128 1.42581 14.128H12.9916C13.7445 14.128 14.3571 13.5155 14.3571 12.7626V10.5684H14.4374C14.7474 10.5684 14.9996 10.3162 14.9996 10.0062V7.84179C14.9996 7.53192 14.7474 7.27956 14.4374 7.27956ZM11.4023 2.35943H11.8264C12.3134 2.35943 12.7099 2.75572 12.7099 3.24293V3.72018H11.913L11.8649 3.59215L11.4023 2.35943ZM10.7067 1.87752L11.0982 2.92069L11.3983 3.72018H3.37095L10.5325 1.41312L10.7067 1.87752ZM1.2226 2.35943H6.02306L2.99667 3.33449L1.79945 3.72018H1.2226C0.847513 3.72018 0.542304 3.41497 0.542304 3.03988C0.542304 2.6648 0.847513 2.35943 1.2226 2.35943ZM13.8751 12.7626C13.8751 13.2498 13.4787 13.6461 12.9916 13.6461H1.42581C1.19156 13.6458 0.966991 13.5527 0.801357 13.387C0.635724 13.2214 0.542559 12.9968 0.542304 12.7626V3.98154C0.545677 3.98411 0.549693 3.98571 0.553227 3.98828C0.595314 4.018 0.639168 4.04515 0.68511 4.06924C0.693624 4.07374 0.702619 4.0776 0.711294 4.08193C0.753862 4.10298 0.797716 4.12145 0.843016 4.13719C0.850726 4.13992 0.858116 4.14297 0.865826 4.14555C0.915945 4.16177 0.967509 4.17398 1.02036 4.18329C1.03209 4.18538 1.04397 4.18699 1.05586 4.18876C1.11048 4.19663 1.1659 4.20209 1.2226 4.20209H12.9916C13.4787 4.20209 13.8751 4.59838 13.8751 5.08559V7.27973H12.2787C11.5258 7.27973 10.9133 7.89223 10.9133 8.64514V9.20319C10.9133 9.95609 11.5258 10.5686 12.2787 10.5686H13.8751V12.7626ZM14.5177 10.0062C14.5177 10.0275 14.5092 10.0479 14.4942 10.063C14.4791 10.0781 14.4587 10.0865 14.4374 10.0865H12.2787C12.0445 10.0863 11.8199 9.99311 11.6543 9.82748C11.4887 9.66184 11.3955 9.43727 11.3952 9.20303V8.64498C11.3952 8.15776 11.7917 7.76147 12.2787 7.76147H14.4374C14.4587 7.76147 14.4791 7.76994 14.4942 7.785C14.5092 7.80006 14.5177 7.82049 14.5177 7.84179V10.0062Z" fill="#2D383F"/>
</svg>
