<svg width="14" height="19" viewBox="0 0 14 19" fill="none" xmlns="http://www.w3.org/2000/svg">
<ellipse cx="7" cy="10.2308" rx="7" ry="7.30769" fill="white"/>
<path d="M7.4175 9.0205L6.864 13.5925H6L6.549 9.0205H7.4175ZM7.7145 7.6075C7.7145 7.6885 7.6965 7.7665 7.6605 7.8415C7.6275 7.9135 7.5825 7.978 7.5255 8.035C7.4715 8.089 7.4085 8.1325 7.3365 8.1655C7.2645 8.1955 7.191 8.2105 7.116 8.2105C7.041 8.2105 6.969 8.1955 6.9 8.1655C6.831 8.1325 6.7695 8.089 6.7155 8.035C6.6645 7.978 6.6225 7.9135 6.5895 7.8415C6.5595 7.7665 6.5445 7.6885 6.5445 7.6075C6.5445 7.5265 6.5595 7.45 6.5895 7.378C6.6225 7.303 6.666 7.2385 6.72 7.1845C6.774 7.1275 6.8355 7.0825 6.9045 7.0495C6.9765 7.0165 7.05 7 7.125 7C7.2 7 7.2735 7.0165 7.3455 7.0495C7.4175 7.0795 7.4805 7.123 7.5345 7.18C7.5885 7.234 7.632 7.2985 7.665 7.3735C7.698 7.4455 7.7145 7.5235 7.7145 7.6075Z" fill="#01D8B3"/>
</svg>
